<svg width="47" height="28" viewBox="0 0 47 28" fill="none" xmlns="http://www.w3.org/2000/svg">
<path d="M45.858 17.2263C45.388 18.5168 41.688 25.0674 39.178 26.0639C36.678 27.0685 24.618 27.7873 21.648 26.0639C19.088 24.5773 11.308 22.9601 6.79802 23.295C5.50802 23.3849 4.26804 22.8866 3.56804 22.0045C2.43804 20.6241 1.02803 18.623 0.978025 17.2263C0.918025 15.6418 0.338023 11.6968 0.398023 8.72369C0.408023 7.3025 0.558025 6.11002 0.978025 5.49743C2.27803 3.60251 10.628 0.0413695 12.948 0.0413695C15.268 0.0413695 19.438 3.3003 21.748 2.98992C24.068 2.68772 31.398 -0.342516 35.658 0.0413695C39.938 0.417087 45.588 8.74821 45.868 11.0924C45.868 11.1169 45.868 11.1414 45.878 11.1659C46.138 13.5019 46.328 15.944 45.868 17.2263H45.858Z" fill="#E3F7FC"/>
<path d="M45.858 17.2273C45.388 18.5178 41.688 25.0683 39.178 26.0648C36.678 27.0694 24.618 27.7882 21.648 26.0648C19.088 24.5783 11.308 22.9611 6.79802 23.2959C5.50802 23.3858 4.26804 22.8875 3.56804 22.0054C2.43804 20.6251 1.02803 18.6239 0.978028 17.2273C0.958028 16.5983 0.848023 15.6182 0.738023 14.4747C0.568023 12.7023 0.358026 10.5379 0.398026 8.72461C0.458026 9.16567 0.948033 12.2939 3.24803 14.0582C5.71803 15.9531 9.31802 14.973 13.488 15.316C17.658 15.6672 19.608 13.2822 20.888 12.4165C22.168 11.5507 23.748 16.0266 26.248 16.4758C28.738 16.9251 38.088 17.5867 42.018 15.1037C44.108 13.7805 45.248 12.3511 45.878 11.1749C46.138 13.5109 46.328 15.9531 45.868 17.2354L45.858 17.2273Z" fill="#CBEDFA"/>
<path d="M45.858 17.2268C45.618 17.8639 44.608 19.7588 43.358 21.6455C42.048 23.614 40.458 25.5661 39.188 26.0725C36.688 27.0771 24.6281 27.7959 21.6581 26.0725C19.0981 24.586 11.318 22.9687 6.80804 23.3036C5.51804 23.3934 4.27803 22.8952 3.57803 22.0131C2.44803 20.6328 1.03804 18.6316 0.988037 17.235C0.968037 16.606 0.858047 15.6259 0.748047 14.4824C0.748047 14.4824 3.78804 17.0226 8.73804 17.627C18.858 18.8522 19.428 16.3283 20.578 16.3447C22.468 16.3692 22.268 19.4239 27.738 19.7016C33.508 20.0038 42.0081 21.1228 45.8781 17.2268H45.858Z" fill="#9FDAED"/>
<path d="M43.358 21.645C42.048 23.6134 40.458 25.5655 39.188 26.0719C36.688 27.0765 24.6281 27.7953 21.6581 26.0719C19.0981 24.5854 11.318 22.9681 6.80804 23.303C5.51804 23.3929 4.27803 22.8946 3.57803 22.0125C2.44803 20.6322 1.03804 18.6311 0.988037 17.2344C0.988037 17.2344 1.91803 20.2074 5.72803 20.8037C9.55803 21.3999 15.348 19.8399 18.918 20.7629C22.478 21.6858 29.598 24.0136 35.748 23.2459C41.898 22.4699 43.368 21.6531 43.368 21.6531L43.358 21.645Z" fill="#A5DFF2"/>
<path d="M5.38796 4.56583C5.38796 4.56583 11.068 1.24973 13.178 1.69079C15.288 2.13185 16.368 2.70359 16.748 3.50403C17.128 4.29631 16.698 6.24023 14.208 6.19939C11.718 6.15855 8.09797 7.13052 6.95797 6.64045C5.81797 6.15039 3.95796 5.34177 5.38796 4.56583Z" fill="#F0FCFF"/>
<path d="M26.798 4.00353C26.798 4.00353 33.118 0.86713 35.448 1.65124C37.778 2.44351 40.858 4.15873 41.018 5.08168C41.168 6.00464 37.0281 7.84239 33.9081 7.78521C30.7881 7.71987 22.658 5.71876 26.798 4.00353Z" fill="#F0FCFF"/>
<path d="M9.07807 3.58595C9.07807 3.58595 11.6381 2.2546 13.1881 2.4588C14.7381 2.66299 15.5381 2.91618 15.8181 3.2674C16.0981 3.61861 15.7781 4.49257 13.9481 4.47624C12.1181 4.4599 9.44808 4.89279 8.61808 4.67226C7.77808 4.45173 8.02808 3.93717 9.08808 3.58595H9.07807Z" fill="white"/>
<path d="M29.268 3.8066C29.268 3.8066 33.198 1.85449 34.648 2.34456C36.098 2.83462 38.018 3.90462 38.108 4.47636C38.198 5.0481 35.628 6.19976 33.688 6.15892C31.748 6.11808 26.688 4.86841 29.268 3.8066Z" fill="white"/>
</svg>
