<svg width="18" height="21" viewBox="0 0 18 21" fill="none" xmlns="http://www.w3.org/2000/svg">
<path d="M0.168093 1.67549C0.168093 1.67549 0.508091 0.956711 2.29809 0.589162C5.01809 0.0419211 10.7881 -0.415476 15.5981 0.638166C16.4581 0.826025 17.1181 1.05474 17.5481 1.67549C17.5481 1.67549 18.5281 20.8616 8.85809 20.8616C-0.811912 20.8616 0.168093 1.67549 0.168093 1.67549Z" fill="#E3F7FC"/>
<path d="M16.618 12.2046C16.518 12.613 16.408 13.0377 16.298 13.4379C15.148 17.4156 12.948 20.8624 8.85803 20.8624C4.32803 20.8624 2.13804 16.6397 1.09804 12.1556H1.08804C0.948036 11.5593 0.838037 10.9631 0.738037 10.375C2.65804 12.6783 5.47804 14.3119 9.65804 14.3119C12.598 14.3119 14.868 13.5033 16.628 12.2127L16.618 12.2046Z" fill="#CBEDFA"/>
<path d="M16.2981 13.437C16.1881 13.8372 16.0581 14.2293 15.9081 14.6213C14.6881 18.0763 12.5381 20.8615 8.85814 20.8615C4.77814 20.8615 2.57814 17.4229 1.43814 13.4452H1.42814C1.31814 13.0123 1.19814 12.5875 1.09814 12.1465C1.23814 12.3915 3.57814 16.2304 8.42814 16.2304C13.2781 16.2304 16.3081 13.437 16.3081 13.437H16.2981Z" fill="#9FDAED"/>
<path d="M15.9081 14.6214C14.6881 18.0764 12.5381 20.8616 8.85811 20.8616C4.77811 20.8616 2.57811 17.423 1.43811 13.4453C1.60811 13.7067 4.69811 19.1382 8.85811 19.1382C13.0181 19.1382 15.9081 14.6214 15.9081 14.6214Z" fill="#A5DFF2"/>
<path d="M2.29805 3.03788C2.29805 3.03788 1.68805 1.8454 8.85805 1.5677C10.6581 1.49419 15.0281 1.77189 14.7481 2.86637C14.7481 2.86637 14.2081 5.8721 9.36805 5.8721C4.52805 5.8721 2.30806 3.03788 2.30806 3.03788H2.29805Z" fill="#F0FCFF"/>
<path d="M4.51806 2.61418C4.51806 2.61418 6.58806 2.09961 9.30806 2.09961C10.5081 2.09961 12.1381 2.09962 13.1981 2.56518C13.1981 2.56518 12.8181 3.3166 9.43806 3.3166C6.05806 3.3166 4.50806 2.60601 4.50806 2.60601L4.51806 2.61418Z" fill="white"/>
</svg>
