<svg width="25" height="34" viewBox="0 0 25 34" fill="none" xmlns="http://www.w3.org/2000/svg">
<path d="M12.8281 33.9858C12.8281 33.9858 4.09813 32.7443 2.27813 26.6103C0.448127 20.4763 0.958125 11.3693 1.26813 10.2993C1.97813 7.7918 8.26812 -0.522997 15.3781 0.0324109C22.4781 0.579652 24.6181 11.1896 24.1081 15.1755C23.5981 19.1613 23.1981 34.1573 12.8481 33.994L12.8281 33.9858Z" fill="#E3F7FC"/>
<path d="M22.9381 23.3694C22.7181 24.3005 22.4581 25.248 22.1381 26.1709C22.1381 26.1709 22.1381 26.1791 22.1281 26.1954C20.6781 30.3937 17.9781 34.0692 12.8381 33.9793C12.8381 33.9793 4.10811 32.7378 2.27811 26.6038C1.84811 25.1581 1.54811 23.5409 1.34811 21.9074C1.27811 21.4091 1.23811 20.9272 1.18811 20.4453C3.72811 23.6307 8.95811 25.101 11.9881 25.7135C13.8881 26.0893 15.8681 26.1628 17.7581 25.7789C19.8581 25.346 21.5581 24.4884 22.9381 23.3694Z" fill="#CBEDFA"/>
<path d="M22.1281 26.2018C21.4681 28.0967 20.5581 29.8936 19.2781 31.274C17.7381 32.9565 15.6581 34.0347 12.8281 33.9938C12.8281 33.9938 4.09814 32.7523 2.26814 26.6183C2.07814 25.9568 1.89814 25.2625 1.76814 24.5437C1.58814 23.6943 1.44814 22.804 1.34814 21.9219C1.60814 22.3303 5.94814 28.9298 13.3581 28.9298C20.7681 28.9298 21.9681 26.5122 22.1281 26.2018Z" fill="#9FDAED"/>
<path d="M19.2881 31.2673C17.7481 32.9499 15.6681 34.0281 12.8381 33.9872C12.8381 33.9872 4.10808 32.7457 2.27808 26.6117C2.08808 25.9501 1.90808 25.2559 1.77808 24.5371C1.77808 24.5371 5.11808 32.0841 13.2781 32.0841C15.7581 32.0841 17.7381 31.7493 19.2881 31.2755V31.2673Z" fill="#A5DFF2"/>
<path d="M5.57812 7.76662C5.57812 7.76662 10.7081 0.676988 15.0981 2.57191C19.4881 4.46683 22.0681 5.99421 21.0081 7.06418C19.9481 8.13416 4.93812 10.0781 5.57812 7.75845V7.76662Z" fill="#F0FCFF"/>
<path d="M9.79817 4.96652C9.79817 4.96652 12.1582 2.79388 14.1882 3.37379C16.2182 3.9537 17.3982 4.42744 16.9082 4.75415C16.4182 5.08086 9.49817 5.67711 9.79817 4.96652Z" fill="white"/>
</svg>
