<svg width="46" height="26" viewBox="0 0 46 26" fill="none" xmlns="http://www.w3.org/2000/svg">
<path d="M45.048 12.7821C44.928 16.1963 41.848 25.6464 37.538 25.4422C33.238 25.2462 30.288 24.5356 27.078 22.8367C23.878 21.1215 18.838 21.1215 13.788 22.8367C8.74804 24.5438 3.45803 23.7433 3.45803 23.7433C3.45803 23.7433 -0.11197 22.0117 0.868031 14.383C1.09803 12.5535 1.48804 10.7811 1.99804 9.15568C3.62804 3.96098 6.45802 0.105787 9.35802 0.0159417C13.178 -0.0820716 17.348 3.02985 23.378 2.44177C29.418 1.83736 33.098 0.522331 37.168 1.33094C40.368 1.96803 43.488 6.60732 44.608 10.2175C44.918 11.1894 45.068 12.0797 45.038 12.7903L45.048 12.7821Z" fill="#E3F7FC"/>
<path d="M44.618 10.2182C43.888 14.5145 38.498 16.4176 36.258 17.1445C34.488 17.7162 27.548 16.8423 25.038 13.763C23.928 12.399 24.298 7.92307 23.448 7.16347C22.598 6.40387 22.438 7.62086 21.438 9.8915C20.438 12.1621 16.858 14.4083 16.858 14.4083H16.908C13.148 16.1888 11.298 15.2659 7.81804 15.4537C3.54804 15.6824 2.01802 9.14823 2.01802 9.14823H2.00805C1.62805 10.3244 1.33802 11.5822 1.10802 12.8809C1.01802 13.3791 0.94804 13.8692 0.87804 14.3756C-0.10196 22.0043 3.46804 23.7359 3.46804 23.7359C3.46804 23.7359 8.74802 24.5363 13.798 22.8292C18.858 21.114 23.898 21.114 27.088 22.8292C30.298 24.5363 33.248 25.2387 37.548 25.4348C40.768 25.5818 43.308 20.3381 44.428 16.2542C44.428 16.2542 44.428 16.246 44.438 16.246C44.818 14.882 45.028 13.6405 45.058 12.7747C45.088 12.056 44.938 11.1657 44.628 10.21L44.618 10.2182Z" fill="#CBEDFA"/>
<path d="M44.418 16.2639C43.918 18.0935 43.138 20.1518 42.138 21.8425C40.898 23.958 39.318 25.518 37.538 25.4445C33.238 25.2485 30.288 24.5379 27.078 22.839C23.878 21.1238 18.838 21.1238 13.788 22.839C8.74801 24.5461 3.458 23.7456 3.458 23.7456C3.458 23.7456 1.00801 22.5531 0.718007 17.8076C0.668007 16.8275 0.688001 15.6922 0.868001 14.3853C0.938001 13.8789 0.998012 13.3807 1.09801 12.8906C1.09801 12.8906 2.04799 17.6034 5.79799 17.8158C18.598 18.5182 17.878 14.1893 22.598 15.4716C27.318 16.7458 28.138 21.1728 39.218 19.7679C41.268 19.5065 42.908 17.6769 44.408 16.2802L44.418 16.2639Z" fill="#9FDAED"/>
<path d="M42.138 21.8415C40.898 23.957 39.318 25.517 37.538 25.4435C33.238 25.2475 30.288 24.5369 27.078 22.838C23.878 21.1228 18.838 21.1228 13.788 22.838C8.74802 24.5451 3.45801 23.7446 3.45801 23.7446C3.45801 23.7446 1.00802 22.5521 0.718018 17.8066C0.718018 17.8066 0.918004 20.8532 5.798 20.9757C10.688 21.1064 18.258 18.4029 22.558 19.7505C26.848 21.1064 36.918 24.7737 41.878 21.9722C41.958 21.9313 42.058 21.8742 42.138 21.8415Z" fill="#A5DFF2"/>
<path d="M9.08802 2.72848C9.89802 2.49978 10.788 2.66315 11.628 2.81833C12.888 3.06337 14.158 3.30839 15.418 3.54525C15.828 3.62693 16.258 3.70862 16.618 3.88831C17.578 4.37021 17.848 5.49736 17.388 6.33864C16.928 7.17992 15.888 7.73532 14.798 7.96402C13.708 8.19272 12.558 8.12737 11.438 8.01302C10.278 7.89867 9.07801 7.71899 8.10801 7.17992C5.84801 5.93025 6.60802 3.42275 9.08802 2.72032V2.72848Z" fill="#F0FCFF"/>
<path d="M32.018 3.57939C33.228 3.26901 34.508 3.05665 35.758 3.2445C37.008 3.43236 38.208 4.09395 38.588 5.08225C39.098 6.3891 37.998 7.82662 36.498 8.44737C35.008 9.06812 33.238 9.04362 31.578 8.88844C30.678 8.80676 29.748 8.68425 29.018 8.25953C27.938 7.63878 27.428 6.1849 28.108 5.21294C28.778 4.24914 30.798 3.88159 32.008 3.57121L32.018 3.57939Z" fill="#F0FCFF"/>
<path d="M10.288 3.78298C10.818 3.74214 11.388 3.84015 11.918 3.92999C12.718 4.06885 13.528 4.20771 14.328 4.34656C14.588 4.39556 14.858 4.4364 15.088 4.51807C15.688 4.72227 15.828 5.11434 15.498 5.3757C15.178 5.63707 14.488 5.77592 13.778 5.80042C13.068 5.82492 12.328 5.7514 11.618 5.66156C10.878 5.57171 10.118 5.45736 9.50799 5.22867C8.09799 4.70593 8.67796 3.9055 10.298 3.78298H10.288Z" fill="white"/>
<path d="M32.198 4.33745C33.108 4.14959 34.088 3.98624 35.058 3.96174C36.028 3.93723 36.978 4.07608 37.318 4.38645C37.768 4.78667 36.988 5.35026 35.878 5.6688C34.758 5.97917 33.408 6.1017 32.118 6.16705C31.428 6.19972 30.708 6.22421 30.128 6.13437C29.268 5.99552 28.818 5.54629 29.288 5.17058C29.758 4.80303 31.288 4.53348 32.208 4.34562L32.198 4.33745Z" fill="white"/>
</svg>
