<svg width="18" height="45" viewBox="0 0 18 45" fill="none" xmlns="http://www.w3.org/2000/svg">
<path d="M17.6066 0.645261C17.6066 0.645261 16.8066 15.4453 15.8466 18.6634C14.8866 21.8815 11.5266 28.2278 12.1966 33.7982C12.8666 39.3687 13.7366 43.9181 11.0466 44.0733C8.3566 44.2285 2.11659 33.4879 0.866589 25.5651C-0.383411 17.6424 0.08659 0 0.08659 0C0.08659 0 4.86435 3.32032 8.37854 3.54102C12.1482 3.77775 17.6066 0.645261 17.6066 0.645261Z" fill="#DC6F2F"/>
<path d="M9.80657 41.999C8.52657 40.684 7.57657 39.1729 6.67657 37.6701C5.78657 36.1509 4.99657 34.599 4.30657 33.0145C2.89657 29.8617 1.95658 26.5129 1.63658 23.1478C1.26658 19.7908 1.08658 16.4339 1.01658 13.0769C0.936581 9.71997 0.91657 6.36301 0.92657 3.01422V1.96875L2.02658 2.52415C3.07658 3.05506 4.19658 3.55329 5.32658 3.95351C6.44658 4.35373 7.65658 4.69679 8.73658 4.72946C9.82658 4.72946 11.0466 4.43543 12.1966 4.07605C13.3566 3.71667 14.5066 3.25925 15.5866 2.77735L16.7166 2.27095L16.6566 3.30828L16.0766 13.0932C15.9466 14.735 15.8666 16.3604 15.5366 18.0266C15.4566 18.4676 15.2966 18.8679 15.1366 19.2599L14.6866 20.4442C14.3966 21.2365 14.0666 22.0125 13.7466 22.7802C12.4466 25.8513 11.2966 28.9796 11.2466 32.214C11.2166 33.8149 11.5466 35.4566 11.5766 37.0902C11.6466 38.7237 11.6666 40.3654 11.4966 41.999C11.5366 40.3654 11.3766 38.7319 11.2266 37.1147C11.0966 35.4811 10.6866 33.8966 10.6066 32.2222C10.4566 28.8897 11.5866 25.639 12.7566 22.527C13.0566 21.7429 13.3466 20.967 13.6066 20.191L14.0066 19.0231C14.1466 18.631 14.2766 18.2471 14.3366 17.8796C14.5766 16.3114 14.6666 14.6696 14.7666 13.0442L15.2266 3.2511L16.2866 3.782C15.1166 4.32107 13.9566 4.78663 12.7166 5.18685C11.4766 5.57074 10.1966 5.93829 8.70658 5.95463C7.20658 5.90562 5.94657 5.48088 4.72657 5.04799C3.50657 4.59876 2.37658 4.0842 1.23658 3.49612L2.33657 3.01422C2.28657 6.36301 2.26657 9.70363 2.30657 13.0524C2.36657 16.393 2.40658 19.7418 2.65658 23.0661C2.78658 24.7323 2.98658 26.374 3.38658 27.9994C3.77658 29.6248 4.30657 31.2339 4.89657 32.8348C5.49657 34.4275 6.18657 36.0038 6.97657 37.5394C7.79657 39.0668 8.61657 40.6105 9.78657 41.9908L9.80657 41.999Z" fill="#D25F2A"/>
<path d="M13.8366 5.85425C13.4566 11.1878 12.9766 16.4478 12.5066 17.9915C12.2966 18.6695 11.9566 19.5761 11.5466 20.6216C10.1266 24.2726 9.22658 29.3121 9.80658 34.1147C9.97658 35.5523 11.3866 39.53 9.90659 40.1834C8.70659 40.7143 4.93659 29.5326 4.26659 25.2037C3.46659 20.1152 3.39657 11.3021 3.42657 5.47852C5.45657 6.56483 7.61658 6.73636 8.83658 6.73636C10.3066 6.73636 12.0466 6.58933 13.8366 5.8624V5.85425Z" fill="#E28348"/>
<path d="M5.73656 24.5353C5.14656 20.7945 4.91655 16.4655 4.94655 7.69336C7.79655 8.87769 9.42655 8.95118 12.1066 8.1099C10.5966 18.9404 10.7066 17.9766 9.85655 20.8108C7.32655 29.2808 10.2766 36.5909 9.15655 37.032C8.04655 37.4649 6.25655 27.9249 5.72655 24.5353H5.73656Z" fill="#F5AA72"/>
<path d="M6.97655 10.9202C6.97655 10.9202 8.95655 11.108 9.97655 10.9202C10.9966 10.7323 7.88656 22.7062 7.65656 25.3934C7.42656 28.0725 6.86656 24.0049 6.63656 20.7705C6.40656 17.536 5.72655 11.6144 6.97655 10.9283V10.9202Z" fill="#F7BE94"/>
</svg>
