<svg width="41" height="45" viewBox="0 0 41 45" fill="none" xmlns="http://www.w3.org/2000/svg">
<path d="M36.4365 3.45776C36.4365 3.45776 35.3864 6.0306 34.7764 8.98733C34.1764 11.9522 33.5165 17.1388 35.6065 20.4304C37.6965 23.722 42.6364 39.4205 39.7164 41.3644C36.7964 43.3083 27.2165 29.8968 25.5065 24.5469C23.7965 19.1971 20.2665 13.1039 17.4465 13.6021C14.6265 14.0922 7.56644 21.337 9.98644 28.9167C12.4064 36.4882 19.1564 42.2547 16.9364 44.0597C14.7164 45.8648 3.73647 39.3714 1.01647 29.6518C-1.70353 19.9403 1.89644 0.239658 1.89644 0.239658C1.89644 0.239658 8.24777 -0.299158 12.2584 0.239037C17.113 0.890479 19.4002 3.26407 24.2584 3.88747C28.9824 4.49364 36.4465 3.45776 36.4465 3.45776H36.4365Z" fill="#DC6F2F"/>
<path d="M38.3365 39.2165C36.5765 39.486 30.0565 28.6801 28.5665 24.0326C27.9065 21.958 24.2765 10.3107 17.6565 10.2862C17.3865 10.2862 17.1165 10.3026 16.8465 10.3516C14.4665 10.7681 11.2465 13.684 9.68646 15.7505C6.64646 19.7853 5.90646 25.4211 7.21646 29.5132C8.41646 33.2458 11.1065 36.3741 12.8165 38.9714C13.5165 40.0332 15.3565 41.9445 14.8265 42.2794C13.2465 42.6469 5.67646 36.8152 3.71646 29.8725C1.73646 22.8074 4.17645 9.44496 5.55645 3.76836C6.09645 2.63304 15.5364 4.61779 18.7064 6.25134C22.9164 8.42397 29.7265 6.66791 31.6165 7.05179C31.9065 7.81956 31.3765 8.62818 31.2565 9.24893C30.4865 13.0306 30.9865 18.258 33.2665 21.8355C35.1765 24.8412 40.0565 39.094 38.3565 39.2247L38.3365 39.2165Z" fill="#E28348"/>
<path d="M17.5264 7.81364C17.3264 8.58141 13.9064 10.6315 13.3164 10.9909C13.2064 11.0808 10.3964 12.943 8.60645 15.2953C5.64645 19.224 5.22644 25.0967 6.66644 29.6298C7.88644 33.4278 10.5864 36.5887 12.3164 39.1942C12.7764 39.8967 13.9964 41.228 13.4864 41.228C12.0564 40.7706 6.53644 35.4125 4.78644 29.2132C2.95644 22.6953 4.36643 11.9955 6.68643 5.46132C6.85643 4.98759 7.36644 4.66088 7.97644 4.64454C9.97644 4.59554 13.9864 5.46949 16.6864 6.5313C16.6864 6.5313 17.7764 6.99687 17.5464 7.82182L17.5264 7.81364Z" fill="#F5AA72"/>
<path d="M37.7365 37.7966C36.8765 37.9273 31.2465 28.273 29.6865 23.3968C28.3565 19.2068 25.1965 12.1988 20.5165 10.0262C19.3765 9.0869 21.9165 8.33546 23.4965 8.08226C25.9965 8.09859 28.6465 7.88622 30.0165 7.94339C30.4665 7.95973 30.7965 8.31096 30.6765 8.67034C30.4965 9.22575 30.2265 9.91182 30.1765 10.2059C29.3765 14.1591 30.2665 18.2103 32.5265 21.7551C34.4965 24.867 38.4465 37.4209 37.7265 37.7966H37.7365Z" fill="#F5AA72"/>
<path d="M37.7364 40.6871C36.3864 39.7397 35.2564 38.5962 34.2164 37.42C33.1764 36.2357 32.2164 35.0105 31.3164 33.7445C29.5564 31.2125 28.0164 28.5662 26.8464 25.781C25.7764 22.9794 24.8764 20.2105 23.4864 17.5887C22.7864 16.29 22.0064 15.0159 20.9664 13.954C19.9564 12.8841 18.5664 12.1081 17.1564 12.3776C15.7364 12.639 14.3864 13.611 13.3164 14.6483C12.2264 15.7101 11.3364 16.9189 10.6364 18.2013C9.20642 20.7578 8.5464 23.6002 8.7464 26.4017C8.9364 29.2196 10.2464 31.9313 11.8464 34.4796C12.6364 35.7701 13.5164 37.028 14.3764 38.294C15.2264 39.56 16.1364 40.8423 16.5464 42.2635C15.9764 40.8832 14.9664 39.6825 14.0264 38.4574C13.0664 37.2404 12.0864 36.0233 11.1864 34.7655C9.4364 32.2417 7.92642 29.4728 7.57642 26.4752C7.18642 23.494 7.88641 20.4637 9.31641 17.7194C10.0464 16.3472 10.9864 15.0404 12.1664 13.8724C12.7564 13.2843 13.4164 12.737 14.1764 12.2551C14.9264 11.7814 15.7964 11.3567 16.8464 11.177C17.8864 11.0055 19.0464 11.177 19.9264 11.6099C20.8264 12.0264 21.5164 12.6064 22.0964 13.2108C23.2564 14.4359 24.0664 15.7754 24.7564 17.1476C26.1364 19.8757 27.0164 22.7426 27.8964 25.5114C28.8964 28.2476 30.3164 30.9022 31.9164 33.475C33.5364 36.0315 35.2864 38.5799 37.7264 40.6953L37.7364 40.6871Z" fill="#D25F2A"/>
<path d="M14.4064 43.6024C13.3364 43.243 12.3764 42.6958 11.4864 42.0995C10.5964 41.5033 9.7564 40.8417 8.9764 40.1393C7.4164 38.7426 6.02639 37.2152 4.86639 35.5653C3.69639 33.9236 2.74639 32.1675 2.11639 30.3298C1.48639 28.4839 1.22639 26.5726 1.08639 24.6777C0.656389 17.0898 1.99641 9.57548 3.10641 2.13464L3.16641 1.71808L3.64639 1.64457C6.34639 1.22802 8.95641 1.35869 11.5464 1.75891C12.9364 1.99577 14.0964 2.44501 15.2764 2.83706C16.4564 3.24545 17.6164 3.64566 18.7864 4.02955C21.1364 4.77281 23.4964 5.48343 25.9264 5.58144C28.3764 5.70396 30.9164 5.48341 33.3164 5.05052L34.2964 4.879L34.1264 5.67128C33.5364 8.44832 33.4164 11.3234 33.5964 14.1576C33.7064 15.5788 33.9064 16.9918 34.2764 18.364C34.4664 19.0501 34.6864 19.7362 34.9864 20.3814C35.1164 20.7163 35.3164 21.0185 35.4864 21.3371C35.6664 21.6801 35.8764 22.015 36.0264 22.358C37.2864 25.0942 38.1364 27.8958 38.8664 30.7218C39.2264 32.1349 39.5464 33.5561 39.7964 34.9854C40.0364 36.4148 40.2264 37.8605 40.0764 39.298C40.1264 37.8523 39.8064 36.4311 39.5064 35.0181C39.1864 33.605 38.7964 32.2002 38.3564 30.8117C37.9264 29.4232 37.4464 28.0346 36.9264 26.6706C36.4164 25.2984 35.8664 23.9344 35.2064 22.6276C35.0464 22.2927 34.8564 21.9905 34.6664 21.6801C34.4764 21.3371 34.2464 21.0104 34.0964 20.6591C33.7464 19.973 33.4964 19.2624 33.2764 18.5518C32.8464 17.1225 32.5864 15.6768 32.4364 14.2229C32.1364 11.3152 32.2364 8.38297 32.8264 5.48341L33.6364 6.09599C31.0664 6.56972 28.4964 6.81476 25.8464 6.70857C23.1564 6.61873 20.6464 5.8673 18.2564 5.1322C17.0564 4.75648 15.8764 4.34809 14.6964 3.95604C13.5264 3.58032 12.3464 3.13927 11.2364 2.94325C8.84638 2.54302 6.2764 2.42868 3.9464 2.77173L4.48638 2.28166C3.87638 6.0225 3.2464 9.73067 2.7864 13.4633C2.3564 17.1878 1.96641 20.9287 2.07641 24.6532C2.15641 26.5154 2.34639 28.3695 2.89639 30.1583C3.45639 31.947 4.3164 33.6786 5.3764 35.3284C6.4364 36.9783 7.7264 38.5302 9.1964 39.9596C9.9264 40.6783 10.7264 41.3481 11.5664 41.9852C12.4064 42.6141 13.3164 43.2022 14.3664 43.6106L14.4064 43.6024Z" fill="#D25F2A"/>
<path d="M5.47641 28.1586C5.86641 29.1469 6.26639 30.1352 6.70639 31.1153C7.13639 32.0954 7.52641 33.0756 8.00641 34.0394C8.98641 35.9506 10.1864 37.8047 11.8564 39.3892L11.8164 39.4138C10.9364 38.6541 10.1564 37.821 9.45639 36.9389C8.78639 36.0486 8.17641 35.1175 7.63641 34.1619C7.10641 33.2063 6.59641 32.2425 6.22641 31.2297C5.87641 30.2169 5.54639 29.204 5.42639 28.1504H5.47641V28.1586Z" fill="#F7BE94"/>
<path d="M30.7964 21.3867C31.5664 22.5057 32.1764 23.6819 32.7564 24.858C33.3264 26.0423 33.7364 27.2675 34.1964 28.4845C35.1364 30.9022 36.0464 33.3362 36.9364 35.762L36.8364 35.7865C35.6764 33.426 34.5464 31.0655 33.4364 28.6969C32.8764 27.5126 32.2564 26.3446 31.8064 25.1357C31.3564 23.9187 30.9564 22.6936 30.6964 21.4194L30.7864 21.3949L30.7964 21.3867Z" fill="#F7BE94"/>
<path d="M11.7264 9.66751C7.66645 11.056 6.00644 19.8609 5.40644 19.6322C4.81644 19.3871 7.10645 7.21718 8.97645 6.18804C8.97645 6.18804 11.6264 5.91032 14.9864 6.99664C17.5264 7.82158 12.8864 9.26729 11.7264 9.66751Z" fill="#F7BE94"/>
<path d="M29.4565 18.8389C28.5465 18.8389 26.9765 14.559 25.8365 12.8928C25.2165 11.9698 24.5565 10.9489 23.4265 10.3281C21.4965 9.60119 22.5265 8.66188 24.9465 8.90692C26.8665 9.10294 29.0465 8.82524 29.3465 9.67469C29.6765 10.6548 28.9165 12.6396 29.0165 14.3303C29.1665 16.6581 30.0565 18.6674 29.4465 18.8471L29.4565 18.8389Z" fill="#F7BE94"/>
</svg>
