<svg width="15" height="49" viewBox="0 0 15 49" fill="none" xmlns="http://www.w3.org/2000/svg">
<path d="M14.5286 1.19249C14.5286 1.19249 14.0786 13.2318 12.6486 21.4649C11.2186 29.698 11.5286 39.1808 11.4286 44.7512C11.3286 50.3216 7.35863 49.4885 4.39863 43.5832C1.43863 37.6779 1.03863 34.8519 0.428632 27.5335C-0.181368 20.2152 0.0386324 0 0.0386324 0C0.0386324 0 1.1106 6.0625 6.6106 6.5625C12.1106 7.0625 14.5286 1.19249 14.5286 1.19249Z" fill="#DC6F2F"/>
<path d="M7.46874 46.5954C5.22874 43.704 3.59875 40.4778 2.63875 37.1208C1.68875 33.7557 1.31875 30.3252 1.05875 26.8948C0.828749 23.4643 0.788746 20.042 0.798746 16.6197L0.858744 6.36101V4.57227L2.17874 6.03428C2.70874 6.63053 3.48875 7.21044 4.29875 7.59433C5.11875 7.99455 6.03874 8.19876 6.96874 8.22326C7.90874 8.22326 8.85875 8.05173 9.72875 7.70869C10.5887 7.38198 11.4387 6.8674 12.0487 6.32016L13.3987 5.11134L13.3087 6.71222C13.1287 9.98749 12.8287 13.2628 12.3787 16.5299C12.1487 18.1634 11.9087 19.7888 11.5887 21.406C11.2987 22.9906 11.1487 24.6241 10.9987 26.2414C10.7387 29.4921 10.6487 32.7592 10.5287 36.0263C10.4087 39.2934 10.3687 42.5606 10.2987 45.8358C10.0687 42.5687 9.96875 39.3016 9.87875 36.0263C9.79875 32.7511 9.82875 29.4839 9.95875 26.2005C10.0487 24.5588 10.1387 22.9171 10.3787 21.2672C10.6187 19.65 10.8787 18.0328 11.0687 16.4155C11.4787 13.1729 11.7287 9.92215 11.8687 6.66321L13.1287 7.06343C12.3087 7.80669 11.4087 8.35394 10.3487 8.77866C9.30875 9.20339 8.12875 9.43208 6.93875 9.44025C5.72875 9.44025 4.53875 9.12988 3.52875 8.63165C2.50875 8.12525 1.67875 7.50448 0.95875 6.69587L2.27875 6.36916L2.09875 16.6279L2.06874 21.7491C2.05874 23.4561 2.05874 25.1632 2.10874 26.8621C2.22874 30.2599 2.52875 33.674 3.26875 37.0065C3.99875 40.3553 5.46875 43.5734 7.44875 46.5954H7.46874Z" fill="#D25F2A"/>
<path d="M9.24866 21.0705C8.69866 27.1964 8.78866 31.6723 8.71866 36.573C8.69866 38.6558 9.23866 42.127 9.47866 44.1935C9.57866 45.0838 9.43866 48.5061 7.02866 44.0057C4.04866 38.4516 3.75866 35.4458 3.18866 28.544C2.85866 24.5092 3.18866 15.7125 3.18866 9.30078C4.27866 10.2074 5.83866 10.2646 7.45866 10.2646C8.65866 10.2646 9.68866 9.97871 10.5787 9.45597C10.2787 13.1723 9.56866 17.4849 9.23866 21.0705H9.24866Z" fill="#E28348"/>
<path d="M7.96865 44.5051C5.22865 38.951 4.50865 35.594 3.95865 28.9536C3.64865 25.1883 4.05865 15.9016 3.95865 10.7559C5.71865 11.2051 7.87865 11.5808 9.81865 10.7559C9.65865 12.2669 9.48865 13.974 9.28865 15.5177C9.05865 17.3309 8.83865 19.2994 8.68865 20.9737C8.12865 27.1486 8.19865 30.8486 8.13865 36.1168C8.11865 37.7667 8.38865 42.2916 8.63865 44.2682C8.70865 44.7746 8.47865 45.5669 7.95865 44.5051H7.96865Z" fill="#F5AA72"/>
<path d="M7.09866 39.8007C6.15866 36.4846 5.80866 33.4952 5.50866 28.8804C5.36866 26.6915 5.41866 22.5178 5.46866 18.4829C5.49866 16.1224 5.58866 15.2566 5.57866 13.3535C6.09866 13.4679 6.65866 13.5577 7.23866 13.5577C7.58866 13.5577 7.92866 13.525 8.25866 13.4679C7.98866 15.9182 7.59866 18.491 7.42866 20.9005C7.05866 26.1279 7.03866 29.6319 7.01866 33.6994L6.99866 36.1089C6.99866 36.8849 7.03866 38.306 7.09866 39.8089V39.8007Z" fill="#F7BE94"/>
</svg>
