<svg width="19" height="50" viewBox="0 0 19 50" fill="none" xmlns="http://www.w3.org/2000/svg">
<path d="M0.156391 0C0.156391 0 4.77152 6.61776 9.3783 6.88867C13.6096 7.13751 18.8964 2.17263 18.8964 2.17263C18.8964 2.17263 15.9764 16.6786 16.6064 26.5943C17.2364 36.5181 19.3264 48.9168 16.1864 49.17C13.0464 49.4232 -1.72361 30.572 0.166385 0H0.156391Z" fill="#DC6F2F"/>
<path d="M14.9864 47.2423C12.0564 44.4652 9.90642 41.19 8.09642 37.833C6.30642 34.4597 4.98642 30.9313 3.96642 27.3538C3.42642 25.565 3.06642 23.7518 2.66642 21.9467C2.39642 20.1253 2.05642 18.3039 1.91642 16.4662C1.49642 12.807 1.48642 9.12333 1.53642 5.456L1.55642 4.04297L2.79643 5.07212C3.66643 5.79088 4.68642 6.47698 5.74642 7.04055C6.81642 7.60413 7.94642 8.07786 9.12642 8.33922C10.2964 8.60876 11.5564 8.64144 12.7164 8.42091C13.8664 8.21671 15.0064 7.67762 15.7264 7.0242L17.3164 5.57034L16.9764 7.45712C16.3864 10.7161 16.1264 14.024 16.0164 17.3319C15.9264 20.6481 15.9564 23.9478 16.1064 27.2885C16.1264 28.9629 16.0664 30.6291 16.1064 32.279C16.1564 33.9207 16.3364 35.5869 16.4464 37.2449C16.5664 38.903 16.6964 40.5692 16.7664 42.2355C16.8364 43.9017 16.9064 45.5761 16.6564 47.2342C16.7764 45.5679 16.5764 43.9099 16.4264 42.2518C16.2564 40.5937 16.0464 38.9439 15.8264 37.2858C15.6164 35.6277 15.3664 33.986 15.2664 32.2953C15.1664 30.6209 15.1764 28.9547 15.0964 27.3048C14.8664 24.005 14.6364 20.6399 14.7264 17.3074C14.7964 13.9668 15.0164 10.618 15.5864 7.28557L16.8364 7.72664C15.7864 8.69861 14.4864 9.26217 13.0564 9.55621C11.6264 9.83392 10.1464 9.80126 8.74642 9.49088C7.34642 9.19684 6.08642 8.66594 4.92642 8.03702C3.76642 7.39993 2.72642 6.6975 1.73642 5.86439L2.98642 5.4805C2.89642 9.11516 2.86642 12.7498 3.23642 16.3681C3.55642 19.9865 4.11643 23.5966 5.00643 27.1578C5.87643 30.7189 7.10642 34.2229 8.70642 37.6125C10.2964 41.0021 12.2864 44.3019 14.9764 47.226L14.9864 47.2423Z" fill="#D25F2A"/>
<path d="M14.9364 44.7431C11.8264 45.568 3.98642 25.9409 3.45642 7.85742C5.20642 9.14793 7.23642 9.90752 8.70642 10.3241C10.4664 10.8223 12.4164 10.855 14.0964 10.2016H14.1264C13.4564 15.1757 12.8464 21.5139 13.1764 26.7331C13.3264 29.0446 13.5564 31.4868 13.7664 33.8473C14.0264 36.7632 16.2364 44.3919 14.9364 44.7349V44.7431Z" fill="#E28348"/>
<path d="M13.9564 42.5134C11.7164 43.3139 5.45639 24.4381 4.67639 9.78516C6.00639 10.4712 7.31639 10.9286 8.32639 11.2145C9.31639 11.4922 10.3264 11.6393 11.3164 11.6393C11.8264 11.6393 12.3164 11.6066 12.7964 11.5249C12.0264 17.6181 11.7764 22.7474 12.0264 26.7905C12.1864 29.2326 12.3664 32.1322 13.0664 34.6887C13.5464 36.943 14.4164 42.2929 13.9564 42.5134Z" fill="#F5AA72"/>
<path d="M7.29642 14.3254C7.29642 14.3254 8.52642 14.2028 10.4464 14.8644C10.4464 14.8644 10.5664 29.4112 11.6464 33.1194C12.7364 36.8357 13.3564 40.3397 12.7364 40.3397C11.9564 40.3397 6.71642 21.9867 7.29642 14.3172V14.3254Z" fill="#F7BE94"/>
</svg>
