<svg width="41" height="54" viewBox="0 0 41 54" fill="none" xmlns="http://www.w3.org/2000/svg">
<path d="M36.2 4.25618C36.2 4.25618 35.23 9.4999 32.61 13.7716C29.99 18.0434 33.02 32.9822 34.4 34.7465C35.78 36.5107 42.04 42.2608 39.54 43.7473C37.04 45.2339 27.61 39.7533 25.22 33.0721C22.83 26.3908 19.31 14.6946 16.58 15.8136C13.85 16.9244 6.23999 22.4948 9.98999 33.6356C13.74 44.7765 20.9 52.5685 18.63 53.3118C16.36 54.0551 4.08999 45.0542 1.92999 36.4209C-0.230008 27.7875 2.39 6.9107 0 3.23521C0 3.23521 0.563824 2.77344 7.04199 2.5C9.80607 2.38333 13.9584 -0.00785139 17.042 0C22.2991 0.0133856 23.647 2.3785 28.042 3.23521C31.1938 3.84959 36.2 4.26435 36.2 4.26435V4.25618Z" fill="#DC6F2F"/>
<path d="M7.38998 34.2073C9.31998 39.9329 12.8 44.7192 14.82 48.2395C14.89 48.3457 16.44 50.7715 15.51 50.208C11.91 48.215 5.77999 40.7905 4.57999 35.9715C3.56999 31.9612 4.06996 25.1247 4.14996 18.7375C4.19996 14.0247 5.16996 9.98168 5.08996 7.2128C5.07996 6.86159 5.39999 6.55938 5.82999 6.55121C7.26999 6.47771 8.26999 6.24086 10.33 5.5466C12.02 4.97485 13.57 5.06469 15.06 5.28522C15.06 5.28522 17.61 8.79737 15.69 11.6724C12.05 13.159 3.22998 21.8821 7.38998 34.2155V34.2073Z" fill="#E28348"/>
<path d="M15.1501 49.5729C11.5101 47.1225 6.06007 40.2779 4.97007 35.9082C4.19007 32.8208 4.32008 28.0508 4.45008 23.0031C4.60008 17.1468 4.58007 17.6369 5.22007 12.385C5.85007 7.28015 5.90006 7.468 6.15006 7.24747C6.43006 7.00244 12.1401 5.33622 14.5401 5.98147C14.9501 6.61856 15.4701 9.0934 13.9801 11.4457C9.74008 13.2753 2.93006 22.2272 6.99006 34.291C9.15006 40.7108 13.5401 46.4773 15.1301 49.5647L15.1501 49.5729Z" fill="#F5AA72"/>
<path d="M38.2501 42.3362C36.7001 42.8099 29.1401 37.3702 27.6101 33.0903C27.2701 32.151 26.5901 30.7216 26.2501 29.6353C23.4901 20.3404 21.9201 14.2636 19.4201 12.1808C19.4201 12.1808 18.3501 6.5532 20.5001 5.54857C21.6701 5.33621 22.7901 5.09934 23.6301 5.54857C26.1201 6.87991 27.9001 7.54149 30.7301 7.88454C31.2401 7.94171 31.58 8.3501 31.43 8.75032C30.94 10.0898 30.3201 11.6499 29.5401 12.9322C26.4801 17.9227 31.2101 32.4777 32.5901 35.0996C33.5101 36.8475 39.5301 41.9605 38.2501 42.3362Z" fill="#E28348"/>
<path d="M38.02 42.0337C36.38 42.0092 29.47 37.1086 28 32.992C27.86 32.6082 27.66 32.1426 27.46 31.6443C26.56 29.5126 26.68 29.6759 25.8 26.6947C23.56 19.0741 23.02 13.9366 20.75 11.9519C19.99 9.86908 19.97 6.96952 21.33 6.33243C24.74 5.89137 26.59 7.76178 30.67 8.21101C30.96 8.24368 31.12 8.45606 31.04 8.66025C30.63 9.7874 29.99 11.4455 29.18 12.7931C26.04 17.9143 30.74 32.4121 32.22 35.2382C33.01 36.7411 37.8 41.0373 38.02 42.0419V42.0337Z" fill="#F5AA72"/>
<path d="M35.7699 42.2456C34.0999 41.5105 32.6299 40.4977 31.2799 39.4032C29.9399 38.3006 28.7299 37.0836 27.7499 35.7359C27.2499 35.0661 26.8499 34.3474 26.4899 33.6204C26.1599 32.8772 25.8899 32.1339 25.6299 31.3906C25.0899 29.9041 24.5799 28.4094 24.0899 26.9147C23.0599 23.9416 22.2399 20.9032 20.9399 18.0445C20.6099 17.3339 20.2399 16.6396 19.7799 16.0026C19.3299 15.3736 18.76 14.7774 18.05 14.4834C17.35 14.173 16.4899 14.1975 15.7599 14.5079C14.9899 14.8346 14.2899 15.3246 13.6299 15.831C11.0499 17.9465 9.41992 20.8215 8.76992 23.7946C8.38992 25.2812 8.34993 26.8085 8.36993 28.3277C8.47993 29.8469 8.67995 31.3661 9.07995 32.869C9.81995 35.8747 11.14 38.7825 12.55 41.6412C13.94 44.5081 15.56 47.3096 17.11 50.1275C13.64 44.6388 10.1199 39.0928 8.31994 32.9997C7.41994 29.9613 7.17993 26.7677 7.86993 23.6558C8.51993 20.5602 10.1699 17.5381 12.9299 15.243C13.6599 14.6957 14.41 14.173 15.33 13.7891C16.28 13.3889 17.5199 13.3562 18.4999 13.7891C19.4799 14.222 20.0899 14.9326 20.5899 15.6187C21.0799 16.3211 21.4599 17.048 21.7899 17.7831C23.0799 20.7399 23.92 23.762 24.83 26.7595C25.28 28.2624 25.7399 29.7571 26.2399 31.2518C26.4899 31.9951 26.7299 32.7465 27.0199 33.4653C27.3399 34.1759 27.7199 34.8783 28.1799 35.5399C29.0699 36.8876 30.1999 38.1209 31.4699 39.2562C32.7599 40.3752 34.1499 41.437 35.7699 42.2456Z" fill="#D25F2A"/>
<path d="M15.8501 51.6463C13.9601 50.2251 12.1901 48.6978 10.5201 47.0969C8.85006 45.496 7.27007 43.8298 5.87007 42.0492C4.49007 40.2768 3.25008 38.3574 2.73008 36.2256C2.22008 34.1346 2.02008 32.0192 1.91008 29.9201C1.68008 25.7055 1.77007 21.5072 1.93007 17.309C2.06007 13.1189 2.31009 8.92071 2.17009 4.77148L2.15007 4.17525H2.88008C4.20008 4.14258 5.51007 4.06905 6.78007 3.87302C8.08007 3.67699 9.22008 3.35029 10.5101 2.90923C13.1201 2.10879 15.9201 1.66772 18.7501 1.80658C20.1601 1.88009 21.5901 2.1333 22.9101 2.63153C23.5701 2.85206 24.2201 3.21962 24.7401 3.48098C25.3001 3.75052 25.8601 4.00372 26.4501 4.21608C28.8101 5.09003 31.4401 5.43307 34.1001 5.63726L34.8601 5.69444L34.6701 6.29885C34.2101 7.78538 33.7401 9.29643 33.1001 10.7748C32.7801 11.5099 32.4101 12.2368 31.9801 12.9474C31.5601 13.609 31.3001 14.2706 31.1201 15.0057C30.7601 16.4596 30.6901 17.9869 30.7101 19.498C30.7301 21.0172 30.8801 22.5364 31.0801 24.0556C31.5201 27.0858 32.1301 30.1243 33.1301 33.0647C33.4001 33.7916 33.6701 34.5348 34.1301 35.1637C34.6201 35.8172 35.1301 36.4624 35.6501 37.0995C36.6901 38.3819 37.7001 39.6805 38.6301 41.0119C37.6201 39.7132 36.5101 38.4717 35.4201 37.222C34.8701 36.5931 34.3301 35.9724 33.8001 35.3271C33.2601 34.6492 32.9601 33.9059 32.6501 33.179C31.4801 30.2304 30.7401 27.2002 30.2201 24.1373C29.9701 22.6017 29.7801 21.0662 29.7101 19.5143C29.6501 17.9624 29.6701 16.3942 30.0001 14.826C30.1601 14.0501 30.4601 13.2333 30.8901 12.5145C31.2801 11.8366 31.6101 11.1424 31.9001 10.4236C32.5001 9.0024 32.9401 7.52403 33.3901 6.02932L33.9701 6.69091C31.2701 6.50305 28.4701 6.16817 25.8901 5.22887C25.2401 5.00018 24.6201 4.73064 24.0101 4.4366C23.3801 4.12622 22.9101 3.86487 22.3201 3.66068C21.1801 3.23595 19.9201 3.02358 18.6501 2.95824C16.0901 2.84389 13.4701 3.26861 11.0401 4.02821C9.83008 4.4366 8.42009 4.83682 7.05009 5.02468C5.67009 5.22887 4.27007 5.30239 2.90007 5.31056L3.61009 4.70615C3.71009 8.94522 3.42007 13.1271 3.25007 17.3172C3.08007 21.5073 2.87007 25.6891 2.97007 29.8629C3.02007 31.9457 3.16007 34.0366 3.59007 36.0622C4.01007 38.0715 5.17008 39.9501 6.44008 41.747C9.05008 45.3245 12.3301 48.5834 15.8601 51.6218L15.8501 51.6463Z" fill="#D25F2A"/>
<path d="M5.30005 32.7715C5.74005 33.7353 6.11004 34.7236 6.51004 35.6956L7.60004 38.6359C7.99004 39.6079 8.41002 40.5717 8.90002 41.5192C9.40002 42.4503 9.92003 43.4059 10.81 44.1329L10.78 44.1655C9.83003 43.4631 9.25002 42.5156 8.68002 41.6008C8.14002 40.6697 7.67004 39.7059 7.23004 38.7421C6.79004 37.7783 6.36004 36.8064 6.04004 35.8099C5.73004 34.8134 5.43002 33.8088 5.27002 32.7797H5.32004L5.30005 32.7715Z" fill="#F7BE94"/>
<path d="M27.3701 25.1738C28.0701 27.5261 28.8101 29.8703 29.7401 32.1573C30.2201 33.3089 30.7701 34.3789 31.5601 35.408C32.2901 36.4453 33.1101 37.45 33.9501 38.4465L33.9101 38.471C32.8401 37.6133 31.9501 36.6332 31.1301 35.6122C30.2801 34.6076 29.7701 33.3988 29.3501 32.2471C28.5001 29.9193 27.8701 27.5506 27.3101 25.1738H27.3601H27.3701Z" fill="#F7BE94"/>
<path d="M5.22998 22.4957C5.22998 22.4957 5.46996 9.11692 6.95996 8.03877C8.44996 6.96879 12.7 6.24187 13.4 6.33171C14.11 6.42973 14.65 9.73768 13.4 10.3176C12.15 10.8975 7.59998 14.3361 6.75998 17.4072C5.91998 20.4783 6.38998 22.7816 5.22998 22.4876V22.4957Z" fill="#F7BE94"/>
<path d="M22.35 7.74528C22.35 7.74528 21.85 10.7592 22.99 12.6378C24.13 14.5245 25.66 23.6071 26.79 23.6071C27.92 23.6071 26.42 15.2188 27.35 13.8548C28.27 12.4907 29.15 9.83622 27.86 9.14196C26.57 8.4477 23.77 6.6998 22.35 7.7371V7.74528Z" fill="#F7BE94"/>
</svg>
