<svg width="46" height="22" viewBox="0 0 46 22" fill="none" xmlns="http://www.w3.org/2000/svg">
<path d="M44.2703 18.1599C43.3403 20.3853 38.2503 21.5273 33.5003 21.9518C28.7603 22.3764 25.4003 19.4922 22.8503 18.8114C20.3003 18.1306 18.4503 19.4922 14.9903 20.5097C11.5103 21.5199 5.72028 20.334 2.83028 18.1599C0.54028 16.4396 0.650282 11.9157 1.41028 7.97004C1.62028 6.91592 1.87028 5.91304 2.13028 4.998C3.41028 0.679021 14.6403 -0.338488 18.3403 1.19146C19.2203 1.55015 19.9903 1.8576 20.6303 2.12113C20.9503 2.25289 21.2203 2.37003 21.4903 2.47251C22.2403 2.77996 23.1103 2.88245 23.9203 2.77264C24.3803 2.71408 24.8203 2.59694 25.2203 2.41393C29.0303 0.722944 34.8703 0.0567946 40.4603 2.45785C42.4803 3.33629 43.7103 4.98337 44.4003 6.90129C45.9303 11.1251 44.9103 16.63 44.2703 18.1672V18.1599Z" fill="#E3F7FC"/>
<path d="M44.2702 18.1595C43.3402 20.3849 38.2502 21.5268 33.5002 21.9514C28.7602 22.376 25.4002 19.4918 22.8502 18.811C20.3002 18.1302 18.4502 19.4918 14.9902 20.5093C11.5102 21.5195 5.72021 20.3336 2.83021 18.1595C1.18021 16.9224 0.780209 14.2432 0.970209 11.3736C1.04021 10.2463 1.20022 9.08964 1.42022 7.96963C1.42022 7.96963 1.20022 11.5127 4.76022 13.5843C8.31022 15.656 18.5202 16.1098 20.0402 14.3456C21.5702 12.5888 21.7702 10.3634 23.0702 10.2755C24.3702 10.1804 23.2202 14.7702 27.1702 14.8947C31.1402 15.0191 39.1402 14.8946 41.2902 13.1158C43.4602 11.315 44.3202 9.48495 44.4102 6.9082C44.7202 7.76468 44.9202 8.66508 45.0502 9.58744C45.5402 13.1963 44.8002 16.9443 44.2802 18.1668L44.2702 18.1595Z" fill="#CBEDFA"/>
<path d="M23.6704 8.18231C22.7304 8.92166 20.5304 4.53679 20.6204 2.12109C20.9404 2.24554 21.2104 2.36266 21.4804 2.46515C22.2304 2.7726 23.1004 2.87509 23.9104 2.76528C23.8904 2.76528 24.6104 7.45028 23.6704 8.18231Z" fill="#CBEDFA"/>
<path d="M44.9103 15.6047C44.7303 16.754 44.4803 17.6617 44.2703 18.1595C43.3403 20.3849 38.2502 21.5268 33.5002 21.9514C28.7602 22.376 25.4003 19.4918 22.8503 18.811C20.3003 18.1302 18.4503 19.4918 14.9903 20.5093C11.5103 21.5195 5.72025 20.3336 2.83025 18.1595C2.19025 17.6763 1.73025 16.9736 1.44025 16.1244C0.960252 14.7995 0.86025 13.1231 0.97025 11.3736C1.22025 12.0251 2.68026 15.3265 6.45026 16.0732C10.6303 16.9004 19.1503 17.2225 20.6403 15.7804C22.1303 14.3383 22.0203 12.8742 22.7903 12.801C23.5903 12.7278 23.2703 16.1318 26.1603 16.4246C29.0403 16.7247 39.9603 16.8711 41.8303 14.8946C43.7003 12.9108 43.8003 12.5521 45.0503 9.58008C45.3503 11.7249 45.2003 13.921 44.9203 15.6047H44.9103Z" fill="#9FDAED"/>
<path d="M44.9102 15.6069C44.7302 16.7562 44.4802 17.6639 44.2702 18.1617C43.3402 20.3871 38.2502 21.5291 33.5002 21.9536C28.7602 22.3782 25.4002 19.494 22.8502 18.8132C20.3002 18.1324 18.4502 19.494 14.9902 20.5115C11.5102 21.5217 5.72019 20.3358 2.83018 18.1617C2.19018 17.6786 1.73019 16.9758 1.44019 16.1267C2.83019 18.1617 7.85018 19.904 12.0602 19.5379C17.1502 19.106 19.5902 17.3126 22.4002 17.6786C25.2002 18.0446 30.8902 20.2553 36.3702 19.5672C42.5202 18.7913 43.5902 17.6347 44.9202 15.5996L44.9102 15.6069Z" fill="#A5DFF2"/>
<path d="M5.3704 3.86373C6.8404 2.1215 17.4104 1.27235 18.9204 2.47288C20.4304 3.67341 19.1204 8.92938 17.8304 9.57356C15.3804 10.8107 7.12039 11.0889 5.82039 9.57356C4.52039 8.05826 3.89039 5.59864 5.36039 3.8564L5.3704 3.86373Z" fill="#F0FCFF"/>
<path d="M26.5502 3.85011C26.5502 3.85011 27.8902 1.49296 34.4202 2.1225C39.4802 2.61296 41.0802 3.57925 41.5502 4.61873C42.0202 5.65821 41.5001 9.09144 39.0901 9.5819C36.6801 10.0724 29.3401 9.98451 27.8101 8.91575C26.2801 7.84698 26.0302 4.80907 26.5502 3.85011Z" fill="#F0FCFF"/>
<path d="M7.18032 4.0039C8.25032 3.1401 15.9603 2.71552 17.0703 3.31579C18.1703 3.91605 17.2203 6.52939 16.2803 6.85148C14.4903 7.46639 8.47034 7.60547 7.52034 6.85148C6.57034 6.09749 6.11033 4.87501 7.19033 4.0039H7.18032Z" fill="white"/>
<path d="M28.0603 3.77778C28.0603 3.77778 29.0303 2.72365 33.7403 3.00183C37.4003 3.22143 38.5503 3.65333 38.8903 4.12183C39.2303 4.58301 38.8503 6.12758 37.1103 6.34719C35.3703 6.5668 30.0603 6.53022 28.9603 6.04708C27.8603 5.56394 27.6703 4.20967 28.0503 3.77778H28.0603Z" fill="white"/>
</svg>
