<svg width="23" height="20" viewBox="0 0 23 20" fill="none" xmlns="http://www.w3.org/2000/svg">
<path d="M22.0902 17.3241C22.1102 17.8366 21.7002 18.3051 21.0502 18.4881C11.0602 21.343 3.5502 19.4104 0.970195 18.532C0.360195 18.3343 -0.00980231 17.8951 0.00019769 17.412C0.0801977 11.951 0.930196 8.27625 2.1702 5.79466V5.78003C4.7102 0.736339 8.8202 0.736328 11.0502 0.736328C14.4102 0.736328 18.4802 1.86365 20.1602 3.40824C20.4602 3.68641 20.7102 4.3306 20.9302 5.20172V5.21635C21.7402 8.49585 22.0302 15.0183 22.1002 17.3315L22.0902 17.3241Z" fill="#CBEDFA"/>
<path d="M22.0902 17.3241C22.1102 17.8365 21.7002 18.305 21.0502 18.488C11.0602 21.3429 3.5502 19.4104 0.970195 18.5319C0.360195 18.3343 -0.00980231 17.8951 0.00019769 17.4119C0.0801977 11.951 0.930196 8.27618 2.1702 5.7946C2.0702 6.27774 0.720197 15.9259 2.9602 16.8409C5.2702 17.7779 17.4002 18.3636 19.1202 16.431C20.8002 14.5497 20.9902 5.72141 20.9402 5.20898C21.7502 8.48848 22.0402 15.0109 22.1102 17.3241H22.0902Z" fill="#A5DFF2"/>
<path d="M20.9002 6.82812C20.9002 6.82812 21.9702 16.0737 20.2802 17.2303C17.1402 19.3971 3.52016 18.8407 2.16016 17.6256C0.800157 16.4104 0.350155 11.3814 1.92016 7.54552C1.92016 7.54552 2.29016 15.2904 3.91016 16.3226C5.90016 17.589 17.2202 17.0326 18.8602 16.0078C21.2502 14.5145 20.8802 6.82812 20.8802 6.82812H20.9002Z" fill="#9FDAED"/>
<path d="M8.3902 1.98106C9.8602 1.54917 11.4902 1.51255 13.0302 1.7834C14.9502 2.11282 17.9202 2.80094 19.1102 4.01611C20.9302 5.88279 19.2702 13.8985 18.4402 14.1401C17.6102 14.3817 6.7502 15.1649 5.6702 14.1401C4.5902 13.1152 2.7102 7.93978 3.3602 6.51964C3.8802 5.37035 4.9702 2.99127 8.3902 1.98839V1.98106Z" fill="#E3F7FC"/>
<path d="M16.1202 3.73047C18.8702 5.5093 19.3102 9.85758 16.8302 10.8165C16.6002 10.9922 9.89019 11.7096 7.44019 10.8165C5.71019 10.1797 4.82019 6.90749 6.43019 4.99689C7.50019 3.72316 8.67019 3.24001 10.4502 2.77151C12.2302 2.30301 14.7002 2.80811 16.1302 3.73047H16.1202Z" fill="#F0FCFF"/>
<path d="M14.0103 4.17756C14.5103 4.27273 15.0103 4.42645 15.3703 4.6973C15.7303 4.96815 15.9203 5.39272 15.7303 5.7441C15.4603 6.27116 14.5703 6.43953 13.8103 6.52738C12.3003 6.71038 10.8003 6.90072 9.29026 7.08373C7.32026 7.3253 7.87026 5.68554 8.85026 5.08527C10.2603 4.22148 12.2103 3.83351 14.0103 4.17756Z" fill="white"/>
</svg>
