<svg width="39" height="20" viewBox="0 0 39 20" fill="none" xmlns="http://www.w3.org/2000/svg">
<path d="M38.4103 15.1737C36.7903 17.465 30.6503 19.9905 26.2103 19.9905C21.7703 19.9905 20.8603 18.1238 17.1303 18.1238C13.4003 18.1238 12.0903 19.5293 8.76028 19.5293C5.43028 19.5293 -0.979721 16.689 1.10028 12.4432C1.10028 12.4432 4.61027 4.88869 6.34027 2.94881C6.35027 2.94149 6.35028 2.93415 6.35028 2.93415C8.06028 1.00891 8.86028 0.196362 10.7903 0.533096C12.7003 0.86983 17.5303 2.70723 22.5803 1.9752C27.6203 1.23585 32.2603 0.211012 34.3803 1.38958C34.9203 1.68971 35.5303 2.56814 36.1503 3.75403C37.9603 7.27509 39.6103 13.4681 38.4103 15.1737Z" fill="#E3F7FC"/>
<path d="M38.4103 15.1736C36.7903 17.4649 30.6503 19.9904 26.2103 19.9904C21.7703 19.9904 20.8603 18.1237 17.1303 18.1237C13.4003 18.1237 12.0903 19.5292 8.76028 19.5292C5.43028 19.5292 -0.979721 16.6889 1.10028 12.4432C1.10028 12.4432 1.18028 12.2821 1.32028 11.9966C2.09028 10.3569 4.86027 4.60312 6.34027 2.94141C6.20027 3.29278 4.19027 7.94849 3.78027 10.8254C3.46027 13.102 5.69029 14.4636 8.27029 14.2366C10.8603 14.0024 12.2303 13.4607 17.1503 14.2732C22.0903 15.0858 25.2503 15.3054 28.8603 14.2732C32.4703 13.2338 34.8803 13.9072 36.1403 12.2675C37.4003 10.6277 37.0903 8.08026 36.1403 3.76128C37.3303 6.05985 38.4403 9.50039 38.7303 12.0845C38.8903 13.4534 38.8103 14.5807 38.4003 15.1736H38.4103Z" fill="#9FDAED"/>
<path d="M6.34022 2.94922C5.91022 5.11603 4.95022 8.90793 4.90022 10.9357C4.90022 12.5461 6.29023 13.3367 8.04023 13.1537C9.09023 13.0439 10.3402 12.7804 11.7502 12.6852C16.5602 12.3631 21.2502 14.2518 26.2202 13.6149C27.3102 13.5124 28.2302 13.2123 29.6702 12.9268C30.9902 12.6706 32.3702 12.6047 33.4302 12.5022C34.5302 12.3704 34.8802 12.2167 35.4002 11.514C36.5702 9.88153 36.1502 6.41172 36.1502 3.76909C36.9002 5.51864 37.5302 7.2682 37.8202 9.14952C37.9202 10.0865 37.9502 11.0894 37.4902 12.1289C36.4002 14.6178 33.3202 14.3689 30.5002 15.0424C29.5702 15.2693 28.2302 15.7451 26.8702 15.9501C23.4702 16.521 20.1602 16.0306 17.0102 15.5255C12.0702 14.6983 11.2202 15.1668 8.35023 15.3425C4.89023 15.5914 2.06021 13.4319 2.68021 10.7819C3.28021 8.26375 4.94023 5.10139 6.35023 2.94922H6.34022Z" fill="#CBEDFA"/>
<path d="M38.4103 15.1731C36.7903 17.4644 30.6503 19.9899 26.2103 19.9899C21.7703 19.9899 20.8603 18.1232 17.1303 18.1232C13.4003 18.1232 12.0903 19.5287 8.76028 19.5287C5.43028 19.5287 -0.979721 16.6884 1.10028 12.4426C1.10028 12.4426 1.18028 12.2816 1.32028 11.9961C1.75028 15.2829 2.74027 16.1321 5.18027 17.3253C8.27027 18.8333 13.0103 17.479 15.9203 17.1276C18.8503 16.7763 21.5403 17.4863 25.0203 18.5331C27.3703 19.2359 32.7203 18.1964 36.2203 15.993C38.5303 14.5436 38.5303 12.8453 38.7203 12.0913C38.8803 13.4528 38.8003 14.5728 38.3903 15.1731H38.4103Z" fill="#A5DFF2"/>
<path d="M8.2004 7.74468C8.0904 8.59384 8.30038 9.64063 9.37038 9.97737C10.3404 10.2775 11.4104 9.81632 12.3804 9.52351C14.3204 8.93057 16.5304 8.97449 18.6104 9.2307C20.6904 9.48691 22.7204 9.94077 24.8104 10.1384C26.9004 10.3361 29.1304 10.2409 30.9604 9.47959C32.7904 8.71828 34.1004 7.15173 33.6904 5.63643C33.4204 4.64819 32.3804 3.76244 31.0304 3.53551C29.9304 3.34518 28.7804 3.58674 27.6804 3.77707C24.2204 4.35537 20.5904 4.34806 17.1404 3.78439C14.5904 3.36714 11.7204 1.85916 9.9804 3.93081C9.0104 5.08742 8.39038 6.39775 8.21038 7.75201L8.2004 7.74468Z" fill="#F0FCFF"/>
<path d="M11.4203 6.19879C11.3303 6.43304 11.4903 6.71852 12.3003 6.80636C13.0303 6.88689 13.8303 6.76243 14.5703 6.68191C19.0703 6.18413 24.2503 7.3261 28.5603 6.66728C29.9403 6.46231 30.9303 6.03041 30.6203 5.62048C30.4203 5.34963 29.6303 5.10806 28.6203 5.04949C27.7903 4.99825 26.9303 5.06413 26.0903 5.11537C23.4903 5.2691 20.7503 5.2691 18.1503 5.11537C16.2303 4.99825 14.0703 4.58831 12.7603 5.15929C12.0303 5.47407 11.5603 5.83277 11.4203 6.19879Z" fill="white"/>
</svg>
