<svg width="20" height="17" viewBox="0 0 20 17" fill="none" xmlns="http://www.w3.org/2000/svg">
<path d="M18.4003 14.4998C17.7503 16.5861 15.6302 16.0591 13.3402 16.6227C11.0302 17.201 8.92025 16.996 7.17025 16.6227C5.42025 16.2567 3.76025 15.4441 1.64025 15.0415C0.190252 14.7634 0.0902539 13.4384 0.150254 12.6331C0.210254 12.0402 0.290249 11.4546 0.340249 10.8616C0.450249 9.69037 0.730253 7.79443 1.36025 5.94239C1.59025 5.29088 1.82025 4.70524 2.08025 4.1855C4.02025 0.188614 7.06025 -0.294518 13.9802 0.488755C17.1802 0.84745 18.6103 2.89712 19.1403 5.34943C19.9103 8.89977 18.7902 13.27 18.4102 14.5071L18.4003 14.4998Z" fill="#E3F7FC"/>
<path d="M19.3903 7.71394C19.4503 10.6347 18.6903 13.5409 18.4003 14.4999C17.7503 16.5861 15.6302 16.0591 13.3402 16.6228C11.0302 17.2011 8.92025 16.9961 7.17025 16.6228C5.42025 16.2567 3.76025 15.4442 1.64025 15.0416C0.190252 14.7634 0.0902539 13.4384 0.150254 12.6332C0.210254 12.0402 0.290249 11.4546 0.340249 10.8617C0.450249 9.69041 0.730253 7.79448 1.36025 5.94244C1.39025 5.83995 1.44025 5.70086 1.47025 5.61302C1.66025 5.08595 1.86025 4.61012 2.08025 4.18555C2.05025 4.47836 1.71025 9.47814 2.93025 10.3053C4.84025 11.5937 5.64025 10.9934 6.38025 11.3887C6.72025 11.5717 6.79025 11.806 7.32025 11.9963C9.25025 12.6918 10.6303 12.6844 12.1403 12.4648C12.4703 12.4209 13.2603 11.9963 13.5603 11.9377C14.1003 11.8353 14.9503 11.7548 15.3203 11.7035C16.7803 11.4766 18.8203 9.95396 19.1403 5.34217C19.3003 6.10348 19.3803 6.91602 19.4003 7.70661L19.3903 7.71394Z" fill="#CBEDFA"/>
<path d="M19.3903 7.7162C19.4503 10.637 18.6903 13.5432 18.4003 14.5021C17.7503 16.5884 15.6302 16.0614 13.3402 16.625C11.0302 17.2033 8.92025 16.9984 7.17025 16.625C5.42025 16.259 3.76025 15.4464 1.64025 15.0438C0.190252 14.7657 0.0902539 13.4407 0.150254 12.6354C0.210254 12.0425 0.290249 11.4569 0.340249 10.8639C0.450249 9.69267 0.730253 7.79674 1.36025 5.9447C1.39025 5.84953 1.43025 5.76167 1.46025 5.67383C1.37025 6.28141 0.68025 11.2519 2.49025 12.1596C5.46025 13.653 5.38025 12.4158 6.50025 13.3968C8.12025 14.8096 11.8503 14.1215 13.2803 13.7701C14.0703 13.5798 14.7903 13.0088 15.6803 12.9429C16.5703 12.8843 18.9303 10.5638 19.4003 7.7162H19.3903Z" fill="#A5DFF2"/>
<path d="M1.45029 5.65772C1.56029 6.91681 1.69029 11.2211 2.68029 12.0557C2.74029 12.1289 4.10029 12.7218 4.72029 12.7511C5.07029 12.7657 5.46028 12.6998 5.98028 12.8316C6.71028 13.0219 7.04029 13.4392 7.20029 13.5124C8.22029 14.2591 10.6603 13.9955 12.0603 13.7466C12.9603 13.5929 12.9003 13.5929 13.7103 13.2562C14.2703 13.0293 14.8603 13.0952 15.4503 12.7584C17.1003 11.6457 18.6503 9.39839 19.3903 7.71472C19.5303 9.69852 18.3803 12.246 16.7003 13.6881C15.7303 14.4055 15.8603 13.9516 14.7503 14.508C13.7003 15.0204 13.8303 14.9691 12.6303 15.2693C10.2203 15.7671 7.32029 15.9793 5.59029 14.6397C5.30029 14.4128 5.44029 14.3396 5.11029 14.3469C3.78029 14.3762 2.65029 13.8199 1.67029 13.3074C1.26029 13.022 0.950284 12.8682 0.620284 11.9166C0.120284 10.0938 0.720286 7.41458 1.45029 5.65039V5.65772Z" fill="#9FDAED"/>
<path d="M4.71023 4.64004C5.36023 3.37363 6.84023 2.34148 8.61023 1.93154C10.3802 1.5216 12.3902 1.73389 13.9302 2.50252C16.1602 3.61521 16.6202 7.04842 15.0502 8.4832C14.4402 9.03222 13.4102 9.20059 12.4502 9.28844C11.1002 9.4202 9.71023 9.46413 8.38023 9.25184C7.05023 9.03956 5.76023 8.54908 4.94023 7.75117C3.95023 6.79221 4.13023 5.76005 4.71023 4.64004Z" fill="#F0FCFF"/>
<path d="M13.1002 3.89988C13.3802 4.03897 13.6302 4.22929 13.7402 4.46354C13.8502 4.69778 13.8202 4.98329 13.5802 5.15897C13.3202 5.35662 12.9002 5.37858 12.5202 5.3859C11.6502 5.40054 7.36024 5.78852 8.24024 4.3391C8.96024 3.15321 11.9202 3.30692 13.1002 3.90718V3.89988Z" fill="white"/>
</svg>
