<svg width="43" height="20" viewBox="0 0 43 20" fill="none" xmlns="http://www.w3.org/2000/svg">
<path d="M42.2302 13.0572C42.1702 14.2871 42.0902 15.2387 41.9902 15.9927H41.9802C41.9202 16.4246 41.8402 16.7906 41.7602 17.098C41.3702 18.5401 40.7802 18.7305 39.8902 18.9647C39.8202 18.9794 39.7602 19.0013 39.7202 19.0087C38.1802 19.404 33.4902 19.9969 30.3402 19.9969C27.1902 19.9969 23.6902 17.0468 21.3302 17.0468C18.9702 17.0468 14.8102 19.9969 10.8502 19.9969C6.89019 19.9969 0.840198 15.5681 0.390198 13.7893C0.240198 13.211 0.180176 12.4423 0.180176 11.6737C0.180176 9.92414 0.570198 8.17458 1.3902 6.54216C1.8002 5.73692 2.32019 4.96098 2.94019 4.22163C4.37019 2.54528 6.40018 1.0007 9.12018 0.905535C15.1702 0.715207 17.5102 1.0373 19.8502 2.29639C22.2002 3.54816 26.7102 2.2305 27.7902 1.90109C28.8802 1.56435 32.5702 -0.192516 36.2702 0.854288C37.9302 1.32279 39.3402 2.7283 40.3902 4.61694C41.6702 6.95211 42.3702 10.034 42.2202 13.0499L42.2302 13.0572Z" fill="#E3F7FC"/>
<path d="M42.2502 12.304V12.3186C42.2502 12.5675 42.2402 12.8091 42.2302 13.058C42.1702 14.2878 42.0902 15.2394 41.9902 15.9934H41.9802C41.9202 16.4253 41.8402 16.7914 41.7602 17.0988C41.3702 18.5409 40.7802 18.7312 39.8902 18.9655C39.8202 18.9801 39.7602 19.0021 39.7202 19.0094C38.1802 19.4047 33.4902 19.9976 30.3402 19.9976C27.1902 19.9976 23.6902 17.0476 21.3302 17.0476C18.9702 17.0476 14.8102 19.9976 10.8502 19.9976C9.49019 19.9976 7.8802 19.4779 6.3302 18.7166C6.1402 18.6214 5.94019 18.5263 5.76019 18.4238C4.42019 17.7064 3.18018 16.8426 2.22018 16.0154C2.21018 16.0008 2.2002 16.0008 2.2002 16.0008C1.8802 15.7226 1.59018 15.4517 1.34018 15.1882C1.28018 15.1297 1.24019 15.0784 1.19019 15.0198C0.850186 14.6465 0.600184 14.3024 0.470184 14.0096C0.440184 13.9364 0.410198 13.8559 0.390198 13.79C0.240198 13.2117 0.180176 12.4431 0.180176 11.6745C0.180176 9.9249 0.570198 8.17534 1.3902 6.54292H1.40018C1.40018 6.54292 0.180189 11.6745 2.60019 12.7798C5.81019 14.2439 11.4902 13.8998 15.4102 12.7798C19.9602 11.4768 19.8102 6.00853 21.1802 6.54292C22.5402 7.0773 22.7002 10.1738 23.8102 12.7798C24.9202 15.3785 35.8102 15.2907 37.6302 13.8925C39.4602 12.4943 39.9102 9.77849 40.3902 4.625C41.5702 6.76985 42.2502 9.53694 42.2402 12.304H42.2502Z" fill="#CBEDFA"/>
<path d="M42.2501 12.3025V12.3172C42.2501 12.5661 42.2401 12.8076 42.2301 13.0565C42.1701 14.2863 42.0901 15.238 41.9901 15.992H41.9801C41.9201 16.4239 41.8401 16.7899 41.7601 17.0973C41.3701 18.5394 40.7801 18.7297 39.8901 18.964C39.8201 18.964 39.7601 19.0006 39.7201 19.0079C38.1801 19.4032 33.4901 19.9962 30.3401 19.9962C27.1901 19.9962 23.6901 17.0461 21.3301 17.0461C18.9701 17.0461 14.8101 19.9962 10.8501 19.9962C9.49013 19.9962 7.88014 19.4764 6.33014 18.7151C6.14014 18.6199 5.94013 18.5248 5.76013 18.4223C4.42013 17.7049 3.18012 16.8411 2.22012 16.0139C2.21012 15.9993 2.20013 15.9993 2.20013 15.9993C1.88013 15.7211 1.59012 15.4503 1.34012 15.1867C1.28012 15.1282 1.24012 15.0769 1.19012 15.0184C0.850125 14.645 0.600123 14.301 0.470123 14.0082C0.440123 13.935 0.410137 13.8544 0.390137 13.7886C0.390137 13.7886 5.17013 15.9993 9.23013 15.9993C12.6401 15.9993 16.4701 15.0623 18.5201 13.7519C19.5101 13.1151 20.5101 9.19141 21.0701 9.19141C22.0001 9.19141 21.9201 13.3932 22.3401 13.7519C23.9701 15.1135 27.6401 16.4751 31.4501 16.4898C36.1401 16.5044 40.4001 15.3478 42.2601 12.3172L42.2501 12.3025Z" fill="#9FDAED"/>
<path d="M41.7602 17.0974C41.3702 18.5395 40.7802 18.7298 39.8902 18.9641C39.8202 18.9787 39.7602 19.0007 39.7202 19.008C38.1802 19.4033 33.4902 19.9962 30.3402 19.9962C27.1902 19.9962 23.6902 17.0462 21.3302 17.0462C18.9702 17.0462 14.8102 19.9962 10.8502 19.9962C8.12022 19.9962 4.41021 17.9026 2.22021 16.014C2.53021 16.1677 5.76021 17.6391 8.50021 17.5879C16.6402 17.4268 19.7002 14.5353 24.3802 16.3947C27.2802 17.5513 33.7602 18.1662 35.9602 17.6025C38.1402 17.0315 40.3602 16.8998 41.7802 17.112L41.7602 17.0974Z" fill="#A5DFF2"/>
<path d="M4.21021 7.72171C4.13021 8.22682 4.15023 8.80513 4.64023 9.17114C4.98023 9.42735 5.48021 9.52251 5.96021 9.60304C10.0702 10.3204 11.2302 9.9544 13.6302 8.12432C16.7402 5.75254 17.0902 5.53295 17.4402 5.04981C17.7102 4.68379 17.8202 4.23726 17.6302 3.84196C17.3302 3.2417 16.4102 2.94887 15.5702 2.77318C13.3902 2.31932 10.8802 2.10703 8.63022 2.40716C6.96022 2.63409 6.09023 3.73948 5.39023 4.77896C4.77023 5.694 4.37022 6.69688 4.22022 7.70708L4.21021 7.72171Z" fill="#F0FCFF"/>
<path d="M25.5203 4.20762C25.5203 4.20762 29.9803 1.87243 33.6103 2.26772C37.2403 2.66302 38.0003 6.65259 37.6403 8.01417C37.2803 9.37574 37.5703 11.3522 32.9903 11.462C28.4003 11.5791 26.4803 11.6084 26.1003 9.93208C25.7303 8.25573 24.2203 4.79324 25.5203 4.20029V4.20762Z" fill="#F0FCFF"/>
<path d="M7.1702 5.94097C7.1302 6.08006 7.14019 6.2411 7.41019 6.34358C7.60019 6.41678 7.88018 6.43875 8.15018 6.46071C10.4502 6.65836 11.1002 6.55587 12.4502 6.05077C14.1902 5.38463 14.3902 5.32605 14.5802 5.19429C14.7302 5.0918 14.7902 4.96736 14.6802 4.85756C14.5102 4.68919 14.0002 4.60867 13.5202 4.55742C12.3002 4.43298 10.8902 4.37443 9.63019 4.45495C8.69019 4.52083 8.2102 4.82829 7.8202 5.1211C7.4802 5.37731 7.2502 5.65548 7.1702 5.94097Z" fill="white"/>
<path d="M27.2201 4.75628C27.2201 4.75628 30.5201 4.06817 33.2101 4.18529C35.9001 4.30242 36.4601 5.48097 36.2001 5.88359C35.9401 6.2862 36.1501 6.87184 32.7601 6.90112C29.3701 6.93772 27.9401 6.94505 27.6601 6.44727C27.3801 5.94949 26.2701 4.92464 27.2301 4.74895L27.2201 4.75628Z" fill="white"/>
</svg>
