<svg width="49" height="40" viewBox="0 0 49 40" fill="none" xmlns="http://www.w3.org/2000/svg">
<path d="M0.0100098 39.5259C0.0100098 39.5259 0.91002 36.3562 2.27002 33.6404C3.63002 30.9245 3.38001 26.9423 3.14001 23.2309C2.90001 19.5195 2.15002 14.5417 5.24002 10.1934C8.33002 5.84516 12.66 0.508659 13.65 2.22893C14.64 3.9492 9.57 9.19786 9.69 13.0923C9.81 16.9867 12.54 26.7593 13.77 27.0301C15 27.301 18.84 22.0523 21.31 18.1579C23.78 14.2635 25.14 11.6429 25.88 9.01487C26.62 6.38688 32.19 -1.12375 33.92 0.142662C35.65 1.40907 33.8 7.47759 33.92 10.4643C34.04 13.451 34.66 18.8826 34.66 18.8826C34.66 18.8826 39.85 13.3631 41.21 10.3764C42.57 7.38975 46.28 2.95365 48.01 3.0415C49.74 3.12934 47.47 10.8742 43.39 17.931C39.31 24.9878 37.46 39.9212 37.46 39.9212C37.46 39.9212 35.8006 37.3047 31.5698 36.3047C28.9154 35.6773 24.0798 38.6832 19.5698 38.8047C14.0784 38.9527 13.2745 36.0084 9.06982 36.3047C5.32133 36.5688 0 39.5186 0 39.5186L0.0100098 39.5259Z" fill="#DC6F2F"/>
<path d="M12.5299 4.53662C12.3999 5.05637 12.0499 5.48824 11.7899 5.95674L10.9699 7.34029C10.4499 8.26265 9.96987 9.20696 9.59987 10.1659C9.22987 11.1249 8.93989 12.0985 8.80989 13.0794C8.68989 14.0603 8.73987 15.0632 8.81987 16.0514C8.99987 18.0426 9.51987 20.0044 10.0399 21.9663C10.3099 22.9472 10.5099 23.9281 10.8799 24.8724C11.0599 25.3409 11.2599 25.8094 11.5599 26.2413C11.8499 26.6805 12.2199 27.1124 12.5199 27.5736L12.4399 27.6102C11.9999 27.2222 11.5299 26.8562 11.1199 26.4316C10.7199 26.0071 10.3899 25.5313 10.1399 25.0554C9.63988 24.0892 9.29986 23.1009 9.02986 22.1127C8.49986 20.1289 8.18988 18.1085 8.07988 16.0807C8.03988 15.0632 8.03986 14.053 8.21986 13.0282C8.39986 12.018 8.72987 11.0224 9.16987 10.0634C9.60987 9.10449 10.1399 8.16749 10.7199 7.25245L11.6199 5.89086C11.9099 5.44432 12.2799 4.99048 12.4299 4.5293H12.5299V4.53662Z" fill="#D25F2A"/>
<path d="M3.80705 37.7303L1.01074 39.0059C1.17452 38.6487 1.34515 38.2957 1.51032 37.9454C1.91032 37.1182 2.35031 36.3349 2.72031 35.537C3.06031 34.7318 3.40031 33.9339 3.63031 33.1067C4.60031 29.8125 4.57034 26.3207 4.31034 22.9095C4.13034 21.2258 3.60032 19.5129 3.48032 17.734C3.33032 15.9552 3.72033 14.1544 4.46033 12.4854C4.63033 12.0608 4.84034 11.6509 5.06034 11.2409C5.26034 10.831 5.51031 10.4137 5.78031 10.0258C6.32031 9.24249 6.92032 8.48848 7.54032 7.74181C8.79032 6.26311 10.0403 4.79174 11.5303 3.4082L11.6803 3.50337C10.3003 4.89423 9.12032 6.40952 7.95032 7.91019C7.38032 8.66418 6.82032 9.43282 6.33032 10.2088C6.09032 10.5967 5.87032 10.9847 5.70032 11.402C5.51032 11.8119 5.34031 12.2145 5.19031 12.6318C4.58031 14.2789 4.34033 15.9845 4.55033 17.6681C4.74033 19.3518 5.36031 21.0355 5.63031 22.807C6.05031 26.2988 6.27033 29.8199 5.46033 33.3629C5.12925 34.8667 4.5027 36.339 3.80705 37.7303C3.93396 37.4881 3.68324 37.9779 3.80705 37.7303Z" fill="#D25F2A"/>
<path d="M47.6501 5.9253C47.6701 6.45236 47.4701 6.90621 47.3201 7.38203C47.1601 7.85053 46.9701 8.31904 46.7801 8.78754C46.4001 9.71722 45.9901 10.6396 45.5601 11.5619C44.7201 13.3993 43.8001 15.2294 42.8201 17.0229C40.9601 20.6172 39.3901 24.3139 38.0001 28.0253C37.3101 29.8847 36.6901 31.7587 36.0701 33.6253C35.6324 34.9431 35.2047 36.2644 34.794 37.5869L32.991 36.724C33.8508 33.6544 35.0194 30.6379 36.3301 27.6593C37.9401 23.9552 39.6601 20.2804 41.7201 16.6861C42.7901 14.9073 43.8501 13.1504 44.8701 11.3643C45.3801 10.4712 45.8701 9.57813 46.3301 8.67041C46.5601 8.21655 46.7901 7.76268 46.9901 7.30882C47.1801 6.85496 47.4201 6.37914 47.4401 5.9326L47.6401 5.91797L47.6501 5.9253Z" fill="#D25F2A"/>
<path d="M33.7195 2.8076C33.2295 4.65964 32.5995 6.47508 32.6595 8.34908C32.6295 10.2231 32.7195 12.0971 32.8195 13.9711L33.1295 19.6077C33.1795 20.552 33.2295 21.489 33.2495 22.4407C33.2495 23.4143 33.2095 24.322 33.1895 25.2809C33.1495 27.1696 32.9895 29.1021 32.4795 31.0127C32.1795 31.9644 31.8395 32.9087 31.3395 33.8237C30.8435 34.6896 30.2836 35.5355 29.5994 36.3297L26.4565 37.2163C26.9378 36.7038 27.3968 36.2117 27.7895 35.6904C30.2895 32.5866 31.3495 28.9704 31.5795 25.2443C31.6495 24.322 31.7395 23.3484 31.7895 22.448C31.8295 21.5256 31.8195 20.5813 31.8195 19.6443V14.0004C31.8395 12.119 31.8895 10.2304 32.0495 8.34908C32.1295 6.4458 32.8995 4.60108 33.5195 2.79297L33.7095 2.82956L33.7195 2.8076Z" fill="#D25F2A"/>
<path d="M15.54 27.5653C17.71 25.8816 19.31 23.8905 20.79 21.8628C22.24 19.8277 23.59 17.7414 24.89 15.6332C26.16 13.5176 27.31 11.3728 27.95 9.10348C28.36 7.96152 28.91 6.8781 29.48 5.79469C29.77 5.25299 30.07 4.71862 30.39 4.18424C30.73 3.65718 31.02 3.11548 31.54 2.6543L31.61 2.70554C31.15 3.15208 30.88 3.71573 30.57 4.24279C30.28 4.77717 30.01 5.3262 29.76 5.8679C29.26 6.95862 28.77 8.07131 28.44 9.184C27.9 11.4826 26.8201 13.7079 25.6501 15.8601C24.4601 18.0123 23.26 20.1718 21.63 22.1995C20 24.1906 18.17 26.1891 15.6 27.6092L15.53 27.5506L15.54 27.5653Z" fill="#D25F2A"/>
<path d="M19.4595 38.8047C17.5698 38.8047 17.3919 38.6747 17.3991 38.6747C18.2745 36.5921 19.3054 34.5429 20.4602 32.5272C21.1602 31.2754 21.8902 30.0309 22.6902 28.7938C23.1002 28.1643 23.5202 27.586 23.9402 26.993C24.3402 26.4001 24.7202 25.7925 25.0802 25.1849C26.4902 22.7399 27.7102 20.1924 28.4102 17.5645L28.6102 17.5791C28.2202 20.2656 27.4002 22.9302 26.1702 25.4923C25.5802 26.7661 24.8002 28.0545 24.0802 29.255C23.3802 30.4702 22.7502 31.7292 22.1602 32.9883C21.2809 34.9305 20.4075 36.8769 19.4595 38.8047Z" fill="#D25F2A"/>
<path d="M35.3101 19.2257C36.4901 18.0106 37.62 16.7881 38.63 15.507C39.65 14.2333 40.61 12.9376 41.32 11.5541C42.06 10.1632 42.92 8.80895 43.88 7.49861C44.37 6.8471 44.89 6.2029 45.47 5.588C46.06 4.98041 46.69 4.37283 47.55 3.96289L47.58 3.99218C46.75 4.41676 46.15 5.03899 45.6 5.64657C45.05 6.2688 44.56 6.9203 44.11 7.57912C43.2 8.9041 42.39 10.2657 41.7 11.6565C41.03 13.0694 40.16 14.4383 39.07 15.7047C37.97 16.9638 36.76 18.1716 35.36 19.255L35.32 19.2331L35.3101 19.2257Z" fill="#D25F2A"/>
<path d="M6.78982 35.3103C7.05982 35.2664 10.2898 34.7247 13.0298 35.3103C15.7698 35.8959 16.6498 36.9354 17.4798 36.218C18.3098 35.5006 20.0198 31.4598 21.7398 28.9124C23.4598 26.3649 28.3398 18.6566 28.5098 12.3538C28.5398 11.2997 24.3498 20.6551 22.5798 22.8804C21.3298 24.4616 19.1598 26.7895 16.7798 28.012C15.7998 28.5171 14.0898 29.3003 12.6598 29.0514C9.68982 28.5317 9.90983 27.2653 9.04983 25.2229C8.18983 23.1806 7.00983 15.8383 7.54983 13.6276C9.07983 7.31745 12.0198 5.39221 11.3798 5.0262C11.0098 4.82123 3.46982 11.3217 5.84982 20.3842C8.11982 29.0514 6.03983 35.4201 6.79983 35.303L6.78982 35.3103Z" fill="#E28348"/>
<path d="M30.99 4.87921C30.99 4.87921 31.97 1.89985 32.8 2.34639C33.63 2.79293 31.79 5.86014 31.59 8.96395C31.39 12.0751 31.07 20.4275 30.8 23.912C30.53 27.3892 29 33.8896 27.3 35.0755C26.32 35.7636 21.99 37.0666 21.99 36.4151C21.99 35.2585 25.34 30.7272 26.35 28.5165C27.58 25.8373 29.31 18.839 29.35 15.8011C29.42 10.6037 29.83 7.19244 31 4.87191L30.99 4.87921Z" fill="#E28348"/>
<path d="M34.19 21.5549C34.46 20.552 36.55 19.9078 39.8 15.7498C42.32 12.5362 44.97 6.43842 46.26 6.18221C47.55 5.926 41.29 16.7381 39.89 18.8244C38.49 20.9107 34.49 30.6613 33.62 31.6862C33.62 31.6862 33.11 32.345 33.41 30.5954C33.54 29.8268 33.9 28.0114 34.08 26.3496C34.31 24.2048 33.97 22.3967 34.19 21.5549Z" fill="#E28348"/>
<path d="M16.14 35.1854C14.44 34.5778 9.34996 34.4241 7.81996 34.5631C7.66996 34.5778 7.49997 34.5339 7.41997 34.4314C6.68997 33.4724 7.35996 30.9176 8.75996 30.2734C10.25 29.5926 11.64 29.9733 14.81 29.5561C14.84 29.5561 15.69 29.417 17.05 28.9777C21.36 27.5796 26.7 16.1087 27.18 16.0574C29.33 15.7866 17.93 35.8222 16.14 35.178V35.1854Z" fill="#F5AA72"/>
<path d="M32.05 3.75243L31.94 3.73047C31.06 6.28526 30.49 8.8986 30.38 11.5485C30.32 14.1765 30.19 16.7972 29.91 19.4105C29.68 21.2845 29.42 23.1585 28.97 24.9959C28.73 25.9988 28.31 26.9724 27.8 27.9167C26.19 30.8741 23.23 35.4274 23.17 35.8373C23.1 36.3863 25.41 35.3176 26.69 34.6368C27.97 33.956 29.86 26.2477 29.86 26.2477C30.55 24.0004 30.65 21.7164 30.82 19.4545C30.98 16.8192 31 14.1839 30.95 11.5559C30.9 8.94985 31.32 6.32184 32.05 3.75973V3.75243Z" fill="#F5AA72"/>
<path d="M42.5499 12.3021C44.8399 8.42963 45.8898 6.70203 45.7898 7.01681C45.6898 7.3389 42.0699 14.7836 40.3699 17.375C37.2399 22.1552 35.4299 27.5576 34.8399 27.5869C34.5099 27.6088 34.8499 26.0569 34.9899 24.4538C35.0899 23.2606 34.9199 21.9942 35.0799 21.6135C35.3199 21.0572 39.8698 16.7967 42.5398 12.2947L42.5499 12.3021Z" fill="#F5AA72"/>
<path d="M9.81004 7.00341C8.75004 8.55532 7.93004 10.1951 7.37004 11.8714C6.79004 13.5478 6.51003 15.268 6.77003 16.9663C6.98003 18.6866 7.43002 20.3849 7.76002 22.1052L8.24004 24.6893C8.37004 25.5531 8.55004 26.4242 8.46004 27.3173H8.36003C8.27003 26.8927 8.13003 26.4681 7.98003 26.0508L7.55003 24.7844C7.26003 23.9353 7.02003 23.0861 6.77003 22.2296C6.31003 20.5167 6.07004 18.7598 5.96004 17.0103C5.80004 15.2387 6.19002 13.4526 6.88002 11.7762C7.58002 10.0926 8.54002 8.4821 9.72002 6.9668L9.81004 7.00341Z" fill="#F5AA72"/>
<path d="M26.0101 19.0078C24.8701 21.4528 23.6201 23.8685 22.2101 26.2403C21.5201 27.4335 20.8301 28.6267 19.9201 29.7467C19.0101 30.8594 18.0101 31.9647 16.6701 32.8432L16.5901 32.7993C17.4901 31.6792 18.2601 30.5446 19.0401 29.3953C19.8201 28.2534 20.7001 27.1407 21.4801 25.9914C23.0401 23.6855 24.5101 21.343 25.9201 18.9785L26.0101 19.0078Z" fill="#F7BE94"/>
<path d="M8.43006 33.0483C8.32006 32.5212 8.39005 32.0088 8.64005 31.4817C8.79005 31.2328 8.94005 30.94 9.45005 30.735C9.61005 30.6838 9.69005 30.6692 9.77005 30.6472L10.0201 30.596L10.53 30.5081C11.21 30.391 11.8901 30.3251 12.5801 30.2885C13.2701 30.2592 13.96 30.2519 14.66 30.3251C14.01 30.5228 13.3601 30.6692 12.7101 30.8083C12.0601 30.9473 11.4101 31.0791 10.7701 31.2036L9.89005 31.3792C9.79005 31.4085 9.57005 31.5769 9.42005 31.7599C9.08005 32.1405 8.81004 32.5944 8.44004 33.0483H8.43006Z" fill="#F7BE94"/>
<path d="M24.8999 34.4758C25.2599 33.7218 25.6599 32.9897 26.0599 32.265C26.4599 31.5403 26.9499 30.8375 27.3599 30.1128C28.1799 28.6634 28.8499 27.1628 29.3799 25.6328H29.4499C29.1299 27.2067 28.6199 28.7659 27.9199 30.2666C27.5799 31.0206 27.2399 31.7819 26.7399 32.4919C26.2399 33.202 25.6799 33.8901 24.9599 34.505L24.8999 34.4758Z" fill="#F7BE94"/>
<path d="M35.3 22.9677C35.61 22.2869 36 21.65 36.42 21.0205C36.84 20.3909 37.3701 19.8053 37.8401 19.1977C38.7801 17.9826 39.71 16.7601 40.51 15.4863L40.58 15.5083C39.98 16.8479 39.2 18.1363 38.38 19.4027C37.97 20.0396 37.59 20.6837 37.08 21.284C36.57 21.8769 36.0301 22.4626 35.3701 22.9896L35.3101 22.9604L35.3 22.9677Z" fill="#F7BE94"/>
</svg>
