<svg width="19" height="40" viewBox="0 0 19 40" fill="none" xmlns="http://www.w3.org/2000/svg">
<path d="M17.98 37.3446C17.98 37.3446 17.4 27.0742 17.98 22.2355C18.56 17.3968 17.3 -0.508656 12.52 0.0110857C7.74 0.523507 5.07 19.4611 4.93 23.6776C4.79 27.8941 0 39.7237 0 39.7237C0 39.7237 5.64811 35.6524 9.82983 35.4434C13.0941 35.2802 17.98 37.3446 17.98 37.3446Z" fill="#DC6F2F"/>
<path d="M5.87004 33.9341C4.91004 33.9121 8.77004 23.2977 8.88004 20.128C9.20004 10.6702 11.52 1.98828 12.67 1.98828C14.39 1.98828 14.77 14.5719 14.62 21.6213C14.53 25.9476 14.91 34.6808 14.22 34.3148L13.89 34.2123C11.89 33.5827 9.67004 33.3997 7.53004 33.6999L5.87004 33.9341Z" fill="#E28348"/>
<path d="M12.4 7.00977C13.54 7.86624 13.75 30.8081 13.12 31.2912C12.81 31.5328 11.53 31.2253 10.5 31.2253C9.46997 31.2253 8.67997 31.5108 8.25997 31.2912C7.41997 30.8666 9.45997 27.8067 9.86997 21.116C10.34 13.5102 11.5 7.30258 12.39 7.00977H12.4Z" fill="#F5AA72"/>
<path d="M16.8299 35.9434C16.8299 35.9434 16.2201 27.9379 16.4401 24.6877C16.6601 21.4375 17.7601 13.7146 15.3101 5.86721C15.3101 5.85257 16.7201 13.1656 15.5601 25.3392C15.1201 30.0169 15.3299 35.4434 15.3299 35.4434L16.8299 35.9434Z" fill="#D25F2A"/>
<path d="M2.32983 36.9434C2.32983 36.9434 5.60001 27.5726 5.82001 24.2272C6.04001 20.977 7.43001 12.2146 9.88001 4.36719C9.88001 4.36719 8.42001 11.5045 7.11001 24.1686C6.73001 27.8654 5.05001 32.4918 4.62001 35.4639L2.32983 36.9434Z" fill="#D25F2A"/>
<path d="M12.0901 11.1895C12.5601 11.1895 13.1901 26.8037 12.0901 27.5211C12.0901 27.5211 10.0601 28.1945 10.1901 27.5211C11.4401 20.7937 11.6201 11.1895 12.0901 11.1895Z" fill="#F7BE94"/>
</svg>
