<svg width="23" height="56" viewBox="0 0 23 56" fill="none" xmlns="http://www.w3.org/2000/svg">
<path d="M0 48.9412C0 48.9412 4.55 30.0841 7.43 20.553C10.31 11.022 18.45 -2.8573 20.98 0.517356C23.5 3.89934 20.64 55.2659 20.64 55.2659C20.64 55.2659 18.3999 44 10.8999 43.5C3.3999 43 0 48.9412 0 48.9412Z" fill="#DC6F2F"/>
<path d="M19.8501 6.38867C20.2301 11.4104 20.4201 16.4321 20.5901 21.4538C20.7001 26.4829 20.7201 31.5046 20.6401 36.541C20.5201 41.5701 20.5301 46.6211 19.7201 51.6428L19.6526 52C19.6526 52 17.1293 47.3529 17.1294 47.217C17.5089 43.6404 17.9774 40.0634 18.2501 36.4751C18.6301 31.4753 18.9101 26.4609 19.1001 21.4465C19.3401 16.4321 19.4601 11.4104 19.5601 6.38867H19.8601H19.8501Z" fill="#D25F2A"/>
<path d="M4.85055 44.652L2.71346 46C2.65246 46.536 2.76118 45.4627 2.71346 46C2.92092 44.1774 3.19841 42.3615 3.49979 40.5457C3.96979 38.2032 4.48979 35.868 5.11979 33.5475C6.33979 28.8991 7.77978 24.2873 9.52978 19.7341C10.4098 17.4574 11.3798 15.2028 12.4398 12.9701C13.5098 10.7374 14.6298 8.52668 15.9598 6.36719L16.1398 6.42574C13.8098 10.8106 12.0498 15.3565 10.5298 19.9244C9.00978 24.4923 7.74979 29.1114 6.79979 33.7524C6.30979 36.073 5.93978 38.4082 5.52978 40.736C5.31677 42.0409 5.07862 43.3458 4.85055 44.652Z" fill="#D25F2A"/>
<path d="M15.6601 42.7699C15.2201 42.9163 13.6001 41.5328 11.6701 41.2986C9.74014 41.0643 7.49014 41.9794 6.98014 41.5401C5.96014 40.669 9.80014 26.9947 11.5901 21.0652C13.4301 15.004 17.6501 5.09966 18.4001 5.31195C19.2501 5.76581 18.3701 12.42 17.2201 22.7782C16.5701 28.6418 16.5301 42.4771 15.6501 42.7699H15.6601Z" fill="#E28348"/>
<path d="M14.2702 39.8046C12.4202 39.0579 10.5602 38.7505 9.08018 39.014C7.93018 39.1751 11.5502 25.9034 12.9102 21.394C13.6102 19.0808 15.9902 10.6551 17.1102 10.8308C18.2302 11.0065 15.7602 20.8304 15.3602 24.4686C15.1802 26.0498 15.0202 27.6675 14.8602 29.3366C14.4802 33.1138 15.1302 40.2219 14.2802 39.8046H14.2702Z" fill="#F5AA72"/>
<path d="M16.5 13.4451C16.5 13.4451 8.87997 33.349 11 32.9537C11 32.9537 12.6 32.9391 13.3 33.4734C14.42 34.3446 12.78 29.3009 15.14 20.6336C16.43 15.8827 16.9 12.4715 16.5 13.4377V13.4451Z" fill="#F7BE94"/>
</svg>
