<svg width="50" height="40" viewBox="0 0 50 40" fill="none" xmlns="http://www.w3.org/2000/svg">
<path d="M0.975636 39.1709C0.975636 39.1709 -0.144355 37.3262 0.0156446 31.6384C0.175645 25.9505 1.44564 3.20629 16.0456 0C16.0456 0 20.2057 0.0951629 16.5557 4.04813C12.9057 8.00109 8.53565 15.7533 10.4856 22.2318C11.8956 26.8948 15.0656 25.7894 15.8956 24.75C17.8656 22.2903 17.7856 18.8571 22.2256 12.0053C25.6656 6.7054 28.4156 0.746662 31.7256 0.951631C32.2356 0.980912 31.9756 2.64262 32.3856 2.75975C32.6556 2.84027 33.8856 1.84471 34.7456 2.10092C37.1756 2.84027 31.5856 12.6934 30.4656 17.4589C29.3556 22.2244 29.9856 26.5215 31.7356 26.6386C33.4856 26.7557 40.8356 21.2948 42.7156 14.3258C44.5956 7.35689 44.5956 4.09936 47.2956 4.56786C49.9956 5.02904 51.4956 26.4483 37.9756 38.4536C37.9756 38.4536 32.574 37.7408 29.1192 37.9859C25.9153 38.2132 24.2473 39.4844 21.0354 39.502C16.8014 39.5251 16.9359 37.002 10.4856 37.002C4.0354 37.002 0.965641 39.1709 0.965641 39.1709H0.975636Z" fill="#DC6F2F"/>
<path d="M47.8456 7.03408C48.5056 8.9886 48.6256 11.009 48.5556 13.0148C48.4556 15.0205 48.1256 17.0263 47.6156 18.9955C46.5656 22.9411 44.8656 26.7989 42.6456 30.481C41.0031 33.1877 39.1327 35.8508 36.8746 38.3297L34.5353 38.1329C33.9347 38.7645 35.1535 37.5114 34.5353 38.1329C37.0047 35.5361 39.2992 32.8449 41.2056 29.9832C43.5656 26.4329 45.4256 22.6922 46.6456 18.8344C47.2756 16.9092 47.7256 14.9546 47.9556 12.9782C48.1556 11.009 48.1756 9.00324 47.6456 7.05604C47.6356 7.01944 47.6656 6.97552 47.7256 6.9682C47.7756 6.96088 47.8256 6.98285 47.8456 7.01945V7.03408Z" fill="#D25F2A"/>
<path d="M34.3756 4.3125C34.2456 5.38858 33.8256 6.4354 33.4456 7.4822L32.2656 10.6006C31.4956 12.6723 30.7556 14.7732 30.1156 16.8668C29.5056 18.9604 28.9456 21.0833 28.9656 23.1916C28.9756 24.2384 29.1456 25.2925 29.6556 26.2368C29.7856 26.4711 29.9356 26.698 30.1056 26.9103C30.2656 27.1079 30.4556 27.269 30.6956 27.4373C31.1756 27.7521 31.6856 28.0669 32.4456 28.1913C32.1056 28.3377 31.6556 28.3817 31.2556 28.3158C30.8456 28.2645 30.4556 28.1474 30.1156 27.9717C29.7856 27.796 29.4556 27.5618 29.2556 27.2836C29.0556 27.0347 28.8756 26.7712 28.7356 26.5077C28.1656 25.4316 28.0056 24.3043 28.0056 23.1989C28.0456 20.9882 28.6256 18.836 29.3456 16.7351C30.0856 14.6341 30.9156 12.5698 31.7856 10.4982L33.1856 7.42363C33.6256 6.39879 34.1356 5.38126 34.3756 4.3125Z" fill="#D25F2A"/>
<path d="M16.3056 3.28711C14.5956 5.28555 12.9856 7.32792 11.8056 9.50937C10.5756 11.6689 9.7656 13.9528 9.3956 16.266C9.0456 18.5792 9.1356 20.9364 9.6456 23.2203C9.9356 24.3476 10.3256 25.4676 11.0756 26.4266C11.7756 27.4075 13.1256 28.0737 14.7556 28.2127C13.9556 28.3006 13.0856 28.2493 12.3056 27.9858C11.5256 27.7223 10.8556 27.2757 10.3556 26.7706C9.38559 25.7312 8.92558 24.5233 8.68558 23.3374C8.27558 20.9583 8.16558 18.5646 8.65558 16.2001C9.12558 13.843 10.0356 11.5371 11.3756 9.37761C12.7156 7.21812 14.4256 5.19772 16.3056 3.29444V3.28711Z" fill="#D25F2A"/>
<path d="M3.98095 37.8923C3.98095 37.8923 2.05897 38.502 2.05897 38.5934C2.05059 38.5645 2.04272 38.534 2.0354 38.502C1.9684 38.2083 1.92673 37.9139 1.86559 37.6182C1.47559 35.7955 1.26559 33.8995 1.33559 32.0475C1.39559 28.3654 1.63559 24.6833 2.19559 21.0231C2.79559 17.3703 3.6556 13.6955 5.4556 10.233C6.3456 8.50538 7.4956 6.82904 8.9856 5.32838C10.4656 3.8204 12.3756 2.57594 14.4056 1.50718C14.4456 1.48522 14.5156 1.48521 14.5456 1.52181C14.5756 1.55109 14.5656 1.60234 14.5256 1.62431C12.5656 2.75895 10.7656 4.03268 9.40558 5.55531C8.03558 7.06329 7.01558 8.72499 6.24558 10.4453C4.70558 13.8931 3.9656 17.5094 3.5456 21.1256C3.1356 24.7491 3.0856 28.402 3.2356 32.0402C3.2556 33.8556 3.5556 35.6051 3.8856 37.4059C3.91642 37.5678 3.98095 37.8923 3.98095 37.8923Z" fill="#D25F2A"/>
<path d="M19.5354 39.502C19.5354 39.502 19.0354 39.502 18.1663 39.002C18.4773 37.5978 18.8481 36.2046 19.2356 34.8144C19.8256 32.6623 20.4356 30.5174 21.0756 28.3726C22.3656 24.0902 23.7557 19.8298 25.3357 15.6059C26.1357 13.4977 26.9856 11.3968 27.9156 9.31049C28.8856 7.23884 29.8057 5.13792 31.3657 3.22732C31.4057 3.17607 31.4957 3.16142 31.5757 3.1907C31.6457 3.21998 31.6656 3.28587 31.6356 3.33712C30.9456 4.28876 30.4657 5.32824 30.0157 6.36041C29.5657 7.39257 29.1656 8.44669 28.7856 9.4935C28.0256 11.6017 27.3557 13.7246 26.7357 15.8548C25.4657 20.1153 24.3256 24.3976 23.3256 28.6873C22.8256 30.8322 22.3656 32.9843 21.9556 35.1438L21.1997 39.502H19.5354Z" fill="#D25F2A"/>
<path d="M13.5358 3.28799C13.5358 3.28799 15.2558 2.95859 14.4658 4.00539C13.6758 5.05219 4.43577 15.3519 7.87577 24.9561C7.87577 24.9561 9.86578 29.7582 13.8558 29.3263C16.8358 29.0042 19.1058 21.5229 20.6958 17.7602C22.4758 13.5511 28.3358 1.99963 30.7258 2.38028C30.7258 2.38028 25.7558 11.9626 23.6758 17.6358C20.2258 27.0424 18.6258 36.1122 17.6758 36.8223C16.9658 37.1517 17.0358 35.9731 13.2658 35.3509C7.65578 34.4286 6.59576 35.856 5.49576 35.695C3.21576 35.3656 0.935794 12.4457 13.5258 3.28799H13.5358Z" fill="#E28348"/>
<path d="M33.2856 3.55664C33.2856 3.55664 33.9556 3.58594 33.2856 5.58438C32.6156 7.58282 21.9456 26.9889 30.0656 29.3168C38.1856 31.6447 43.5856 17.9923 44.2456 14.8738C44.9056 11.7554 45.4456 6.00163 46.1756 6.19928C46.8956 6.38961 49.9456 24.7782 34.8456 35.7074C34.5556 35.9124 34.1556 36.0076 33.7456 35.971C32.5256 35.8538 29.5456 35.7074 25.2356 36.4028C24.6856 36.4907 24.0856 36.3077 23.8656 35.927C23.4656 35.2536 23.1156 33.8115 23.6556 30.7809C24.6156 25.3638 25.0756 14.3761 33.2756 3.56397L33.2856 3.55664Z" fill="#E28348"/>
<path d="M29.1657 3.95409C29.1657 3.95409 24.9557 12.4822 23.6757 15.3225C22.1057 18.7923 19.5957 27.9647 18.4157 30.9294C18.2057 31.4565 17.3457 34.5603 16.8057 34.8604C15.6857 35.49 12.8357 34.3553 9.91571 34.1137C8.47571 33.9966 6.94571 34.4285 6.38571 33.4329C5.95571 32.6716 5.60571 31.8518 5.35571 30.9953C6.22571 29.5312 14.3357 31.2954 16.3057 29.2604C19.9357 23.9019 24.2057 8.33164 29.1657 3.93945V3.95409Z" fill="#F5AA72"/>
<path d="M37.2756 32.7212C36.3356 33.7021 35.3456 34.5586 34.3756 35.0563C33.3056 35.5981 31.3256 35.2394 29.5356 35.2247C27.4856 35.2101 25.6756 35.459 25.4556 35.0563C23.3956 31.3157 26.0656 19.8301 26.8856 17.3778C28.2656 13.2199 30.2456 9.19372 32.6256 5.30664L32.7256 5.34323C31.6756 7.32704 30.7456 9.34011 29.9256 11.3752C29.0756 13.4029 28.3456 15.4599 27.7756 17.5242C27.1256 19.8814 26.5156 22.2824 26.5856 24.6688C26.5956 24.8445 26.7756 30.2396 31.4356 30.935C31.9056 31.0009 36.5156 31.7403 37.2756 32.7285V32.7212Z" fill="#F5AA72"/>
<path d="M46.0356 15.3416C45.7256 17.5816 45.1756 19.807 44.3656 22.0031C43.5756 24.1846 42.5456 26.388 40.8756 28.3352C40.0156 29.4625 37.7656 29.0013 38.8956 27.508C41.7656 23.6721 43.7856 19.5508 44.8956 15.2245C45.4556 13.0577 45.7956 10.847 45.9056 8.62891H46.1356C46.3956 10.8543 46.2956 13.0943 46.0356 15.3416Z" fill="#F5AA72"/>
<path d="M5.08582 28.5637C5.03582 28.549 4.98581 28.5051 4.98581 28.4612C4.47581 24.2227 4.50581 22.4293 5.04581 19.4645C5.54581 16.7267 6.57581 14.0768 7.92581 11.5293C9.29581 8.98918 10.9858 6.54419 13.0258 4.26758L13.1658 4.33346C11.3458 6.68328 9.87579 9.18682 8.74579 11.7416C7.57579 14.2964 6.7358 16.9244 6.4158 19.5817C6.3458 20.2478 6.26582 20.914 6.27582 21.5728C6.30582 23.5712 7.37581 25.2256 8.20581 27.2387C8.24581 27.3339 8.20582 27.429 8.11582 27.4949C7.64582 27.8463 6.16581 28.8638 5.10581 28.5637H5.08582Z" fill="#F5AA72"/>
<path d="M28.0056 15.2998C27.6356 16.5589 27.3356 17.8399 27.0656 19.1137C26.7956 20.3874 26.5656 21.6684 26.4156 22.9495C26.2656 24.2305 26.2056 25.5189 26.1656 26.7927C26.1056 28.0737 26.1356 29.3474 26.3156 30.6358L26.2456 30.6505C25.6456 29.4133 25.4956 28.0883 25.4256 26.7927C25.3756 25.4823 25.6056 24.1866 25.8356 22.8983C26.2956 20.3215 27.0256 17.7814 27.9456 15.2852L28.0156 15.2998H28.0056Z" fill="#F7BE94"/>
<path d="M30.7457 31.3672C31.5657 31.477 32.3658 31.6161 33.1658 31.7991C33.9658 31.9821 34.7358 32.1871 35.5658 32.4872L36.2457 32.7361L35.6458 33.2851C35.1758 33.717 34.6257 34.0684 33.9657 34.3393C33.6457 34.4783 33.2958 34.6028 32.9358 34.6979C32.5658 34.7858 32.1658 34.8663 31.7558 34.8297C31.7158 34.8297 31.6758 34.7931 31.6858 34.7638C31.6858 34.7492 31.6858 34.7419 31.7058 34.7272C32.2158 34.3246 32.6258 33.922 33.1158 33.5486C33.5758 33.168 34.1058 32.8239 34.6758 32.5384L34.7658 33.329C34.2358 32.963 33.5258 32.6556 32.8358 32.3554C32.1358 32.0553 31.4258 31.7625 30.7058 31.4697C30.6658 31.455 30.6558 31.4184 30.6758 31.3965C30.6958 31.3745 30.7258 31.3672 30.7558 31.3672H30.7457Z" fill="#F7BE94"/>
<path d="M24.1158 13.3965L19.4458 25.2041L17.1158 31.1043C16.9258 31.5948 16.7358 32.0852 16.5658 32.583C16.4658 32.8319 16.4058 33.0662 16.2558 33.3516C16.2158 33.4248 16.1458 33.5127 16.0458 33.5786C15.9458 33.6445 15.8858 33.681 15.7258 33.725C15.4858 33.7762 15.3158 33.7762 15.1258 33.7835C13.6858 33.7909 12.3058 33.6737 10.9058 33.5347V33.4834C12.3058 33.4688 13.7258 33.498 15.0858 33.4102C15.2458 33.3956 15.4358 33.3736 15.5158 33.3443C15.5158 33.3443 15.6058 33.3077 15.6258 33.2858C15.6558 33.2638 15.6758 33.2418 15.6958 33.1906C15.7858 32.9929 15.8458 32.7221 15.9258 32.4805C16.0658 31.9754 16.2258 31.4703 16.3858 30.9725C17.0458 28.9668 18.0258 27.0489 18.8658 25.0943L24.0358 13.3965L24.1058 13.4111L24.1158 13.3965Z" fill="#F7BE94"/>
<path d="M12.5256 30.9717C11.5456 30.9863 10.5656 31.0376 9.5856 31.0815C9.0956 31.1108 8.61559 31.1401 8.13559 31.1913C7.67559 31.2499 7.16558 31.3304 6.84558 31.4402L7.0556 31.1474C7.1756 31.7843 7.22558 32.4211 7.31558 33.0873L7.24557 33.1092C6.95557 32.8384 6.7756 32.5163 6.6156 32.2015C6.4656 31.8867 6.36558 31.5573 6.28558 31.2279L6.2356 31.0156L6.49557 30.9351C7.07557 30.7594 7.56559 30.7667 8.07559 30.7448C8.57559 30.7301 9.07558 30.7375 9.56558 30.7448C10.5556 30.7667 11.5356 30.8399 12.5156 30.9205V30.9717H12.5256Z" fill="#F7BE94"/>
<path d="M6.11573 27.4061C5.66573 26.879 5.53573 26.2714 5.39573 25.6858C5.26573 25.0929 5.18572 24.4999 5.16572 23.8996C5.14572 22.7138 5.12572 21.5059 5.38572 20.3273C5.88572 17.9702 6.66573 15.6716 7.48573 13.373H7.53571C6.81571 15.6936 6.14571 18.0141 5.71571 20.3566C5.47571 21.5206 5.58573 22.6991 5.67573 23.885C5.79573 25.0563 5.71571 26.2568 6.15571 27.3768L6.11573 27.3988V27.4061Z" fill="#F7BE94"/>
<path d="M40.0957 27.9717C40.4957 27.0494 40.9957 26.1636 41.4557 25.2632C41.9257 24.3701 42.4857 23.5064 42.9657 22.6133C43.9157 20.8271 44.7257 19.0044 45.2957 17.123H45.3657C45.0157 19.041 44.3657 20.9296 43.5257 22.7597C43.1157 23.6747 42.7057 24.6044 42.1357 25.4755C41.5457 26.3466 40.9457 27.2104 40.1557 27.9937L40.0857 27.9717H40.0957Z" fill="#F7BE94"/>
</svg>
