<svg width="24" height="42" viewBox="0 0 24 42" fill="none" xmlns="http://www.w3.org/2000/svg">
<path d="M17.77 40.7177C17.77 40.7177 16.44 31.5746 18.04 26.3772C19.64 21.1871 27.07 -0.24674 22.23 0.00214993C17.39 0.25104 0.41 30.2643 0 41.3472C0 41.3472 4.99071 35.8628 9.14978 35.8965C11.6474 35.9167 14.4316 37.9781 16.1498 39.3965C17.0849 40.1684 17.77 40.7177 17.77 40.7177Z" fill="#DC6F2F"/>
<path d="M15.52 38.8965C15.52 38.8965 15.52 38.7618 15.52 38.5078C15.49 36.9998 15.22 35.4259 15.17 33.874C15 30.7556 15.26 27.6005 16.18 24.526C16.62 22.9961 17.31 21.4661 18.09 20.0387C18.82 18.6039 19.34 17.1032 19.84 15.6026C20.84 12.5939 21.61 9.54134 22.45 6.49609L22.56 6.51073C21.89 9.57061 21.31 12.6525 20.45 15.705C20.01 17.2277 19.55 18.7503 18.86 20.2436C18.12 21.715 17.52 23.1498 17.16 24.6724C16.41 27.6957 16.28 30.7776 16.25 33.8594C16.25 34.628 16.25 35.404 16.28 36.1799C16.31 36.9486 16.25 38.5297 16.25 38.5297L16.1498 39.3965L15.52 38.8965Z" fill="#D25F2A"/>
<path d="M19.08 3.98386C16.75 7.3146 14.7 10.7552 12.81 14.225C10.92 17.7021 9.22004 21.2305 7.79004 24.8175C6.37004 28.4044 5.27004 32.0499 4.37004 35.7174C4.17941 36.4819 3.94068 37.2313 3.85886 37.9781C3.86057 37.824 3.84196 38.1323 3.85886 37.9781L2.86986 38.748C2.85805 38.6358 2.85104 38.5299 2.85004 38.4332C2.82004 37.445 3.08004 36.508 3.25004 35.5856C4.01004 31.8523 5.37004 28.2068 6.92004 24.6271C8.47004 21.0402 10.28 17.5264 12.29 14.0713C14.33 10.6307 16.52 7.23408 18.99 3.94727L19.09 3.98386H19.08Z" fill="#D25F2A"/>
<path d="M15.68 24.2765C15.44 25.1476 15.23 25.8796 15.09 26.436C14.42 28.8956 15.57 35.213 13.66 35.2057C8.92003 34.3858 7.80003 34.0198 5.66003 34.6347C2.90003 34.7006 20.73 2.48394 21.74 2.88655C22.87 3.34041 19.45 10.9535 15.69 24.2765H15.68Z" fill="#E28348"/>
<path d="M7.50008 32.9004C5.65008 32.9004 20.3301 4.08041 21.0701 4.24878C21.7501 4.40251 19.0701 12.4109 15.8401 20.1339C15.2901 21.4442 14.8601 22.7838 14.5601 24.1381C14.5601 24.1381 14.5601 24.1454 14.5601 24.1527C13.7201 27.9007 13.8001 32.1172 13.2201 32.7687C13.2201 32.7687 12.5701 33.0469 10.6401 32.5418C8.92008 32.0879 7.49007 32.9004 7.49007 32.9004H7.50008Z" fill="#F5AA72"/>
<path d="M18.6101 10.1992C18.6101 10.1992 9.58005 26.0257 9.75005 29.415C9.76005 29.6859 9.95005 29.9274 10.2101 30.1178C10.7701 30.5131 11.7901 31.0621 11.9301 29.8323C12.4101 25.5865 18.6101 10.1992 18.6101 10.1992Z" fill="#F7BE94"/>
</svg>
