<svg width="21" height="30" viewBox="0 0 21 30" fill="none" xmlns="http://www.w3.org/2000/svg">
<path d="M1.30805 24.1938C1.30805 24.1938 2.05805 29.1026 8.38805 29.1026C14.718 29.1026 17.718 25.3373 19.118 22.0947C20.508 18.8521 21.268 8.77305 20.298 7.28652C19.328 5.79998 15.258 1.9448 13.538 0.629789C11.818 -0.685222 10.208 0.36842 8.92804 1.24237C7.63804 2.11632 1.20804 6.32272 0.34804 9.12426C-0.51196 11.9258 1.31804 24.1938 1.31804 24.1938H1.30805Z" fill="#E3F7FC"/>
<path d="M20.1781 17.6094C20.0481 18.4997 19.9081 19.3246 19.7281 20.0761C19.5481 20.8765 19.3381 21.5708 19.1081 22.0935C17.7181 25.3361 14.7081 29.0933 8.38811 29.0933C2.06811 29.0933 1.2981 24.1926 1.2981 24.1926C1.2981 24.1926 1.0081 22.2487 0.728104 19.733C0.668104 19.2348 0.618105 18.712 0.558105 18.1811C1.24811 19.6023 4.1581 21.8239 9.7281 21.8239C15.2981 21.8239 18.0881 20.0515 20.1781 17.6094Z" fill="#CBEDFA"/>
<path d="M19.738 20.0774C19.558 20.8779 19.348 21.5721 19.118 22.0949C18.928 22.5523 18.688 23.026 18.408 23.5079H18.398C16.788 26.3503 13.798 29.1028 8.39803 29.1028C2.06803 29.1028 1.30803 24.2021 1.30803 24.2021C1.30803 24.2021 1.22802 23.6631 1.09802 22.7728C1.00802 21.9887 0.858027 20.935 0.728027 19.7344C0.808027 20.0448 2.33803 25.0107 9.44803 25.0107C15.248 25.0107 18.578 21.5313 19.728 20.0774H19.738Z" fill="#9FDAED"/>
<path d="M18.398 23.5148C16.788 26.3408 13.798 29.1015 8.39803 29.1015C2.06803 29.1015 1.30803 24.2008 1.30803 24.2008C1.30803 24.2008 1.22802 23.6618 1.09802 22.7715H1.10803C1.10803 22.7715 3.04803 27.4843 8.72803 27.4843C14.408 27.4843 18.148 23.7516 18.388 23.5148H18.398Z" fill="#A5DFF2"/>
<path d="M4.42802 6.71472C4.42802 6.71472 10.288 1.15249 12.018 2.08361C13.748 3.00657 19.408 6.17565 18.038 6.71472C16.678 7.2538 15.198 5.44055 12.018 5.84894C8.82802 6.25733 2.57802 8.34828 4.42802 6.71472Z" fill="#F0FCFF"/>
<path d="M7.51807 4.86026C7.51807 4.86026 10.9281 2.40176 11.8981 2.9245C12.8681 3.44724 15.9281 4.55805 15.1581 4.86026C14.3981 5.16246 13.5681 4.14149 11.7781 4.37018C9.98808 4.59888 6.47807 5.77505 7.51807 4.86026Z" fill="white"/>
</svg>
