<svg width="38" height="21" viewBox="0 0 38 21" fill="none" xmlns="http://www.w3.org/2000/svg">
<path d="M37.8181 8.06053C37.5581 10.5599 36.6181 18.9808 31.7981 20.2877C26.9781 21.6027 20.9281 19.6343 18.2681 19.6343C15.6081 19.6343 7.15806 20.4592 3.67806 18.842C3.67806 18.842 0.638074 15.8526 0.0980735 10.9356C0.0180735 10.1597 0.0280625 9.37555 0.118062 8.59961C0.608063 4.43404 3.30808 0.521689 5.00808 0.0561261C7.01808 -0.491115 14.9181 3.44576 18.1281 3.33141C21.3381 3.22523 26.0981 0.823906 30.6781 1.03627C35.2581 1.2568 38.0781 5.56119 37.8081 8.06053H37.8181Z" fill="#E3F7FC"/>
<path d="M37.8181 8.06142C37.7181 8.98438 37.5281 10.7159 37.0881 12.6027C36.9781 13.0764 36.848 13.5665 36.698 14.0484C35.848 16.8418 34.3881 19.5943 31.7981 20.2968C26.9781 21.6118 20.9281 19.6433 18.2681 19.6433C15.6081 19.6433 7.15806 20.4683 3.67806 18.8511H3.66805C3.66805 18.8511 3.63806 18.7939 3.58806 18.7612C3.33806 18.4917 2.57805 17.6341 1.82805 16.2945C1.60805 15.9107 1.40805 15.4859 1.19805 15.0122C1.03805 14.6365 0.878058 14.2363 0.738058 13.8197C0.588058 13.3623 0.448064 12.8886 0.338064 12.374C0.328064 12.3495 0.328054 12.3332 0.328054 12.3332C0.238054 11.8839 0.158073 11.4265 0.0980735 10.9446C0.0180735 10.1687 0.0280625 9.38461 0.118062 8.60868C0.358062 9.89102 0.408076 11.5409 5.28808 12.374C11.4381 13.4276 13.8481 13.444 14.4081 12.6191C14.9581 11.7859 16.0381 7.54688 17.2781 7.54688C18.5181 7.54688 19.1181 11.7288 21.7381 12.374C24.3481 13.0193 32.2181 13.9912 34.5881 12.374C36.9681 10.7568 37.8181 8.0696 37.8181 8.0696V8.06142Z" fill="#CBEDFA"/>
<path d="M37.0881 12.5959C36.9781 13.0696 36.8481 13.5597 36.6981 14.0416C35.8481 16.8349 34.3881 19.5875 31.7981 20.2899C26.9781 21.6049 20.9281 19.6365 18.2681 19.6365C15.6081 19.6365 7.15813 20.4614 3.67813 18.8442H3.66812C3.66812 18.8442 3.63813 18.7871 3.58813 18.7544C3.33813 18.4849 2.57812 17.6272 1.82812 16.2877C1.60813 15.9038 1.40812 15.4791 1.19812 15.0054C1.03812 14.6296 0.878129 14.2294 0.738129 13.8129C0.588129 13.3555 0.448135 12.8818 0.338135 12.3672C0.478135 12.6857 2.28813 14.5153 5.95813 14.9237C15.0881 16.206 16.2581 13.2248 17.4381 13.1186C18.6181 13.0124 18.6481 15.2177 23.9281 15.1606C29.0981 15.0952 34.4481 16.0018 37.0881 12.5959Z" fill="#9FDAED"/>
<path d="M35.8381 16.3193C34.9481 18.2061 33.6681 19.7824 31.7881 20.2888C26.9681 21.6038 20.9181 19.6354 18.2581 19.6354C15.5981 19.6354 7.14809 20.4604 3.66809 18.8431C3.66809 18.8431 2.73812 17.9283 1.81812 16.2866C6.96812 18.3776 11.7281 18.1652 15.8281 16.646C16.6781 16.3356 16.8781 15.8537 17.6281 15.9109C18.3381 15.9599 18.5381 16.6705 20.7381 17.2096C27.5581 18.8921 33.5081 17.3975 35.8281 16.3275L35.8381 16.3193Z" fill="#A5DFF2"/>
<path d="M5.61814 2.00179C5.61814 2.00179 3.08815 3.65984 4.52815 5.81613C5.95815 7.97242 12.0282 8.47065 12.7882 8.06227C13.7682 7.53953 15.9681 5.44859 15.8281 5.13822C15.6881 4.81967 8.04814 1.07068 5.61814 2.00997V2.00179Z" fill="#F0FCFF"/>
<path d="M22.2781 4.46794C22.2781 4.46794 27.3081 2.08295 30.9681 2.24631C34.6281 2.40966 35.9181 4.99885 35.8381 6.00348C35.7681 7.00812 32.0081 7.63704 27.8481 7.53903C23.6981 7.43285 20.3881 5.84829 22.2681 4.46794H22.2781Z" fill="#F0FCFF"/>
<path d="M7.01803 3.07883C7.01803 3.07883 5.30804 3.72409 6.27804 4.5572C7.24804 5.39031 11.358 5.56998 11.888 5.43113C12.458 5.28411 13.218 5.3168 13.218 4.5817C13.218 4.43468 8.66803 2.71128 7.01803 3.07066V3.07883Z" fill="white"/>
<path d="M24.8081 4.44182C24.8081 4.44182 27.8781 3.63322 30.1181 3.6904C32.3481 3.74757 33.1381 4.62151 33.0981 4.95639C33.0581 5.29944 30.7581 5.50363 28.2181 5.47096C25.6781 5.43829 23.6581 4.8992 24.8081 4.43364V4.44182Z" fill="white"/>
</svg>
