<svg width="16" height="18" viewBox="0 0 16 18" fill="none" xmlns="http://www.w3.org/2000/svg">
<path d="M15.2181 0.556993C15.4981 0.614167 15.6981 0.818383 15.6881 1.06342C15.6681 1.68417 15.6181 2.9665 15.4281 4.55104C14.8381 9.59056 12.9281 17.742 6.72809 17.742C0.528087 17.742 -0.131912 9.72124 0.0180881 4.67356C0.0780881 2.99916 0.218087 1.65149 0.298087 1.03074C0.328087 0.80204 0.528087 0.63051 0.798087 0.589671C2.61809 0.328302 9.53809 -0.545656 15.2081 0.556993H15.2181Z" fill="#E3F7FC"/>
<path d="M15.4381 4.54919C15.3081 5.66001 15.1081 6.91785 14.8181 8.20836C14.8181 8.20836 14.8148 8.2138 14.8081 8.22469C13.7881 12.7905 11.5581 17.7401 6.73811 17.7401C1.91811 17.7401 0.52811 13.0845 0.13811 8.6249C-0.00189018 7.23638 -0.0118908 5.87238 0.0281092 4.66355C0.138109 5.61918 1.08811 12.0962 6.82811 12.0962C13.0281 12.0962 15.4281 4.54102 15.4281 4.54102H15.4381V4.54919Z" fill="#CBEDFA"/>
<path d="M14.8081 8.22497C14.5481 9.4093 14.1981 10.6181 13.7581 11.7535C13.7481 11.7535 13.7581 11.7616 13.7581 11.7616C12.4681 15.0205 10.3181 17.7404 6.73807 17.7404C2.96807 17.7404 1.23807 14.7183 0.518074 11.2062C0.508074 11.1654 0.498074 11.149 0.498074 11.149C0.328074 10.3159 0.208071 9.46647 0.148071 8.62519C0.628071 9.88302 2.44807 13.9342 6.28807 13.9342C10.8381 13.9342 13.6881 10.7161 14.8181 8.2168L14.8081 8.22497Z" fill="#9FDAED"/>
<path d="M13.7581 11.7624C12.4681 15.0214 10.3181 17.7412 6.73806 17.7412C2.96806 17.7412 1.23807 14.7192 0.518066 11.207C0.708066 11.7379 2.44806 16.0097 6.82806 16.0097C10.7581 16.0097 13.1081 12.7916 13.7581 11.7706V11.7624Z" fill="#A5DFF2"/>
<path d="M2.56809 1.78002C3.94809 1.59216 9.19809 0.971419 13.5681 1.76369C13.7581 1.79636 13.8881 1.95155 13.8481 2.1149C13.5681 3.25022 12.2681 7.37495 7.92809 7.37495C3.58809 7.37495 2.48809 3.25022 2.26809 2.1149C2.23809 1.95155 2.36809 1.80452 2.56809 1.78002Z" fill="#F0FCFF"/>
<path d="M4.34803 2.05937C5.33803 2.01036 9.10803 1.84701 12.248 2.05937C12.388 2.06754 12.478 2.10837 12.448 2.1492C12.248 2.45141 11.318 3.53774 8.19803 3.53774C5.07803 3.53774 4.29803 2.45141 4.13803 2.1492C4.11803 2.10837 4.20803 2.06754 4.34803 2.05937Z" fill="white"/>
</svg>
