<svg xmlns="http://www.w3.org/2000/svg" width="421.333" height="421.333" viewBox="0 0 341 341"><path d="M242.741 36.868c-6.536 3.44-13.415 15.71-13.415 23.965v3.096l-5.504-2.752c-7.453-3.67-19.837-4.701-25.685-2.293-17.887 7.453-6.42 36.692 20.066 51.14 4.816 2.751 8.83 5.274 8.83 5.732s-2.523 2.523-5.62 4.472c-3.095 2.064-8.714 6.994-12.497 11.008-5.39 5.733-7.683 9.402-10.435 16.626-6.765 17.658-5.733 34.743 4.472 74.416 7.224 27.634 13.76 44.03 23.85 59.051 11.008 16.512 20.983 21.786 33.023 17.658 2.752-1.032 5.733-1.261 7.682-.688 1.835.459 2.867.459 2.408-.23-.344-.572-1.376-1.031-2.293-1.031s-1.605-.573-1.605-1.261 1.032-.918 2.637-.46c1.72.46 2.064.345.917-.343-1.147-.917-.917-1.49 1.147-2.981 1.49-1.032 2.637-2.294 2.522-2.752 0-.459.803-2.064 2.064-3.67 1.147-1.605 2.179-2.293 2.179-1.49 0 .688-.803 2.064-1.72 3.096-1.605 1.49-1.49 1.835.802 3.44 1.376 1.032 3.326 1.834 4.358 1.834 1.032-.114.688-.688-1.147-1.834-2.293-1.376-2.408-1.605-.573-1.261 1.261.344 3.325.917 4.586 1.376 1.835.688 1.835.344-.573-1.491-2.293-1.95-2.523-2.637-1.261-4.128 1.376-1.605 1.834-1.605 4.93 0 1.95 1.032 3.096 1.261 2.752.573-.459-.688-3.096-2.178-5.962-3.44l-5.046-2.293 2.523-5.16c2.408-5.045 6.192-7.567 4.816-3.325-.574 1.605-.459 1.72.458.459.574-.803 1.606-1.261 2.294-.803.688.344 1.49.23 1.95-.458.343-.574-.116-1.147-1.148-1.147s-1.49-.573-1.146-1.147c.459-.688 1.72-.917 2.866-.573 1.262.344 2.294-.115 2.752-1.261s1.491-1.606 2.982-1.262c3.325.803 2.866-.917-.574-2.407-3.669-1.72-5.16-1.72-2.866-.115 1.49 1.032 1.49 1.146 0 .688-.918-.23-1.606-1.147-1.376-1.835.114-.688-.918-1.261-2.294-1.376-1.49 0-1.949-.344-1.146-.688.688-.23 1.146-1.032.688-1.605-.344-.573.458-1.032 1.72-1.032 1.376 0 2.293.573 2.178 1.261-.229.688.344 1.49 1.147 1.606.802.229.917.114.23-.23-1.835-.802-.116-2.637 1.834-1.834 1.032.344 1.376 1.376 1.032 2.752-.459 1.26-.23 2.178.458 2.178s1.147-.688 1.033-1.49c-.23-.803.573-1.262 1.834-1.032 2.064.344 2.064.344.23-1.491-1.033-1.147-3.096-2.064-4.587-2.179-1.605 0-2.523-.688-2.179-1.605.344-.803-.344-1.376-1.49-1.49-1.376 0-.918-.46 1.146-1.033 1.95-.688 4.128-.573 5.39 0 1.146.688 2.407 1.147 2.98 1.147.46-.115-.573-.917-2.407-1.835-2.523-1.49-2.981-2.063-1.72-2.866 1.032-.688 1.146-1.032.23-1.032-.689 0-1.72.459-2.065 1.146-.344.574-1.376 1.147-2.064 1.032-1.032 0-1.032-.229.115-.688.688-.229 1.376-1.26 1.376-2.178 0-1.032-.573-1.376-1.376-.917s-1.147.458-.688-.115c.459-.459.23-1.72-.573-2.752-.688-.917.229-.573 2.293.803 4.816 3.325 5.848 3.21 1.835-.344-2.752-2.408-2.982-2.752-1.032-2.867 2.293 0 2.293 0 0-1.72q-2.064-1.548-.688-1.72c1.032 0 1.26-.802.802-2.293-.458-1.261-.23-2.293.459-2.293s.803-.918.459-1.95c-.574-1.49-.344-1.72 1.376-1.032 2.064.688 2.064.688.344-1.261-2.294-2.408-.688-6.421 1.949-5.275 1.261.46 1.49.115 1.032-1.26-.573-1.377-.23-1.72 1.147-1.147 1.032.344 1.834.114 1.834-.574s-.802-1.261-1.95-1.261c-1.031 0-1.49-.344-1.146-.803.459-.344.23-1.376-.458-2.293-1.032-1.147-.688-1.49 1.949-1.605h3.325l-2.867-1.262c-2.751-1.146-2.751-1.146-.573-2.063 1.261-.574 1.605-1.032.917-1.032-.802-.115-1.49-.688-1.49-1.262 0-.688 1.376-.917 3.21-.573 2.638.573 2.752.459.688-.459-3.783-1.605-4.471-3.554-1.376-3.669 1.95-.115 2.064-.344.688-.688-2.178-.573-2.866-3.784-.802-3.784.573 0 .802-.573.459-1.146-.344-.688.229-1.147 1.376-1.262 1.834 0 1.834-.114-.23-1.032-1.261-.573-1.72-1.032-1.032-1.032.688-.114 1.376-1.376 1.376-2.981 0-3.898.688-4.472 3.555-2.867 1.376.688 2.408.803 2.408.115 0-.573-1.376-1.376-3.096-1.834l-3.21-.918 2.866-.802 2.866-.918-2.752-.114c-2.063-.115-2.522-.46-1.605-1.376.803-.803 2.523-.688 5.619.688 4.93 2.064 4.128.688-1.262-2.294l-3.44-1.949 3.44.803c3.326.688 3.44.688.918-1.032-1.376-1.032-3.326-1.491-4.243-1.147-1.376.573-1.72.23-1.146-1.147.917-2.293.917-2.293 5.389-.114l3.669 1.834-2.752-2.408c-1.49-1.26-3.325-2.293-4.243-2.293s-1.605-.573-1.605-1.261c0-.573.459-.917 1.032-.573 1.72 1.032 7.568 3.44 8.715 3.554.688 0 1.834.459 2.637.917.802.574 1.376.459 1.376-.229s-2.294-1.835-5.16-2.523-5.504-1.72-5.848-2.293c-.917-1.49 1.376-1.261 5.848.573 2.293 1.032 4.013 1.262 4.013.574 0-.574-1.49-1.376-3.44-1.72-1.834-.459-3.096-1.147-2.866-1.605.344-.574 1.72-.688 3.21-.46 1.376.23.459-.458-2.064-1.72-3.096-1.375-5.045-1.719-5.962-.916-1.376 1.032-2.064-.115-1.605-2.867.458-3.325-4.472-16.511-8.485-22.818-5.619-8.714-18.117-22.36-21.328-23.391-2.637-.917-2.866-2.408-.23-3.325 1.148-.459 2.982.229 4.702 1.834l2.867 2.638-1.835-2.867c-2.522-3.67-2.408-4.93.344-4.243 1.261.344 2.064.115 1.72-.344-.344-.573.917-1.605 2.867-2.522 1.834-.803 3.44-1.95 3.44-2.523 0-.458 1.032-.688 2.293-.344s1.95.115 1.605-.458c-.344-.688 1.605-3.096 4.357-5.504s5.733-5.733 6.536-7.453c.917-1.606 2.408-2.982 3.44-3.096 1.032 0 1.261-.344.573-.574-.917-.344-.802-1.949.344-5.389 2.638-7.338 2.408-16.167-.344-19.951-4.815-6.536-16.511-7.568-29.468-2.637-3.21 1.261-6.306 2.293-6.765 2.293-.573 0-.917-1.834-.917-4.013 0-8.37-7.797-19.378-16.282-22.818-5.619-2.408-9.747-2.179-15.021.573m12.154 13.416c5.848 6.077 5.39 19.837-1.147 30.959l-2.98 5.045-2.065-3.784c-7.797-14.791-8.37-24.194-1.949-31.418 1.835-2.178 3.784-4.013 4.243-4.013s2.178 1.49 3.898 3.21M217.631 73.56c10.549 5.16 20.983 18.346 23.85 30.271l.802 3.44-2.752-2.064c-1.49-1.032-7.224-4.242-12.842-7.109-11.81-6.077-18.69-11.925-21.557-18.346-3.325-7.338-2.98-8.6 2.638-8.6 2.637 0 7.109 1.147 9.86 2.408m80.494.46c0 2.866-7.338 13.3-11.696 16.855-6.306 5.16-12.727 8.943-14.906 8.943-.917 0-3.67 1.835-5.962 4.013-2.408 2.179-4.816 4.014-5.39 4.014-1.949 0-1.031-4.702 2.523-11.81 6.65-13.646 20.41-24.08 30.5-23.507 2.752.23 4.93.803 4.93 1.491m-32.105 54.12c9.173 4.473 17.544 13.416 22.704 24.08 3.898 8.256 4.127 9.632 4.127 19.263 0 25.226-13.874 79.003-25.684 99.757-3.325 5.848-10.893 14.333-12.728 14.333-.573 0-1.834-1.72-2.752-3.784-1.605-3.44-1.72-3.44-1.146-.573 1.834 9.517-9.976-2.867-17.2-18.003-4.242-8.714-15.48-41.049-15.48-44.26 0-.573 2.982-1.031 6.766-1.031 10.32 0 13.76-1.032 14.562-4.128 1.262-5.045-1.146-6.192-12.842-6.192-12.384 0-11.81.573-14.906-13.186-1.376-6.192-2.064-13.874-2.179-23.506 0-17.773 2.294-24.538 11.123-33.252 13.3-13.072 30.615-16.741 45.635-9.517m47.012 39.902c.803 1.032.917 1.72.23 1.72-.574 0-1.377-.802-1.835-1.72-.344-.917-.459-1.72-.23-1.72s1.032.803 1.835 1.72M293.193 255.3c-.344.344-1.376.458-2.178.114-.918-.344-.574-.688.688-.688 1.261-.114 1.949.23 1.49.574m-3.096 7.338c0 .573-.229 1.147-.458 1.147-.344 0-.918-.574-1.262-1.147-.344-.688-.114-1.147.46-1.147.687 0 1.26.46 1.26 1.147m2.294 3.44c0 .573-.688.803-1.606.459s-2.637-.115-3.898.573c-1.605.803-2.179.803-2.179-.344 0-.917 1.606-1.49 3.899-1.605 2.064-.115 3.784.344 3.784.917m-10.32 17.314c0 1.605-1.834 1.261-3.325-.573-1.147-1.376-.917-1.49.917-1.032 1.376.344 2.408 1.032 2.408 1.605M91.042 38.932c-5.504 3.899-7.682 6.995-10.09 14.562-1.032 3.096-2.179 6.307-2.408 6.995-.344 1.032-2.179.573-6.536-1.376-4.586-2.179-8.026-2.867-13.989-2.867-7.338 0-8.026.23-11.58 3.784-2.294 2.293-4.128 5.504-4.587 7.912-1.032 5.504 1.835 15.25 6.306 21.327 3.44 4.816 13.645 13.072 22.016 17.888 2.408 1.26 4.357 2.637 4.357 2.98s-3.784 4.473-8.37 9.174c-12.384 12.613-17.888 26.487-16.397 41.278 1.26 12.384 5.274 34.285 8.714 47.585 1.72 6.88 4.587 18.232 6.192 25.226 9.058 38.298 16.397 55.382 27.978 66.046 3.44 3.096 6.65 5.618 7.109 5.618.573 0 3.554 1.491 6.65 3.326 5.504 3.21 5.619 3.21 6.994.917 1.147-1.835 1.147-2.408 0-3.21-2.178-1.262-3.669 0-2.063 1.949 1.72 2.063-.23 2.063-3.096 0-1.147-.918-1.835-2.064-1.262-2.523.459-.459.803-.23.803.688 0 1.147.344 1.147 1.72 0 .917-.803 1.376-1.835 1.032-2.408s.802-.917 2.637-.917c1.95.114 2.408.344 1.147.688-1.835.458-1.72.688.573 2.522 1.49 1.147 3.67 2.408 4.93 2.752 2.294.803 2.294.803.115-.917-1.261-.917-2.752-1.72-3.325-1.72s-.803-.803-.344-1.72c.344-.917-.23-2.178-1.376-2.752-3.899-2.178-.459-2.293 3.784-.114 2.408 1.26 4.472 2.178 4.586 1.949 1.262-1.49 2.752-5.39 2.064-5.16-.458.23-2.178-.573-3.784-1.835l-2.866-2.063 3.096.688c1.605.344 3.898 1.032 5.045 1.49 1.834.688 1.95.573.459-1.032-.918-1.032-1.95-1.834-2.294-1.834-1.72 0-5.733-1.835-5.733-2.638 0-1.376 2.637-1.376 4.013 0 1.72 1.606 6.307 2.638 6.307 1.491 0-.573-2.064-1.72-4.587-2.523s-4.242-1.949-3.784-2.408c.574-.573 3.44.23 6.422 1.606 4.127 2.064 5.045 2.981 4.013 4.013-.918.917-1.032 1.376-.115 1.376.688 0 1.49-.573 1.72-1.261.344-1.032 1.146-1.032 3.096.114 1.49.688 2.408.918 1.95.23-.345-.574-2.18-1.72-4.129-2.523-1.834-.803-3.44-1.835-3.44-2.408s-.458-1.032-1.032-1.032c-2.752 0-7.109-2.408-6.42-3.554.572-.803 1.72-.574 3.554.688 1.49.917 4.128 2.293 5.733 2.866 4.357 1.72 2.293-.802-3.096-3.44-4.472-2.408-5.733-4.93-2.867-6.077.803-.344 2.981.344 4.816 1.606 4.013 2.637 5.045 2.751 5.045.344 0-1.262.574-1.606 2.064-1.032 1.605.573 1.72.458.459-.803s-1.835-1.147-3.21.688c-1.72 2.408-1.835 2.293-1.95-1.95-.115-2.063.459-2.522 2.637-2.293l2.867.344-2.752-1.146c-2.064-.918-2.981-.803-3.67.114-.573.918-1.375.918-2.866 0-2.064-1.146-2.064-1.146 0-1.26 2.293 0 2.293 0 0-1.835-1.835-1.491-1.835-1.72-.115-1.147 1.032.344 2.867 1.032 4.014 1.376 1.72.573 1.72.459-.23-1.147-1.146-.917-2.752-1.949-3.325-2.178-1.376-.459-.23-4.243 1.261-4.243.46 0 1.95.803 3.211 1.72 2.064 1.605 1.95 1.72-1.261 1.147-3.326-.574-3.326-.574-.688.802 2.408 1.262 2.866 1.032 4.93-1.72 1.835-2.522 2.637-2.866 3.899-1.834 1.146.917 1.605.917 1.605 0 0-.688-.573-1.261-1.261-1.261s-1.032-.688-.688-1.606-.574-2.064-2.179-2.866c-3.096-1.376-3.784.344-.802 2.064 1.949 1.032 1.949 1.146.114 1.834-1.146.459-1.834 1.261-1.49 1.72.917 1.605-3.899-.115-5.275-1.835-1.032-1.26-.917-1.605.459-1.605.917 0 1.95.688 2.293 1.376.23.803.917 1.147 1.376.688s-.344-1.834-1.834-3.096c-2.638-2.178-2.638-2.293-.46-2.408 1.835 0 1.95-.229.574-1.146-.917-.574-1.376-1.262-1.032-1.72.344-.344 3.096.688 5.963 2.178 2.98 1.72 5.618 2.408 5.962 1.835.459-.688 0-1.147-.802-1.147s-3.784-1.605-6.65-3.44c-5.505-3.669-5.505-4.586 0-1.72 5.847 2.982 9.172 4.014 9.172 2.867 0-.688-1.032-1.146-2.293-1.146s-2.293-.459-2.293-.918c0-1.146-5.734-4.242-7.224-3.898-.459.115-.803-.23-.803-.917 0-.574.803-1.147 1.72-1.147s1.72-.573 1.72-1.147c0-.688-.573-1.146-1.376-1.146-.688 0-1.032-.344-.688-.688.459-.344 2.293.23 4.357 1.261 3.44 1.72 3.784 1.72 5.16-.115 1.261-1.834 1.032-2.293-1.605-3.669-1.606-.802-3.44-1.95-4.128-2.637-1.72-1.72 1.49-1.261 5.503.803 2.408 1.376 3.67 1.49 4.014.573.229-.688 1.261-1.261 2.293-1.261 1.72-.115 1.605-.344-.23-1.72-1.26-.918-3.095-1.606-4.013-1.606-1.376.115-1.26.344.23.688 1.146.344 1.95 1.032 1.72 1.72-.459 1.376-.574 1.376-5.16-.344-4.013-1.376-5.39-4.013-1.49-2.752 1.26.46 2.293.23 2.293-.458s-.803-1.262-1.72-1.262-1.72-.573-1.72-1.26 1.032-.918 2.293-.46c1.376.46 2.981 0 4.013-1.032 1.49-1.49 1.49-1.72-.688-2.408l-2.293-.802 2.408-2.064c1.376-1.261 2.179-2.752 1.72-3.325-.344-.688 0-1.262.917-1.262s2.293-.688 2.981-1.605c1.147-1.261.918-1.834-.802-2.293-1.262-.459-3.21-1.835-4.357-3.21-2.18-2.409-2.18-2.409.458-1.033 2.064 1.147 2.981 1.032 5.16-.573 2.523-1.835 2.523-1.835-.917-1.147-1.835.46-2.867.344-2.064-.114.688-.574 1.49-1.72 1.72-2.638s1.261-2.637 2.408-3.898c1.949-2.293 2.752-4.701 1.146-3.784-.573.344-1.605-.115-2.293-1.032-.917-.917-1.032-1.72-.344-2.179.688-.344 1.147-.114 1.147.574s.573.917 1.26.458c.918-.458.803-1.032-.228-1.72-1.147-.687-1.032-1.375.917-3.095 2.522-2.064 2.522-2.179.23-3.67-2.982-2.178-2.753-3.783.458-2.866 1.72.459 2.064.459.917-.344-.802-.573-1.261-1.605-.802-2.293.344-.688.114-1.376-.574-1.606-1.49-.458 0-4.472 1.72-4.242 2.179.23 6.421-1.49 6.421-2.637 0-.688-.917-.803-1.95-.344-3.095 1.26-4.815 1.26-4.815 0 0-.688 1.147-1.032 2.523-.803 2.522.344 2.522.23.229-1.49-3.096-2.409-3.325-6.192-.344-5.39 1.147.23 2.408 1.032 2.752 1.606.459.688-.23.917-1.72.344-1.376-.46-2.408-.23-2.408.458s.803 1.262 1.72 1.262 1.72.458 1.72 1.146c0 .573.573 1.147 1.147 1.147.688 0 1.146-1.49 1.146-3.21 0-2.294-.802-3.785-2.522-4.702l-2.638-1.261 2.752.688c2.294.573 2.637.344 2.064-1.262-.459-1.032-.802-2.637-.802-3.554 0-1.032-.574-1.376-1.376-.917-1.147.573-1.147.458-.115-.688s.802-2.638-1.376-6.995c-1.605-2.981-3.44-5.848-4.128-6.192-.688-.458-.344.918.688 2.982l1.95 3.898-2.982-3.44c-1.605-1.95-3.44-4.013-4.013-4.701-.688-.803-1.95-3.21-2.867-5.504-2.752-6.536-11.58-19.607-16.053-23.735-2.752-2.408-3.784-4.128-3.096-4.816 1.147-1.146 5.734 3.096 5.848 5.16 0 1.72 1.72.917 3.326-1.72 1.49-2.293 1.49-2.408-.345-.917-2.293 1.95-4.357.458-4.93-3.555-.344-2.293-.23-2.293 1.605-.688s2.294 1.606 3.67.115c1.26-1.376 1.146-1.605-.46-1.261-1.146.229-2.293-.344-2.522-1.147-.688-1.72 1.376-1.835 4.587 0 2.293 1.147 2.408 1.147.917-.688-2.408-2.867.115-5.274 3.325-3.21 2.179 1.26 2.179 1.26.918-.803-1.147-1.95-.918-2.637 1.72-5.16 3.44-3.21 5.389-3.784 5.389-1.605 0 .688.344.917.688.573.458-.459.229-1.49-.574-2.293-1.032-1.262-.917-1.95.23-2.981.917-.688 2.063-.803 2.522-.344.573.458.573.114.115-.688-.573-.803-.23-2.408.802-3.44 5.963-6.995 4.358-20.984-3.095-25.8-6.65-4.357-21.672-3.21-28.093 2.18-4.242 3.554-4.701 3.44-4.701-.689 0-8.485-6.994-20.066-14.562-23.964-4.357-2.294-9.976-1.49-14.792 2.064m13.416 16.855c1.949 4.242 2.293 6.306 1.72 11.696-1.147 9.058-4.128 21.556-5.848 23.964-1.376 1.72-1.605 1.376-2.867-3.096-.688-2.866-2.293-8.256-3.554-11.925-3.44-10.778-2.408-19.722 2.866-24.996 2.638-2.752 4.816-1.49 7.683 4.357M67.994 72.299c6.536 4.128 14.791 15.136 17.543 23.277 1.032 3.21 2.179 6.765 2.523 7.682s-1.835-.573-4.701-3.325-9.173-7.682-14.104-10.893c-9.631-6.306-14.218-11.696-14.218-16.855 0-2.982.344-3.326 3.784-3.326 2.179 0 5.962 1.376 9.173 3.44m76.365-.344c0 1.147-.344 1.491-.573.688-.344-.802-1.261-1.146-2.179-.802-1.949.802-11.007 11.58-11.351 13.53-.459 2.981-4.013 7.11-10.778 12.498-3.784 2.981-7.224 4.93-7.568 4.472-.344-.573 1.376-5.16 3.784-10.09 6.536-13.301 16.511-22.245 25.11-22.245 2.753 0 3.67.459 3.555 1.95m-1.146 4.7c-.115 1.72-.23 1.72-.688-.114-.23-1.032-1.032-1.605-1.72-1.261-.803.458-.917.229-.459-.574 1.147-1.72 2.981-.458 2.867 1.95m-7.339 4.815c-4.013 4.128-4.471 6.65-.573 3.096.917-.688.688-.229-.573 1.262-1.606 1.949-2.408 2.178-2.981 1.146-.574-.917.573-2.981 3.21-5.733 2.408-2.408 4.472-4.357 4.816-4.357s-1.49 2.064-3.899 4.586m5.16-1.834c0 .23-.917 1.146-1.95 1.95-1.834 1.49-1.948 1.375-.458-.46s2.408-2.408 2.408-1.49m-28.092 41.966c2.637 1.262 6.192 3.784 8.026 5.733l3.325 3.44h-4.357c-3.784 0-4.242.344-3.554 1.95 5.389 12.383 6.535 26.372 3.898 45.865-1.72 12.727-8.714 50.337-10.549 56.528l-1.49 5.16H81.067l-1.606-4.586c-1.949-5.848-3.669-16.626-2.866-18.69.458-1.262 2.178-1.49 7.567-1.032 8.027.802 16.627-.574 18.002-2.752 1.606-2.637 1.147-7.568-.917-9.173-1.261-1.147-5.733-1.605-14.906-1.72-7.224-.115-13.645-.688-14.103-1.147-1.262-1.26-4.587-13.874-4.587-17.314 0-2.522.344-2.637 11.237-2.637 15.594 0 16.282-.344 16.282-6.306 0-3.44-.573-5.16-1.834-5.619-1.032-.344-7.912-.688-15.365-.688H64.44l-.689-7.224c-.802-7.797.574-17.2 3.326-22.703 2.293-4.357 8.943-11.81 13.53-15.02 8.026-5.734 22.818-6.651 32.335-2.065m41.852 40.132c0 .574-.574 1.147-1.262 1.147-.573 0-.802-.573-.458-1.147.344-.688.917-1.146 1.261-1.146.23 0 .459.459.459 1.146m1.146 6.88c0 .574-.802.803-1.72.459-.917-.459-1.72-.917-1.72-1.147s.803-.458 1.72-.458 1.72.458 1.72 1.146m0 3.21c0 .574-.917 2.18-2.178 3.555-2.064 2.408-2.179 2.408-2.752.115-.344-1.147-.23-2.179.23-2.064 2.178.23 3.554-.344 2.98-1.376-.344-.688-.114-1.146.459-1.146.688 0 1.261.458 1.261.917m-2.293 8.829c-.803.917-1.835 1.72-2.408 1.72s-.688-.803-.344-1.72c.459-.917 1.49-1.72 2.408-1.72 1.49 0 1.49.344.344 1.72m-.23 5.16c-1.26 2.064-1.26 2.522.46 3.554 1.834 1.032 1.72 1.376-1.033 4.472-1.605 1.95-3.325 3.21-3.669 2.752-.344-.344.115-1.147 1.032-1.72 1.262-.917 1.376-1.376.344-1.835-2.064-.802-1.834-2.752.23-1.949.917.459 1.72.115 1.72-.573s-.803-1.262-1.72-1.262c-2.064 0-1.032-3.325 1.605-5.389 2.522-1.834 2.866-1.032 1.032 1.95m.23 16.167c0 .459-.803 1.147-1.835 1.49s-1.376.23-1.032-.458c.458-.688-.46-2.179-1.95-3.44l-2.637-2.293 3.67 1.949c2.063 1.147 3.783 2.408 3.783 2.752m-4.93 14.447c2.637 1.835 2.752 1.95.802 2.752-3.21 1.262-5.045 1.147-5.045-.229 0-.688.803-1.032 1.72-.573.917.344 1.72.114 1.72-.459 0-.688-.803-1.147-1.72-1.147s-1.72-.573-1.72-1.146c0-1.605.803-1.49 4.243.802m-2.867 4.93c.803 0 .344.918-.917 2.18-1.147 1.146-2.638 1.834-3.211 1.49-.459-.23-.23-.917.573-1.49 1.262-.688 1.262-1.262.115-2.408-.688-.688-1.376-1.835-1.376-2.408s.803-.115 1.835.802c.917 1.032 2.293 1.835 2.98 1.835m-1.49 7.338c1.147 1.376.917 1.49-.917 1.032-1.376-.344-2.408-1.032-2.408-1.605 0-1.605 1.835-1.261 3.325.573m-3.44 12.843c2.064 1.032 3.44 2.063 3.096 2.407-.802.803-7.568-2.293-7.568-3.325 0-1.261.23-1.146 4.472.918m-34.972 14.447c-1.834 13.989-5.848 26.143-8.37 26.143-3.44 0-12.842-23.735-11.237-27.978.573-1.26 2.981-1.834 9.631-2.178 4.931-.115 9.288-.459 9.861-.573.46-.115.574 1.949.115 4.586m25.914 20.41c.917.573 1.261 1.376.803 1.835s-1.72 0-2.752-1.032c-2.064-2.064-.918-2.638 1.949-.803m-8.026 24.08c0 2.178-1.835 1.834-4.587-.803l-2.867-2.752 3.784 1.376c1.95.688 3.67 1.72 3.67 2.178" fill="current" /></svg>
