<svg width="19" height="44" viewBox="0 0 19 44" fill="none" xmlns="http://www.w3.org/2000/svg">
<path d="M0.431315 0C0.431315 0 4.26701 4.4227 7.62329 4.80664C11.0768 5.2017 15.9013 1.53554 15.9013 1.53554C15.9013 1.53554 15.0913 8.00442 14.2313 13.3298C13.3713 18.6552 15.1913 28.7751 16.7313 32.8589C18.2713 36.9347 19.4213 43.5996 16.7313 43.134C14.0413 42.6603 5.78132 32.859 2.23132 20.1581C-1.31868 7.45719 0.431315 0 0.431315 0Z" fill="#DC6F2F"/>
<path d="M15.7113 40.9936C13.0113 38.6331 10.9413 35.8479 9.03134 33.0219C7.15134 30.1795 5.62135 27.1737 4.37135 24.0945C3.76135 22.5508 3.21135 20.9908 2.77135 19.4062C2.34135 17.8217 2.02135 16.2126 1.76135 14.6036C1.26135 11.3855 1.07135 8.13468 1.02135 4.90842L1.00134 3.42188L2.27135 4.5082C2.90135 5.04728 3.83135 5.46382 4.77135 5.72519C5.73135 5.99473 6.74134 6.12542 7.75134 6.11725C8.76134 6.10092 9.81135 5.9539 10.8214 5.73337C11.8314 5.51284 12.8413 5.21063 13.6913 4.81041L14.9314 4.22233L14.7614 5.37398C14.3114 8.32255 13.7914 11.3283 13.4014 14.2278C13.1614 17.1437 13.3013 20.125 13.6313 23.0735C13.9613 26.0303 14.4913 28.9707 15.2413 31.8702C16.1213 34.729 17.1314 37.6775 17.1514 40.6669C16.8414 37.6775 15.7213 34.8515 14.6313 31.9927C13.6613 29.0932 13.0813 26.1365 12.6113 23.1634C12.3813 21.6769 12.2113 20.1822 12.1113 18.6793C12.0013 17.1764 11.9613 15.6735 12.1013 14.1543C12.4613 11.1241 12.9413 8.22454 13.3513 5.25147L14.4213 5.80687C13.3713 6.31328 12.3013 6.63183 11.1913 6.88503C10.0813 7.13823 8.95135 7.30975 7.76135 7.34242C6.57135 7.36692 5.38135 7.21174 4.26135 6.88503C3.15135 6.55015 2.08135 6.09275 1.18135 5.32498L2.43135 4.92474C2.43135 8.13468 2.59135 11.3283 3.04135 14.4974C3.50135 17.6665 4.26134 20.7947 5.36134 23.8577C6.47134 26.9206 7.90135 29.91 9.60135 32.7932C11.3013 35.6764 13.2313 38.4943 15.6913 41.01L15.7113 40.9936Z" fill="#D25F2A"/>
<path d="M14.6913 38.74C11.6713 35.0073 7.40127 27.836 5.28127 20.2236C4.05127 15.7722 3.78128 10.5366 3.56128 7.53906C4.54128 8.05363 5.74127 8.50285 7.43127 8.50285C8.94127 8.50285 11.0813 7.92295 12.2313 7.53906C12.0113 8.99293 11.6713 11.5494 11.4413 12.9788C10.5013 18.7697 13.2413 30.0903 14.9013 34.509C15.3713 35.7342 16.1813 40.9126 14.6913 38.74Z" fill="#E28348"/>
<path d="M14.5913 36.927C14.0613 37.3681 8.18129 27.4034 6.68129 20.3791C5.89129 16.6383 5.15129 13.2977 4.95129 9.54051C6.84129 10.5288 8.61128 10.1531 10.5813 9.41797C10.4413 10.7003 10.2213 13.2732 10.1713 14.5065C9.81128 23.4502 12.8313 29.5842 14.1713 34.2643C14.3913 35.0076 14.9013 36.78 14.5913 36.9352V36.927Z" fill="#F5AA72"/>
<path d="M10.9414 28.5966C9.82138 28.5966 5.82138 17.9214 6.69138 12.3264C6.69138 12.3264 7.98139 11.5832 8.76139 12.3264C8.16139 20.6004 12.0514 28.5966 10.9314 28.5966H10.9414Z" fill="#F7BE94"/>
</svg>
