<svg width="28" height="36" viewBox="0 0 28 36" fill="none" xmlns="http://www.w3.org/2000/svg">
<path d="M0 33.6699C0 33.6699 0.920342 33.9223 1.35034 28.7322C1.79034 23.5494 6.35034 13.4255 10.2503 7.88399C14.1503 2.34252 15.9003 -1.28103 17.3503 0.424601C18.8103 2.13023 16.3303 8.73314 17.3503 11.3977C17.3503 11.3977 19.3903 10.1167 19.8203 7.88399C20.2603 5.64398 20.8403 2.75245 21.7103 3.4552C22.5803 4.15794 28.5503 13.323 27.5303 17.3711C26.5103 21.4192 23.9203 29.8888 24.8503 34.5519C24.8503 34.5519 25.0569 34.3793 21.5 34.1699C17.4614 33.9322 14.5246 35.8711 10 35.6699C6.02135 35.493 0 33.6699 0 33.6699Z" fill="#DC6F2F"/>
<path d="M2.70601 34.3983L0.755371 33.8897C1.30413 33.114 1.74578 32.2945 2.07017 31.4424C2.33017 30.7763 2.52018 30.0882 2.64018 29.3928C2.75018 28.7266 2.83017 27.9141 3.01017 27.1894C3.67017 24.2393 4.72016 21.3844 5.90016 18.566C7.10016 15.7477 8.47016 12.9733 10.1502 10.2941C10.9902 8.94716 11.9702 7.65877 12.8902 6.36308C13.3302 5.71157 13.8802 5.07471 14.2302 4.40857C14.6002 3.72778 14.9002 3.03235 15.3302 2.35156L15.5102 2.41744C15.1302 3.07627 14.8502 3.79367 14.5002 4.48177C14.1502 5.19184 13.6702 5.82139 13.2602 6.49486C12.4102 7.83447 11.5302 9.13748 10.7902 10.4917C9.33017 13.2076 8.14018 16.0039 7.08018 18.8149C6.06018 21.6332 5.14016 24.4882 4.69016 27.3504C4.56016 28.0824 4.55016 28.7339 4.47016 29.5245C4.39016 30.2858 4.23017 31.0545 3.98017 31.8011C3.68352 32.6915 3.26368 33.5689 2.70601 34.3983Z" fill="#D25F2A"/>
<path d="M22.2503 7.80418C23.2403 9.42197 24.1503 11.069 24.8703 12.7747C25.2203 13.6311 25.5303 14.4949 25.7103 15.4027C25.8003 15.8492 25.8403 16.3177 25.8103 16.7935C25.7603 17.2913 25.6303 17.6866 25.5403 18.1405C24.7203 21.6323 23.8803 25.1167 23.4903 28.6085C23.3003 30.3507 23.2303 32.1076 23.4703 33.7913C23.4874 33.9722 23.5262 34.1479 23.5559 34.3227C23.5515 34.2925 23.561 34.353 23.5559 34.3227L21.5217 34.1699C21.5317 34.2797 21.5217 34.1114 21.5217 34.1699C21.5094 34.0784 21.4983 33.9867 21.4903 33.8938C21.3803 32.049 21.5903 30.2483 21.8903 28.4767C22.4903 24.9264 23.5403 21.4492 24.5503 17.9941C24.6603 17.5768 24.8403 17.1083 24.9103 16.7203C24.9703 16.3177 24.9703 15.8858 24.9103 15.4612C24.8103 14.6048 24.5703 13.741 24.2903 12.8918C23.7103 11.1862 22.9303 9.50982 22.0703 7.85543L22.2503 7.79688V7.80418Z" fill="#D25F2A"/>
<path d="M12.5982 35.5591C12.5982 35.5591 12 35.6699 10.5857 35.6699C10.5853 34.8017 10.6845 33.9191 10.96 33.015C11.32 31.9682 11.89 31.3167 12.27 30.4822C12.69 29.6843 13.08 28.8717 13.42 28.0372C14.78 24.7211 15.59 21.2586 15.99 17.7888C16.09 16.9177 16.16 16.0466 16.18 15.1828C16.18 14.7509 16.18 14.319 16.14 13.8871C16.1 13.4479 16.06 13.0013 16.04 12.5548C15.98 10.7833 16.11 9.01908 16.38 7.26953L16.58 7.28416C16.45 9.03372 16.47 10.7979 16.66 12.5328C16.71 12.9647 16.78 13.3966 16.86 13.8285C16.94 14.2751 16.99 14.7216 17.02 15.1681C17.07 16.0539 17.09 16.947 17.04 17.8327C16.87 21.3758 16.25 24.9041 15.12 28.3813C14.83 29.2524 14.53 30.1162 14.14 30.9727C13.79 31.8145 13.2 32.7295 12.96 33.381C12.7178 34.0575 12.6285 34.8047 12.5982 35.5591C12.6003 35.4725 12.5947 35.6456 12.5982 35.5591Z" fill="#D25F2A"/>
<path d="M5.38034 32.2602C5.38034 32.2602 8.42036 34.0244 9.24036 33.6291C10.0504 33.2338 11.0903 30.9791 11.6003 29.6834C12.1103 28.3878 15.2203 19.7352 14.8103 15.731C14.1203 8.90843 17.1503 4.24539 16.2103 3.39623C15.2703 2.54708 7.24033 20.5624 6.43033 25.4596C5.62033 30.3569 4.20034 31.821 5.38034 32.2602Z" fill="#E28348"/>
<path d="M14.6803 32.4224C14.6803 32.4224 14.0603 33.396 15.4203 33.1252C16.7803 32.8543 19.1803 32.9861 19.7603 32.7958C20.9103 32.4225 20.4503 29.2381 20.9503 27.6789C21.4503 26.1124 24.5703 17.7013 23.8403 15.0514C23.1103 12.4014 21.7803 9.64898 21.3703 9.45133C20.9603 9.25368 19.5403 12.0647 18.7103 12.9065C17.8903 13.7483 18.5403 19.202 18.4803 20.6587C18.3803 23.0012 16.2803 29.7139 14.6803 32.4298V32.4224Z" fill="#E28348"/>
<path d="M6.44019 30.1151C6.44019 30.1151 8.6202 31.7988 9.3302 31.4035C10.0402 31.0082 11.6002 26.1329 12.2602 22.7143C12.9202 19.3031 12.9902 15.9577 13.3502 13.5859C13.7102 11.2141 16.0502 5.28466 15.4302 5.17486C14.8102 5.06505 11.1902 13.7689 10.2602 17.3266C9.85019 18.8931 8.8702 20.6719 8.1102 22.9998C7.1302 25.9645 6.4002 29.427 6.4502 30.1151H6.44019Z" fill="#F5AA72"/>
<path d="M19.3703 15.1387C19.3703 15.1387 19.2402 14.3408 19.9602 13.0232C20.6702 11.7055 20.8803 11.0028 21.2203 11.2443C21.5503 11.4859 22.9803 14.7654 22.9403 16.7638C22.9003 18.755 19.9703 27.371 19.7203 28.9595C19.4703 30.5553 19.8003 30.709 18.7603 30.7676C17.7103 30.8262 16.5403 31.1995 16.6403 30.7676C16.7503 30.3357 18.9203 24.333 19.0103 23.0007C19.0903 21.6684 19.1603 16.4564 19.3903 15.1387H19.3703Z" fill="#F5AA72"/>
<path d="M13.1504 11.2879C12.6204 12.8032 12.1604 14.3331 11.7704 15.8704C11.3604 17.4077 11.0604 18.9303 10.9804 20.5042C10.8004 22.0853 10.5304 23.6446 10.0504 25.1818C9.55042 26.7118 9.02041 28.2344 8.26041 29.7131C8.26041 29.7351 8.22041 29.7424 8.20041 29.7351C8.18041 29.7351 8.17041 29.7131 8.17041 29.6985C8.38041 28.1246 8.76041 26.5873 9.08041 25.0501C9.42041 23.5128 9.9104 21.9902 10.1904 20.4529C10.3704 18.901 10.7904 17.3198 11.2904 15.8045C11.8104 14.2819 12.4004 12.7739 13.0604 11.2806C13.0604 11.2586 13.1004 11.2513 13.1204 11.2586C13.1504 11.2586 13.1604 11.2879 13.1504 11.3025V11.2879Z" fill="#F7BE94"/>
<path d="M20.6702 14.8891C20.9302 16.1482 20.9602 17.4073 20.9202 18.6664C20.8702 19.9255 20.6202 21.1699 20.3602 22.4217C20.1002 23.6661 19.7802 24.9033 19.4202 26.1258L18.8302 27.9558L18.5102 28.8709L18.3502 29.3247L18.2602 29.5517L18.2202 29.6615L18.2002 29.72V29.7493L18.1802 29.7639V29.7859C18.1102 29.8298 18.0602 29.742 18.0902 29.7713C18.0902 29.7493 18.1102 29.7347 18.1402 29.7347C18.1702 29.7347 18.1902 29.7493 18.1902 29.7713C18.2202 29.7932 18.1702 29.7054 18.1002 29.7493V29.7274V29.6981L18.1302 29.6395L18.1602 29.5224L18.2202 29.2955L18.3402 28.8343L18.5602 27.9119L18.9502 26.0599C19.2102 24.8227 19.4302 23.5856 19.5902 22.3485C19.7402 21.1114 19.7602 19.8596 19.9402 18.6224C20.1202 17.378 20.3002 16.1409 20.5902 14.8964C20.5902 14.8744 20.6202 14.8598 20.6502 14.8671C20.6702 14.8671 20.6902 14.8818 20.6902 14.8964L20.6702 14.8891Z" fill="#F7BE94"/>
</svg>
