<svg width="34" height="35" viewBox="0 0 34 35" fill="none" xmlns="http://www.w3.org/2000/svg">
<path d="M30.9031 0.00817585C30.9031 0.00817585 33.9531 6.89362 33.0131 15.3309C32.0731 23.7682 25.9131 35.6115 24.3531 34.8437C22.7831 34.0759 23.3131 27.1742 22.2631 21.2117C21.2231 15.2492 18.5031 11.5819 16.1031 13.1991C13.7031 14.8163 14.6431 23.5967 16.1031 27.5989C17.5631 31.6011 16.5031 35.5952 14.6331 34.8764C12.7631 34.1576 1.70312 21.7181 0.553122 13.1093C-0.596878 4.50046 0.403128 0 0.403128 0C0.403128 0 5.17441 0.53438 8.24512 0.664062C11.3111 0.793546 13.039 0.49638 16.1031 0.664062C19.4955 0.849706 21.3663 2.01893 24.7451 1.66406C27.2151 1.40465 30.8831 0 30.8831 0L30.9031 0.00817585Z" fill="#DC6F2F"/>
<path d="M30.7331 15.1567C30.1431 20.5474 26.4031 32.1783 25.3931 31.9333C24.0231 31.5984 26.0531 25.7095 25.2931 20.4739C24.3731 14.1929 22.2332 9.6108 16.3132 9.92117C15.3932 9.97018 14.4832 10.2152 13.6832 10.7298C8.13315 14.3318 12.9331 25.4318 13.9131 28.1271C14.4931 29.7198 15.2632 31.8026 14.4632 32.1212C13.6632 32.4397 4.29315 19.6816 3.40315 12.9922C2.87315 9.05537 1.98314 4.53044 3.17314 4.01587C4.35314 3.5013 13.6732 3.86069 16.0932 4.27724C23.6732 5.56775 28.8432 4.52227 29.6232 4.93883C30.4132 5.36355 31.1631 11.13 30.7231 15.1404L30.7331 15.1567Z" fill="#E28348"/>
<path d="M13.9332 30.6202C13.1632 30.9469 7.33317 22.5995 4.77317 14.8074C3.80317 11.8589 3.23317 6.67232 4.34318 5.99439C5.45318 5.31647 10.5932 5.79839 13.8032 5.65953C16.4532 5.54519 16.3432 5.50432 19.3032 5.99439C24.3832 7.24406 27.7032 6.5498 28.6332 7.09704C29.5632 7.64429 29.8332 13.3372 29.4732 16.6452C28.9332 21.5458 26.8232 30.4732 25.7032 30.22C24.9132 29.926 26.9832 23.7348 26.3632 19.5366C25.5532 13.9498 23.0032 8.55091 16.1332 8.91029C15.0132 8.96747 14.0232 9.27784 13.1832 9.82508C7.74317 13.3536 11.6532 23.8001 13.0732 27.5246C13.3932 28.3659 14.4632 30.367 13.9132 30.6202H13.9332Z" fill="#F5AA72"/>
<path d="M24.3132 33.0781C23.6832 29.0922 24.3932 25.0573 23.3732 21.2103C22.9332 19.2664 22.4432 17.3224 21.6332 15.5092C21.2232 14.6107 20.7532 13.7286 20.0832 13.0099C19.4232 12.2993 18.5832 11.7684 17.5932 11.7275C16.6132 11.6213 15.5732 11.9562 14.8132 12.5198C14.0632 13.0507 13.6432 13.9247 13.3932 14.8231C12.9032 16.6527 13.0732 18.6456 13.3232 20.5896C13.6032 22.5417 14.0632 24.4937 14.5932 26.4295C15.0732 28.3653 15.9132 30.301 15.8932 32.3185C15.5732 30.3337 14.6132 28.4959 13.8832 26.5765C13.1732 24.6571 12.5532 22.7132 12.1632 20.7121C11.7732 18.7191 11.5432 16.669 12.0032 14.5699C12.2632 13.5407 12.7432 12.4381 13.8232 11.6213C14.8432 10.8454 16.2732 10.3553 17.7332 10.4942C19.2332 10.5759 20.4832 11.409 21.2532 12.2747C22.0532 13.165 22.5532 14.1288 22.9632 15.109C23.7432 17.0692 24.2032 19.054 24.5232 21.0469C24.9132 23.0399 24.9032 25.1063 24.7232 27.0911C24.5232 29.084 24.3032 31.0606 24.3132 33.0617V33.0781Z" fill="#D25F2A"/>
<path d="M14.2832 33.0864C11.9932 30.9383 10.0132 28.5778 8.15323 26.1683C6.29323 23.7506 4.63322 21.2268 3.29322 18.5723C2.62322 17.2491 2.04322 15.8769 1.60322 14.472C1.39322 13.7696 1.22322 13.0508 1.10322 12.3239C1.00322 11.6133 0.903237 10.8945 0.843237 10.1839C0.603237 7.31705 0.563223 4.46652 0.673223 1.59963L0.703222 0.701172L1.69321 1.14224C2.63321 1.55879 3.81323 1.76297 4.99323 1.88548C6.17323 2.008 7.39322 2.04067 8.60322 2.04067C9.82322 2.04067 11.0432 1.99985 12.2732 1.95084C13.5132 1.90183 14.7032 1.81198 16.0332 1.82015C17.4732 1.91 18.5832 2.20404 19.8132 2.40823C21.0132 2.62876 22.2032 2.82478 23.4032 2.96364C24.5932 3.10249 25.7932 3.16783 26.9532 3.09432C28.1032 3.02081 29.2332 2.78394 30.0932 2.26937L30.9232 1.77115L31.1432 2.5961C31.8032 5.11994 32.4632 7.70911 32.5932 10.3391C32.7632 12.961 32.4432 15.6155 31.7532 18.1639C31.0832 20.7122 30.1632 23.2115 29.1032 25.6537C28.0332 28.0959 26.8732 30.5135 25.4632 32.8414C26.6632 30.44 27.6832 27.9978 28.6032 25.523C29.4932 23.0482 30.2932 20.5488 30.8732 18.025C31.4532 15.5012 31.6632 12.9528 31.4032 10.4045C31.1532 7.86431 30.5432 5.35679 29.8232 2.83295L30.8732 3.1515C29.7232 3.85393 28.3532 4.12346 27.0532 4.2133C25.7432 4.30315 24.4632 4.2378 23.2032 4.10712C21.9432 3.97643 20.7132 3.7804 19.4932 3.56804C18.3032 3.37202 17.0232 3.09432 15.9832 3.03714C13.6232 3.09432 11.0732 3.25768 8.58323 3.22501C7.32323 3.20867 6.06322 3.16784 4.79322 3.02899C3.53322 2.88197 2.23323 2.67776 0.993231 2.12236L2.01322 1.65679C1.87322 4.47467 1.88323 7.31707 2.08323 10.1268C2.17323 11.548 2.29321 12.9283 2.66321 14.2842C3.03321 15.64 3.54321 16.9877 4.16321 18.3027C5.38321 20.9409 6.95322 23.4729 8.63321 25.9478C10.3332 28.4144 12.1932 30.8239 14.2732 33.1027L14.2832 33.0864Z" fill="#D25F2A"/>
<path d="M13.5232 6.99004L10.1432 7.84767C9.58317 7.99469 9.03319 8.14171 8.50319 8.31324C7.98319 8.47659 7.43316 8.66443 7.07316 8.87679L7.37318 8.42757C7.51318 9.76709 7.66317 11.1393 7.76317 12.5033C7.86317 13.8755 8.05316 15.2395 8.32316 16.5953C8.57316 17.9512 8.91317 19.307 9.29317 20.6466C9.65317 21.9942 10.1432 23.3174 10.6532 24.6406L10.5132 24.6814C9.85317 23.4073 9.20318 22.1086 8.68318 20.7854C8.12318 19.4622 7.70318 18.1146 7.31318 16.7505C6.92318 15.3865 6.61317 14.0143 6.33317 12.6258C6.05317 11.2373 5.94318 9.84061 6.05318 8.41125L6.07316 8.08454L6.34318 7.962C6.99318 7.66796 7.57317 7.54546 8.17317 7.41478C8.76317 7.30043 9.35316 7.21058 9.94316 7.1289C11.1232 6.98188 12.3132 6.89205 13.5032 6.85938L13.5232 6.98189V6.99004Z" fill="#F7BE94"/>
<path d="M22.1532 7.52943C23.1032 7.48859 24.0532 7.49676 25.0032 7.55393C25.9632 7.61111 26.8932 7.69279 27.8832 7.96232L28.1232 8.02768L28.1732 8.2727C28.4432 9.71023 28.5432 11.1559 28.5832 12.6016C28.6232 14.0473 28.6332 15.493 28.5832 16.9387C28.5432 18.3844 28.4632 19.8301 28.2332 21.2676C28.0132 22.7052 27.7332 24.1427 27.1432 25.5067L27.0532 25.4822C27.5332 24.1018 27.7132 22.6643 27.8232 21.2349C27.9332 19.8056 27.9532 18.3681 27.9132 16.9305C27.8832 15.493 27.7932 14.0636 27.6432 12.6343C27.4932 11.2049 27.3532 9.77557 27.2632 8.34621L27.5432 8.64841C26.7632 8.37071 25.8232 8.2237 24.9232 8.05218L22.1532 7.60294V7.52128V7.52943Z" fill="#F7BE94"/>
</svg>
