<svg width="12" height="37" viewBox="0 0 12 37" fill="none" xmlns="http://www.w3.org/2000/svg">
<path d="M11.33 0.971967C11.27 1.06998 10.78 36.5753 6.73 36.1832C2.68 35.7912 1.16 17.3892 0.84 14.1139C0.52 10.8386 0 0 0 0C0 0 1.88196 4.1543 5.38196 4.1543C8.88196 4.1543 11.33 0.971967 11.33 0.971967Z" fill="#DC6F2F"/>
<path d="M6.36005 32.7059C5.15005 32.7059 3.57006 24.9792 2.99006 18.7962C2.75006 16.2397 2.14005 9.64018 1.93005 5.66247L2.86005 6.07086C4.67005 6.87947 6.90005 6.85496 8.63005 5.932C8.93005 5.77681 9.09005 5.6543 9.09005 5.6543C9.66005 20.2583 7.57005 32.6896 6.36005 32.6896V32.7059Z" fill="#E28348"/>
<path d="M6.27001 30.5491C4.84001 30.5491 3.57001 12.4493 3.26001 7.81C3.26001 7.81 4.65001 8.32457 5.85001 8.32457C7.05001 8.32457 8.20001 7.59766 8.20001 7.59766C7.95001 17.9707 7.10001 30.5491 6.27001 30.5491Z" fill="#F5AA72"/>
<path d="M6.06999 25.6468C5.58999 22.347 5.03999 17.0216 4.48999 9.12341C4.91999 9.20509 5.38999 9.26225 5.84999 9.26225C6.25999 9.26225 6.64999 9.20508 7.00999 9.11523C6.81999 15.8128 6.43999 21.7998 6.05999 25.6468H6.06999Z" fill="#F7BE94"/>
<path d="M7.77998 33.9287C8.12998 32.6954 8.24998 31.4294 8.40998 30.1715C8.54998 28.9137 8.65998 27.6477 8.74998 26.3898C8.92998 23.866 9.10998 21.3422 9.22998 18.8102C9.46998 13.7543 9.73998 8.69847 9.90998 3.64262L10.79 3.86314C10.2 4.56557 9.45999 5.08014 8.57999 5.4722C7.70999 5.86425 6.70998 6.06028 5.72998 6.06845C4.74998 6.07662 3.73999 5.88876 2.85999 5.50487C1.97999 5.11282 1.23998 4.57375 0.689983 3.84682L1.57999 3.65895C1.57999 6.12562 1.60999 8.60046 1.69999 11.0671C1.79999 13.5338 1.90998 16.0005 2.09998 18.4671C2.28998 20.9338 2.58998 23.3841 2.97998 25.8344C3.39998 28.2766 3.84998 30.7351 4.86998 33.0629C4.23998 31.9358 3.84998 30.727 3.47998 29.5263C3.10998 28.3256 2.82999 27.1004 2.55999 25.8834C2.03999 23.4413 1.69998 20.9746 1.41998 18.508C1.14998 16.0413 0.939987 13.5665 0.829987 11.0916C0.709987 8.61679 0.669986 6.14195 0.629986 3.65895L0.609985 2.29492L1.51999 3.46293C1.92999 3.99384 2.59998 4.49207 3.31998 4.79428C4.04998 5.10466 4.87999 5.25984 5.71999 5.2435C6.54999 5.22716 7.38998 5.08014 8.11998 4.75343C8.84998 4.44305 9.52998 3.96117 9.97998 3.43843L10.93 2.34395L10.87 3.65895C10.63 8.7148 10.38 13.7788 9.92999 18.8347C9.70999 21.3585 9.48999 23.8905 9.17999 26.4062C9.01999 27.664 8.84998 28.93 8.63998 30.1797C8.42998 31.4375 8.20998 32.6954 7.77998 33.9124V33.9287Z" fill="#D25F2A"/>
</svg>
