<svg width="28" height="28" viewBox="0 0 28 28" fill="none" xmlns="http://www.w3.org/2000/svg">
<path d="M24.73 25.2005C21.62 26.1888 18.1 26.4157 15.51 27.4039C12.92 28.3922 9.70004 28.1653 7.94004 26.4743C6.18004 24.7906 4.32004 23.3119 1.41004 21.6355C-0.719962 20.4204 1.10004 16.4454 3.64004 11.5848C3.65004 11.5774 3.65004 11.5701 3.65004 11.5701C4.58004 9.79128 5.62004 7.87336 6.59004 5.9408C10.22 -1.26971 17.78 0.172414 17.78 0.172414C25.43 1.70968 27.05 8.96409 27.4 14.0224C27.54 15.9623 27.48 17.5728 27.51 18.4219C27.62 21.5111 27.83 24.2123 24.72 25.2005H24.73Z" fill="#E3F7FC"/>
<path d="M24.7301 25.2012C21.6201 26.1895 18.1001 26.4164 15.5101 27.4046C12.9201 28.3929 9.70009 28.166 7.94009 26.475C6.18009 24.7913 4.3201 23.3126 1.4101 21.6362C-0.109904 20.7651 0.380099 18.4958 1.7101 15.4945C2.2401 14.3086 2.9001 13.0129 3.6201 11.6367C3.3801 12.1784 1.8001 16.0801 4.9301 17.3612C8.3001 18.7447 9.0801 18.3348 11.3501 20.0038C13.6101 21.6802 17.7901 19.3011 21.1801 19.2425C24.5901 19.1839 26.1901 17.3465 27.4001 14.0305C27.5001 15.4213 27.4901 16.6438 27.5001 17.5369C27.5001 17.8883 27.5001 18.1884 27.5101 18.4226C27.6201 21.5118 27.8301 24.213 24.7201 25.2012H24.7301Z" fill="#CBEDFA"/>
<path d="M27.56 21.1967C27.45 23.056 26.8599 24.5274 24.7399 25.2082C21.6299 26.1964 18.1099 26.4234 15.5199 27.4116C12.9299 28.3998 9.70995 28.1729 7.94995 26.4819C6.18995 24.7983 4.32995 23.3195 1.41995 21.6432C0.519947 21.1235 0.319947 20.1133 0.599947 18.7444C0.779947 17.8147 1.17995 16.7166 1.71995 15.4941H1.72994C1.72994 15.4941 1.07995 17.273 3.21995 18.7444C5.36995 20.2157 8.27994 20.7867 10.2999 22.6973C13.2599 25.5083 17.1399 21.3284 19.9099 21.3431C22.6799 21.3504 25.9599 20.428 27.5199 17.5511C27.5199 17.8952 27.5199 18.1953 27.5299 18.4296C27.5599 19.4105 27.61 20.3402 27.56 21.1967Z" fill="#9FDAED"/>
<path d="M27.56 21.1964C27.45 23.0558 26.8599 24.5272 24.7399 25.208C21.6299 26.1962 18.1099 26.4231 15.5199 27.4114C12.9299 28.3996 9.70995 28.1727 7.94995 26.4817C6.18995 24.798 4.32995 23.3193 1.41995 21.643C0.519947 21.1232 0.319947 20.113 0.599947 18.7441C0.599947 18.7441 0.489947 21.1452 6.59995 23.2315C9.77995 24.3149 9.14995 26.6281 12.08 26.4817C14.99 26.3426 19.0099 24.3588 22.6799 24.3295C26.0499 24.3149 27.3799 21.6357 27.5699 21.1964H27.56Z" fill="#A5DFF2"/>
<path d="M7.49021 10.6998C7.49021 10.6998 9.48021 1.82765 16.3302 1.82033C23.1802 1.80569 25.2802 11.6515 24.1202 13.0131C22.9602 14.3746 18.9802 15.5532 15.1502 15.4214C11.3202 15.2897 6.46021 13.5987 7.49021 10.7072V10.6998Z" fill="#F0FCFF"/>
<path d="M14.1101 4.63048C15.1801 3.99362 16.6601 3.71545 17.9901 3.97166C19.3201 4.22787 20.4501 5.05506 20.6901 6.05062C20.8001 6.50448 20.7101 7.00226 20.2901 7.34631C19.8901 7.67572 19.2601 7.79284 18.6701 7.88801C17.4601 8.09297 16.2601 8.29794 15.0501 8.50291C13.8401 8.70788 11.8201 8.73716 11.9701 7.45611C12.0901 6.44591 13.0501 5.25271 14.1001 4.63048H14.1101Z" fill="white"/>
</svg>
