<svg width="26" height="23" viewBox="0 0 26 23" fill="none" xmlns="http://www.w3.org/2000/svg">
<path d="M25.3504 14.4903C25.3504 17.9455 24.4104 19.512 21.8104 20.2001C19.2204 20.8956 15.7904 22.9965 12.9504 22.9965C10.1104 22.9965 9.28036 22.3669 7.04036 21.1591C4.79036 19.9439 2.78036 19.8634 0.650358 18.2236C-0.709642 17.1695 0.740356 13.3556 2.46036 9.72476C2.47036 9.71011 2.47035 9.7028 2.47035 9.7028C2.65035 9.31482 2.84035 8.93418 3.03035 8.55352V8.53887C3.82035 6.93572 4.60035 5.42775 5.14035 4.2931C7.04035 0.391379 16.0204 0.486534 16.0204 0.486534C23.5604 0.486534 25.2304 4.97388 25.4804 9.04397C25.4904 9.10253 25.4904 9.16842 25.4904 9.23431C25.6004 11.3426 25.3404 13.3264 25.3404 14.4976L25.3504 14.4903Z" fill="#E3F7FC"/>
<path d="M25.4603 12.3603C25.4003 13.2021 25.3503 13.9341 25.3503 14.4831C25.3503 17.9383 24.4103 19.5049 21.8103 20.193C19.2203 20.8884 15.7903 22.9894 12.9503 22.9894C10.1103 22.9894 9.28029 22.3598 7.04029 21.152C4.79029 19.9368 2.78029 19.8563 0.650287 18.2165C-0.379713 17.4186 0.190277 15.0541 1.28028 12.3822C1.62028 11.5111 2.03028 10.6107 2.46028 9.71032C2.47028 9.69568 2.47028 9.68836 2.47028 9.68836C2.65028 9.30038 2.84028 8.91972 3.03028 8.53906C2.93028 9.08077 2.24028 12.7336 3.53028 13.1435C4.95028 13.5974 8.22029 12.2871 10.5903 13.7438C13.8803 15.7569 18.1803 14.7613 19.7903 14.3294C23.7003 13.2753 25.4603 11.0499 25.4903 9.22717C25.5503 10.3399 25.5003 11.416 25.4603 12.3676V12.3603Z" fill="#CBEDFA"/>
<path d="M25.4603 12.3594C25.4003 13.2012 25.3503 13.9332 25.3503 14.4823C25.3503 14.8995 25.3403 15.2948 25.3003 15.6608C25.0903 18.3035 24.0903 19.5845 21.8003 20.1848C19.2103 20.8802 15.7803 22.9811 12.9403 22.9811C10.1003 22.9811 9.27026 22.3516 7.03026 21.1437C4.78026 19.9286 2.77027 19.8481 0.640266 18.2083C0.0802656 17.7837 0.000267401 16.8833 0.220267 15.7414C0.380267 14.7604 0.77027 13.6112 1.27027 12.374C1.27027 12.374 0.730271 14.5042 2.63027 14.9581C4.53027 15.4046 7.35027 14.8629 8.64027 15.756C9.92027 16.6344 13.7703 18.1497 16.9703 17.6886C21.1603 17.0883 24.1703 14.5848 25.4403 12.374C25.4403 12.3667 25.4503 12.3667 25.4503 12.3594H25.4603Z" fill="#9FDAED"/>
<path d="M25.3003 15.6699C25.0903 18.3126 24.0903 19.5936 21.8003 20.1939C19.2103 20.8893 15.7803 22.9902 12.9403 22.9902C10.1003 22.9902 9.27026 22.3607 7.03026 21.1528C4.78026 19.9377 2.77027 19.8571 0.640266 18.2174C0.0802656 17.7928 0.000267401 16.8924 0.220267 15.7504C0.400267 16.563 0.940269 17.8148 2.44027 18.232C4.73027 18.8689 7.25027 18.7957 9.55027 20.6258C11.8403 22.4558 14.7103 21.1309 16.9803 20.2012C19.2003 19.3081 22.8103 20.2012 25.3003 15.6772V15.6699Z" fill="#A5DFF2"/>
<path d="M6.76025 8.00503C6.76025 7.86595 7.49025 3.18826 11.0703 2.57336C14.6503 1.95845 19.6802 1.71688 20.7802 3.14434C21.8802 4.5718 22.7702 9.45444 21.5502 10.7575C20.3302 12.0605 6.81024 11.6066 6.75024 8.00503H6.76025Z" fill="#F0FCFF"/>
<path d="M9.97021 5.55376C9.97021 5.50251 10.4002 3.88472 12.4802 3.67243C14.5702 3.46014 17.5002 3.37961 18.1402 3.87007C18.7802 4.36053 19.3002 6.05153 18.5902 6.50539C17.8802 6.95925 10.0002 6.79821 9.97021 5.55376Z" fill="white"/>
</svg>
