<svg width="22" height="22" viewBox="0 0 22 22" fill="none" xmlns="http://www.w3.org/2000/svg">
<path d="M21.6503 12.0197C21.6503 15.6213 18.4003 17.0414 16.2703 17.649C14.1403 18.2566 11.2603 21.9899 8.6703 21.9899C6.0803 21.9899 5.8903 20.5698 5.0603 19.0032C4.2103 17.444 2.00029 15.6798 0.780287 13.7839C-0.339713 12.0123 2.49029 6.80761 2.88029 6.1195C2.90029 6.06826 2.91029 6.04632 2.91029 6.04632C2.91029 6.04632 3.5803 4.10643 5.8203 2.49596C7.3903 1.36864 9.74029 0.402344 13.1903 0.402344C19.3103 0.402344 21.0003 4.70669 21.4503 8.41809C21.6203 9.77234 21.6303 11.0534 21.6303 12.0197H21.6503Z" fill="#E3F7FC"/>
<path d="M21.6501 12.0188C21.6501 15.6204 18.4001 17.0405 16.2701 17.6481C14.1401 18.2557 11.2601 21.9891 8.6701 21.9891C6.0801 21.9891 5.8901 20.5689 5.0601 19.0024C4.2101 17.4431 2.00009 15.679 0.780086 13.783C0.200086 12.8606 0.680099 11.0233 1.3401 9.36155C1.9501 7.82428 2.70009 6.44806 2.88009 6.11133C2.66009 6.64571 2.06009 9.91789 4.55009 11.8578C7.03009 13.783 6.7201 14.7346 8.8101 15.0275C10.8901 15.3203 13.7701 12.2677 15.8501 11.8578C17.8801 11.4552 20.3901 11.8578 21.4601 8.40989C21.5401 9.06872 21.5901 9.71292 21.6201 10.3205C21.6401 10.95 21.6401 11.5137 21.6401 12.0115L21.6501 12.0188Z" fill="#CBEDFA"/>
<path d="M21.6502 12.0191C21.6502 12.795 21.5002 13.4685 21.2402 14.0542C20.3002 16.199 17.9502 17.1726 16.2702 17.6557C14.1402 18.2633 11.2602 21.9967 8.67023 21.9967C6.08023 21.9967 5.89022 20.5765 5.06023 19.01C4.21022 17.4508 2.00021 15.6866 0.780211 13.7906C0.560211 13.4539 0.490211 12.9927 0.530211 12.4656V12.429C0.580211 11.514 0.920224 10.4159 1.34022 9.36914C1.34022 9.36914 0.810216 11.8727 4.52022 13.754C6.93022 14.9838 6.75022 16.6089 7.85022 17.2238C9.27022 18.0217 10.4402 17.2751 12.6202 15.3352C15.8002 12.5169 18.6202 13.8711 19.6802 12.9122C20.7302 11.9678 21.3302 11.331 21.6302 10.3354C21.6502 10.965 21.6502 11.5286 21.6502 12.0264V12.0191Z" fill="#9FDAED"/>
<path d="M21.2402 14.0455C20.3002 16.1904 17.9502 17.164 16.2702 17.6471C14.1402 18.2547 11.2602 21.9881 8.67023 21.9881C6.08023 21.9881 5.89022 20.5679 5.06023 19.0014C4.21022 17.4422 2.00021 15.678 0.780211 13.782C0.560211 13.4453 0.490211 12.9841 0.530211 12.457C0.760211 13.4014 2.41021 14.9093 3.72021 15.678C6.04021 17.0322 5.93022 19.9311 8.60022 20.4362C10.4202 20.7802 13.0802 17.0688 16.7702 16.3075C19.4702 15.7512 21.2302 14.0382 21.2302 14.0382H21.2402V14.0455Z" fill="#A5DFF2"/>
<path d="M12.0803 1.60889C12.0803 1.60889 6.24027 1.60888 4.98027 6.53544C4.03027 10.2761 8.93027 11.1546 11.2703 10.547C13.6203 9.94671 12.6203 9.09022 14.7203 8.81937C16.8203 8.54852 19.3203 8.08004 19.0303 6.79898C18.7403 5.51793 17.2603 1.79189 12.0703 1.60156L12.0803 1.60889Z" fill="#F0FCFF"/>
<path d="M12.0102 3.38819C12.0102 3.38819 9.37017 3.38817 8.80017 4.65459C8.37017 5.61355 10.5902 5.84048 11.6502 5.68675C12.7102 5.53302 12.2602 5.31343 13.2102 5.24022C14.1602 5.16702 15.2902 5.0499 15.1602 4.72049C15.0302 4.39107 14.3602 3.4321 12.0102 3.38086V3.38819Z" fill="white"/>
</svg>
