<svg width="17" height="39" viewBox="0 0 17 39" fill="none" xmlns="http://www.w3.org/2000/svg">
<path d="M0 38.4408C0 38.4408 1.13999 30.2421 2.17999 23.9319C3.21999 17.6218 4.25 12.9442 7.45 7.7248C10.65 2.50543 10.94 0.111673 13.62 0.0018682C16.29 -0.107936 14.96 4.63562 13.62 10.7993C12.28 16.963 14.93 27.9508 15.16 30.5641C15.39 33.1775 16.39 37.555 16.39 37.555C16.39 37.555 14.2898 33.7266 8.78979 34.2266C3.28979 34.7266 0 38.4408 0 38.4408Z" fill="#DC6F2F"/>
<path d="M13.17 4.53076C12.96 6.19247 12.53 7.83953 12.26 9.4866C11.99 11.1337 11.92 12.8027 11.94 14.4644C11.98 17.7878 12.39 21.1113 12.95 24.4127C13.51 27.7215 14.25 31.001 14.8 34.3244C14.9452 35.2324 15.0198 35.7218 15.049 36.0227L13.959 35.2266C13.9081 34.9721 13.8551 34.7009 13.8 34.4123C13.17 31.1181 12.52 27.8093 12.11 24.4786C11.67 21.1552 11.35 17.8098 11.42 14.4644C11.46 12.7881 11.61 11.119 11.95 9.45734C12.29 7.80295 12.79 6.17783 13.07 4.52344H13.17V4.53076Z" fill="#D25F2A"/>
<path d="M2.62427 36.3252L1.521 37.0852C1.67387 35.4431 1.89516 33.8068 2.13983 32.1725C2.62983 28.9662 3.18983 25.7745 3.75983 22.5755C4.32983 19.3839 4.97983 16.1776 6.11983 13.0518C7.23983 9.92605 8.88983 6.91008 10.8698 4.0332L10.9598 4.06249C9.07984 6.96865 7.53983 9.99924 6.52983 13.125C5.50983 16.2508 4.91984 19.4351 4.43984 22.6341C3.94984 25.8331 3.48983 29.032 3.10983 32.2383C2.95248 33.6019 2.78057 34.9642 2.62427 36.3252Z" fill="#D25F2A"/>
<path d="M4.12998 33.7553C3.59998 33.3453 5.11998 28.3236 5.58998 24.2389C7.08998 11.2819 12.04 2.2194 12.94 2.39509C13.84 2.57078 9.57997 11.1868 10.29 18.9024C10.77 24.1071 12.84 32.8842 12.1 33.3161C11.36 33.7479 10.58 32.8549 8.19998 32.9574C6.73998 33.0232 4.65998 34.1579 4.12998 33.7479V33.7553Z" fill="#E28348"/>
<path d="M6.32007 23.6755C6.94007 18.3098 10.4101 5.66028 11.3001 5.90185C11.7701 6.32643 9.45008 10.887 9.63008 18.2732C9.77008 24.0196 11.4501 30.1467 10.8601 30.6079C10.2701 31.0691 9.70007 30.5054 8.98007 30.5054C8.74007 30.5054 8.49007 30.5054 8.23007 30.52C7.45007 30.5566 6.53007 31.5376 5.97007 31.0764C5.40007 30.6079 6.02008 26.3182 6.33008 23.6755H6.32007Z" fill="#F5AA72"/>
<path d="M8.27997 29.1142C7.89997 27.8185 7.72997 26.5082 7.63997 25.1978C7.54997 23.8875 7.66997 22.5699 7.77997 21.2595C7.88997 19.9492 8.02997 18.6388 8.24997 17.3358C8.49997 16.0328 8.79997 14.7371 9.23997 13.4707L9.33997 13.4854C8.74997 16.0621 8.60997 18.6754 8.57997 21.2815C8.57997 22.5845 8.68997 23.8875 8.63997 25.1905C8.59997 26.4935 8.54997 27.7966 8.37997 29.1142H8.27997Z" fill="#F7BE94"/>
</svg>
