<svg width="24" height="40" viewBox="0 0 24 40" fill="none" xmlns="http://www.w3.org/2000/svg">
<path d="M0 36.4843C0 36.4843 1.92 30.8257 2.66 25.1671C3.38 19.633 6.04001 7.12258 17.96 0.131693C18.5 -0.18308 19.31 0.102408 19.31 0.607509C19.31 1.24438 18.85 2.28386 17.16 3.95289C13.56 7.51788 12.82 10.6876 15.04 10.0727C17.26 9.45043 20.65 4.0334 21.6 2.17404C22.55 0.314685 24.46 1.55182 23.08 4.03341C21.7 6.51499 18.43 11.2366 17.47 15.497C16.52 19.7574 17.79 27.5755 18.42 30.1376C19.05 32.6924 19.89 36.7478 20.14 39.4856C20.2624 40.8816 17.3599 33.2051 11.3599 33.2051C4.35986 33.2051 0 36.499 0 36.499V36.4843Z" fill="#DC6F2F"/>
<path d="M16.3824 35.2051C16.29 34.6814 16.2051 34.1587 16.1202 33.636C15.7802 31.5424 15.5602 29.4341 15.3702 27.3259C15.1802 25.2176 15.0502 23.1094 14.9702 20.9938C14.9402 19.9324 14.9302 18.8782 14.9702 17.8095C15.0302 16.748 15.0802 15.6646 15.4202 14.5812C16.1302 12.451 17.5002 10.5477 18.9402 8.72498C19.6402 7.81726 20.2802 6.88026 20.9102 5.93594C21.2202 5.46012 21.5202 4.9843 21.8002 4.50848C22.0602 4.03266 22.4002 3.52025 22.4602 3.05907L22.6602 3.03711C22.6402 3.62273 22.3402 4.09122 22.1202 4.60364C21.8802 5.10142 21.6202 5.5919 21.3502 6.08236C20.8102 7.06328 20.2402 8.02954 19.6102 8.9885C18.3502 10.8625 17.1602 12.7878 16.6202 14.7716C16.3802 15.7525 16.3502 16.7846 16.3502 17.8241C16.3502 18.8636 16.4102 19.9031 16.4902 20.9499C16.6402 23.0362 16.9102 25.1298 17.2102 27.2087L18.1602 33.4603L18.6402 36.5787L18.7702 37.34C18.7962 37.4828 18.8265 37.6875 18.8499 37.8896L16.3824 35.2051Z" fill="#D25F2A"/>
<path d="M17.4796 1.22211C16.7396 1.64669 16.1396 2.21035 15.5796 2.77401C15.0196 3.345 14.4996 3.93062 13.9896 4.53088C12.9896 5.73141 12.0596 6.96856 11.2296 8.22765L11.2096 8.25691C8.75957 11.1924 7.31956 14.5158 6.51956 17.9051C5.68956 21.3017 5.44956 24.7642 5.07956 28.256C4.87956 30.0055 4.63956 31.7624 4.10956 33.5266C4.00558 33.875 3.88092 34.2269 3.74048 34.5771L0.979699 35.878C0.931435 35.9711 1.02498 35.7846 0.979699 35.878C1.3897 35.08 1.82957 34.0171 2.08957 33.1899C2.62957 31.5501 2.91956 29.8372 3.21956 28.1242C3.77956 24.6837 4.18957 21.1699 5.16957 17.7148C6.12957 14.2669 7.74957 10.8483 10.4296 7.8909L10.4096 7.92019C11.3696 6.67573 12.4096 5.4752 13.5196 4.30395C14.0796 3.72565 14.6596 3.14736 15.2796 2.59833C15.9096 2.05663 16.5496 1.50759 17.3796 1.09766L17.4896 1.22211H17.4796Z" fill="#D25F2A"/>
<path d="M13.7801 18.2551C13.8701 17.4499 14.3601 15.2318 14.9701 14.1118C15.9101 12.4062 17.9101 9.41953 17.7501 9.27313C17.6601 9.1926 16.9201 9.95392 16.0701 10.6786C15.9401 10.7884 15.8001 10.8909 15.6701 10.9787C14.2301 11.9084 12.3901 11.4985 12.0501 10.1296C11.9101 9.54399 12.2101 8.97299 12.5201 8.42397C13.6101 6.48409 16.8201 2.52381 16.0701 3.19728C9.15012 9.3317 6.98011 17.6402 6.50011 24.0748C6.22011 27.8887 5.17011 31.2121 5.94011 31.6733C6.32011 31.9002 8.34012 31.3951 10.3701 31.3878C12.5001 31.3878 14.6401 31.8636 14.8901 31.6659C15.3801 31.278 13.7201 23.5477 13.7901 18.2551H13.7801Z" fill="#E28348"/>
<path d="M7.65026 29.0173C8.14026 29.3247 9.09026 28.9514 10.2803 28.9441C11.5903 28.9441 13.1403 29.2808 13.4503 29.0173C14.0503 28.5122 11.8302 22.4949 12.9402 18.0515C13.6502 15.1892 15.2003 12.8248 14.4503 12.6418C13.7503 12.4734 12.0703 12.9346 11.5103 11.2436C11.4503 11.0752 11.1502 11.0533 11.0502 11.207C9.31025 13.8569 6.63026 28.3731 7.65026 29.0246V29.0173Z" fill="#F5AA72"/>
<path d="M9.09022 24.8732C9.31022 22.8235 10.3702 13.2778 11.4502 13.5121C12.9302 13.9 10.6102 16.9965 11.0402 21.0007C11.1902 22.355 12.6502 25.5759 12.0702 25.9932C11.4902 26.4177 10.8302 26.1542 9.7502 26.5276C8.6702 26.9009 9.06022 25.1513 9.09022 24.8732Z" fill="#F7BE94"/>
</svg>
